<svg width="914.5833333333334" height="452.0833333333333" viewBox="0 0 439 217" xmlns="http://www.w3.org/2000/svg" xmlns:usvg="https://github.com/RazrFalcon/usvg" usvg:version="0.8.0">
    <defs/>
    <path fill="none" stroke="#000000" stroke-miterlimit="10" stroke-width="2" stroke-linejoin="round" stroke-dasharray="4 4" transform="matrix(1 0 0 -1 -47 708)" d="M 224 656 C 261.332031 677.332031 298.667969 677.332031 336 656"/>
    <path fill-rule="evenodd" stroke="#000000" stroke-miterlimit="10" stroke-width="2" stroke-linejoin="round" transform="matrix(1 0 0 -1 -47 708)" d="M 336 656 L 331.078125 661.496094 L 328.765625 657.449219 Z M 336 656"/>
    <path fill="none" stroke="#000000" stroke-miterlimit="10" stroke-width="1.2" stroke-linejoin="round" transform="matrix(1 0 0 -1 -47 708)" d="M 144 620 L 144 564"/>
    <path fill="none" stroke="#000000" stroke-miterlimit="10" stroke-width="1.2" stroke-linejoin="round" transform="matrix(1 0 0 -1 -47 708)" d="M 144 600 L 176 624"/>
    <path fill="none" stroke="#000000" stroke-miterlimit="10" stroke-width="1.2" stroke-linejoin="round" transform="matrix(1 0 0 -1 -47 708)" d="M 144 584 L 176 560"/>
    <path fill-rule="evenodd" stroke="#000000" stroke-miterlimit="10" stroke-width="1.2" stroke-linejoin="round" transform="matrix(1 0 0 -1 -47 708)" d="M 176 560 L 169.996094 568.664062 L 166.003906 563.335938 Z M 176 560"/>
    <path fill="none" stroke="#000000" stroke-miterlimit="10" stroke-width="2" stroke-linejoin="round" transform="matrix(1 0 0 -1 -47 708)" d="M 244 600 C 239.582031 646.390625 198.390625 680.417969 152 676 C 105.609375 671.582031 71.582031 630.390625 76 584 C 80.417969 537.609375 121.609375 503.582031 168 508 C 214.390625 512.417969 248.417969 553.609375 244 600 Z M 244 600"/>
    <path fill="none" stroke="#000000" stroke-miterlimit="10" stroke-width="0.8" stroke-linejoin="round" transform="matrix(1 0 0 -1 -47 708)" d="M 144 592 L 48 592"/>
    <path fill="none" stroke="#000000" stroke-miterlimit="10" stroke-width="0.8" stroke-linejoin="round" transform="matrix(1 0 0 -1 -47 708)" d="M 176 624 L 208 688"/>
    <path fill="none" stroke="#000000" stroke-miterlimit="10" stroke-width="0.8" stroke-linejoin="round" transform="matrix(1 0 0 -1 -47 708)" d="M 176 560 L 208 496"/>
    <path transform="matrix(1 0 0 1 1 112)" d="M 1.078125 -14.109375 L 1.078125 -13.578125 C 2.5 -13.578125 2.734375 -13.578125 2.734375 -12.640625 L 2.734375 -1.46875 C 2.734375 -0.53125 2.5 -0.53125 1.078125 -0.53125 L 1.078125 0 L 8.1875 0 C 10.828125 0 12.53125 -1.875 12.53125 -3.765625 C 12.53125 -5.625 10.84375 -7.203125 8.640625 -7.359375 C 10.625 -7.75 12 -9.0625 12 -10.640625 C 12 -12.359375 10.3125 -14.109375 7.640625 -14.109375 Z M 4.03125 -7.5 L 4.03125 -12.765625 C 4.03125 -13.46875 4.0625 -13.578125 4.890625 -13.578125 L 7.546875 -13.578125 C 9.578125 -13.578125 10.5 -11.921875 10.5 -10.640625 C 10.5 -9.0625 9.234375 -7.5 7 -7.5 Z M 4.890625 -0.53125 C 4.0625 -0.53125 4.03125 -0.640625 4.03125 -1.34375 L 4.03125 -7.171875 L 7.84375 -7.171875 C 9.984375 -7.171875 11.015625 -5.28125 11.015625 -3.78125 C 11.015625 -2.265625 9.828125 -0.53125 7.578125 -0.53125 Z M 4.890625 -0.53125"/>
    <path transform="matrix(1 0 0 1 165 16)" d="M 12.828125 -14.03125 C 12.828125 -14.390625 12.8125 -14.421875 12.6875 -14.421875 C 12.59375 -14.421875 12.578125 -14.390625 12.4375 -14.15625 L 11.53125 -12.421875 C 10.515625 -13.6875 9.28125 -14.4375 7.6875 -14.4375 C 4.15625 -14.4375 0.953125 -11.3125 0.953125 -7.0625 C 0.953125 -2.765625 4.15625 0.328125 7.703125 0.328125 C 10.859375 0.328125 12.828125 -2.453125 12.828125 -4.828125 C 12.828125 -5.046875 12.828125 -5.125 12.640625 -5.125 C 12.46875 -5.125 12.46875 -5.0625 12.453125 -4.875 C 12.296875 -1.984375 10.21875 -0.203125 8 -0.203125 C 5.890625 -0.203125 2.515625 -1.6875 2.515625 -7.0625 C 2.515625 -12.453125 5.953125 -13.90625 7.953125 -13.90625 C 10.28125 -13.90625 11.984375 -11.875 12.375 -9 C 12.421875 -8.765625 12.421875 -8.71875 12.59375 -8.71875 C 12.828125 -8.71875 12.828125 -8.765625 12.828125 -9.125 Z M 12.828125 -14.03125"/>
    <path transform="matrix(1 0 0 1 165 216)" d="M 12.53125 -5.21875 L 12.171875 -5.21875 C 11.71875 -2.1875 11.4375 -0.53125 7.8125 -0.53125 L 4.9375 -0.53125 C 4.109375 -0.53125 4.0625 -0.640625 4.0625 -1.34375 L 4.0625 -7.046875 L 6.015625 -7.046875 C 7.953125 -7.046875 8.140625 -6.34375 8.140625 -4.625 L 8.515625 -4.625 L 8.515625 -10 L 8.140625 -10 C 8.140625 -8.28125 7.953125 -7.578125 6.015625 -7.578125 L 4.0625 -7.578125 L 4.0625 -12.71875 C 4.0625 -13.421875 4.109375 -13.53125 4.9375 -13.53125 L 7.765625 -13.53125 C 10.96875 -13.53125 11.34375 -12.25 11.625 -9.5 L 12 -9.5 L 11.5 -14.0625 L 1.046875 -14.0625 L 1.046875 -13.53125 C 2.484375 -13.53125 2.703125 -13.53125 2.703125 -12.59375 L 2.703125 -1.46875 C 2.703125 -0.53125 2.484375 -0.53125 1.046875 -0.53125 L 1.046875 0 L 11.796875 0 Z M 12.53125 -5.21875"/>
    <path fill="none" stroke="#000000" stroke-miterlimit="10" stroke-width="2" stroke-linejoin="round" transform="matrix(1 0 0 -1 -47 708)" d="M 484 600 C 479.582031 646.390625 438.390625 680.417969 392 676 C 345.609375 671.582031 311.582031 630.390625 316 584 C 320.417969 537.609375 361.609375 503.582031 408 508 C 454.390625 512.417969 488.417969 553.609375 484 600 Z M 484 600"/>
    <path transform="matrix(1 0 0 1 241 112)" d="M 1.078125 -14.109375 L 1.078125 -13.578125 C 2.5 -13.578125 2.734375 -13.578125 2.734375 -12.640625 L 2.734375 -1.46875 C 2.734375 -0.53125 2.5 -0.53125 1.078125 -0.53125 L 1.078125 0 L 8.1875 0 C 10.828125 0 12.53125 -1.875 12.53125 -3.765625 C 12.53125 -5.625 10.84375 -7.203125 8.640625 -7.359375 C 10.625 -7.75 12 -9.0625 12 -10.640625 C 12 -12.359375 10.3125 -14.109375 7.640625 -14.109375 Z M 4.03125 -7.5 L 4.03125 -12.765625 C 4.03125 -13.46875 4.0625 -13.578125 4.890625 -13.578125 L 7.546875 -13.578125 C 9.578125 -13.578125 10.5 -11.921875 10.5 -10.640625 C 10.5 -9.0625 9.234375 -7.5 7 -7.5 Z M 4.890625 -0.53125 C 4.0625 -0.53125 4.03125 -0.640625 4.03125 -1.34375 L 4.03125 -7.171875 L 7.84375 -7.171875 C 9.984375 -7.171875 11.015625 -5.28125 11.015625 -3.78125 C 11.015625 -2.265625 9.828125 -0.53125 7.578125 -0.53125 Z M 4.890625 -0.53125"/>
    <path transform="matrix(1 0 0 1 405 16)" d="M 12.828125 -14.03125 C 12.828125 -14.390625 12.8125 -14.421875 12.6875 -14.421875 C 12.59375 -14.421875 12.578125 -14.390625 12.4375 -14.15625 L 11.53125 -12.421875 C 10.515625 -13.6875 9.28125 -14.4375 7.6875 -14.4375 C 4.15625 -14.4375 0.953125 -11.3125 0.953125 -7.0625 C 0.953125 -2.765625 4.15625 0.328125 7.703125 0.328125 C 10.859375 0.328125 12.828125 -2.453125 12.828125 -4.828125 C 12.828125 -5.046875 12.828125 -5.125 12.640625 -5.125 C 12.46875 -5.125 12.46875 -5.0625 12.453125 -4.875 C 12.296875 -1.984375 10.21875 -0.203125 8 -0.203125 C 5.890625 -0.203125 2.515625 -1.6875 2.515625 -7.0625 C 2.515625 -12.453125 5.953125 -13.90625 7.953125 -13.90625 C 10.28125 -13.90625 11.984375 -11.875 12.375 -9 C 12.421875 -8.765625 12.421875 -8.71875 12.59375 -8.71875 C 12.828125 -8.71875 12.828125 -8.765625 12.828125 -9.125 Z M 12.828125 -14.03125"/>
    <path transform="matrix(1 0 0 1 405 216)" d="M 12.53125 -5.21875 L 12.171875 -5.21875 C 11.71875 -2.1875 11.4375 -0.53125 7.8125 -0.53125 L 4.9375 -0.53125 C 4.109375 -0.53125 4.0625 -0.640625 4.0625 -1.34375 L 4.0625 -7.046875 L 6.015625 -7.046875 C 7.953125 -7.046875 8.140625 -6.34375 8.140625 -4.625 L 8.515625 -4.625 L 8.515625 -10 L 8.140625 -10 C 8.140625 -8.28125 7.953125 -7.578125 6.015625 -7.578125 L 4.0625 -7.578125 L 4.0625 -12.71875 C 4.0625 -13.421875 4.109375 -13.53125 4.9375 -13.53125 L 7.765625 -13.53125 C 10.96875 -13.53125 11.34375 -12.25 11.625 -9.5 L 12 -9.5 L 11.5 -14.0625 L 1.046875 -14.0625 L 1.046875 -13.53125 C 2.484375 -13.53125 2.703125 -13.53125 2.703125 -12.59375 L 2.703125 -1.46875 C 2.703125 -0.53125 2.484375 -0.53125 1.046875 -0.53125 L 1.046875 0 L 11.796875 0 Z M 12.53125 -5.21875"/>
    <path fill="none" stroke="#000000" stroke-miterlimit="10" stroke-width="0.8" stroke-linejoin="round" transform="matrix(1 0 0 -1 -47 708)" d="M 352 608 L 337.601562 608 L 320 592 L 288 592"/>
    <path fill="none" stroke="#000000" stroke-miterlimit="10" stroke-width="0.8" stroke-linejoin="round" transform="matrix(1 0 0 -1 -47 708)" d="M 416 608 L 416 624 L 448 688"/>
    <path fill="none" stroke="#000000" stroke-miterlimit="10" stroke-width="0.8" stroke-linejoin="round" transform="matrix(1 0 0 -1 -47 708)" d="M 416 560 L 448 496"/>
    <path fill="none" stroke="#000000" stroke-miterlimit="10" stroke-width="1.2" stroke-linejoin="round" transform="matrix(1 0 0 -1 -47 708)" d="M 352 600 L 360 596 L 344 588 L 360 580 L 344 572 L 352 568"/>
    <path transform="matrix(1 0 0 1 284.135 127.998)" d="M 5.578125 -5.859375 C 5.140625 -5.78125 4.90625 -5.46875 4.90625 -5.15625 C 4.90625 -4.8125 5.171875 -4.6875 5.375 -4.6875 C 5.78125 -4.6875 6.109375 -5.03125 6.109375 -5.46875 C 6.109375 -5.921875 5.671875 -6.328125 4.953125 -6.328125 C 4.375 -6.328125 3.71875 -6.0625 3.109375 -5.1875 C 3.015625 -5.953125 2.4375 -6.328125 1.859375 -6.328125 C 1.3125 -6.328125 1.015625 -5.890625 0.84375 -5.578125 C 0.609375 -5.0625 0.390625 -4.203125 0.390625 -4.125 C 0.390625 -4.078125 0.4375 -4 0.546875 -4 C 0.65625 -4 0.671875 -4.015625 0.765625 -4.34375 C 0.96875 -5.203125 1.25 -6.03125 1.828125 -6.03125 C 2.171875 -6.03125 2.265625 -5.796875 2.265625 -5.375 C 2.265625 -5.0625 2.125 -4.5 2.015625 -4.0625 L 1.625 -2.515625 C 1.5625 -2.234375 1.40625 -1.59375 1.328125 -1.328125 C 1.234375 -0.96875 1.078125 -0.28125 1.078125 -0.21875 C 1.078125 -0.015625 1.234375 0.140625 1.453125 0.140625 C 1.609375 0.140625 1.875 0.046875 1.96875 -0.25 C 2.015625 -0.359375 2.53125 -2.53125 2.625 -2.859375 C 2.703125 -3.171875 2.78125 -3.46875 2.859375 -3.78125 C 2.90625 -3.984375 2.96875 -4.21875 3.015625 -4.40625 C 3.0625 -4.53125 3.4375 -5.234375 3.796875 -5.546875 C 3.96875 -5.703125 4.34375 -6.03125 4.9375 -6.03125 C 5.15625 -6.03125 5.390625 -6 5.578125 -5.859375 Z M 5.578125 -5.859375"/>
    <path transform="matrix(1 0 0 1 290.465 130.15)" d="M 2.640625 -3.71875 L 3.765625 -3.71875 C 3.4375 -2.25 3.34375 -1.8125 3.34375 -1.140625 C 3.34375 -1 3.34375 -0.734375 3.421875 -0.390625 C 3.53125 0.046875 3.640625 0.109375 3.78125 0.109375 C 3.984375 0.109375 4.203125 -0.0625 4.203125 -0.265625 C 4.203125 -0.328125 4.203125 -0.34375 4.140625 -0.484375 C 3.84375 -1.203125 3.84375 -1.859375 3.84375 -2.140625 C 3.84375 -2.65625 3.921875 -3.203125 4.03125 -3.71875 L 5.15625 -3.71875 C 5.296875 -3.71875 5.65625 -3.71875 5.65625 -4.0625 C 5.65625 -4.296875 5.4375 -4.296875 5.25 -4.296875 L 1.90625 -4.296875 C 1.6875 -4.296875 1.3125 -4.296875 0.875 -3.828125 C 0.53125 -3.4375 0.265625 -2.984375 0.265625 -2.9375 C 0.265625 -2.921875 0.265625 -2.828125 0.390625 -2.828125 C 0.46875 -2.828125 0.484375 -2.875 0.546875 -2.953125 C 1.03125 -3.71875 1.609375 -3.71875 1.8125 -3.71875 L 2.375 -3.71875 C 2.0625 -2.515625 1.53125 -1.3125 1.109375 -0.40625 C 1.03125 -0.25 1.03125 -0.234375 1.03125 -0.15625 C 1.03125 0.03125 1.1875 0.109375 1.3125 0.109375 C 1.609375 0.109375 1.6875 -0.171875 1.8125 -0.53125 C 1.953125 -1 1.953125 -1.015625 2.078125 -1.515625 Z M 2.640625 -3.71875"/>
    <path fill="none" stroke="#000000" stroke-miterlimit="10" stroke-width="0.4" stroke-linejoin="round" transform="matrix(1 0 0 -1 -47 708)" d="M 368 604 L 368 596"/>
    <path fill="none" stroke="#000000" stroke-miterlimit="10" stroke-width="0.4" stroke-linejoin="round" transform="matrix(1 0 0 -1 -47 708)" d="M 364 600 L 372 600"/>
    <path fill="none" stroke="#000000" stroke-miterlimit="10" stroke-width="0.4" stroke-linejoin="round" transform="matrix(1 0 0 -1 -47 708)" d="M 364 568 L 372 568"/>
    <path transform="matrix(1 0 0 1 321 123.998)" d="M 6.5625 -5.359375 C 6.5625 -6.265625 6.09375 -6.328125 5.984375 -6.328125 C 5.640625 -6.328125 5.328125 -5.984375 5.328125 -5.6875 C 5.328125 -5.515625 5.421875 -5.421875 5.484375 -5.359375 C 5.625 -5.234375 6 -4.84375 6 -4.109375 C 6 -3.5 5.140625 -0.140625 3.40625 -0.140625 C 2.53125 -0.140625 2.359375 -0.875 2.359375 -1.40625 C 2.359375 -2.125 2.703125 -3.125 3.078125 -4.15625 C 3.3125 -4.75 3.375 -4.890625 3.375 -5.171875 C 3.375 -5.78125 2.9375 -6.328125 2.234375 -6.328125 C 0.921875 -6.328125 0.390625 -4.25 0.390625 -4.125 C 0.390625 -4.078125 0.4375 -4 0.546875 -4 C 0.671875 -4 0.6875 -4.0625 0.75 -4.265625 C 1.09375 -5.5 1.65625 -6.03125 2.1875 -6.03125 C 2.328125 -6.03125 2.5625 -6.03125 2.5625 -5.5625 C 2.5625 -5.1875 2.40625 -4.78125 2.1875 -4.234375 C 1.5 -2.390625 1.5 -1.953125 1.5 -1.609375 C 1.5 -1.296875 1.546875 -0.703125 2 -0.296875 C 2.515625 0.140625 3.234375 0.140625 3.359375 0.140625 C 5.734375 0.140625 6.5625 -4.546875 6.5625 -5.359375 Z M 6.5625 -5.359375"/>
    <path transform="matrix(1 0 0 1 327.791 126.15)" d="M 2.640625 -3.71875 L 3.765625 -3.71875 C 3.4375 -2.25 3.34375 -1.8125 3.34375 -1.140625 C 3.34375 -1 3.34375 -0.734375 3.421875 -0.390625 C 3.53125 0.046875 3.640625 0.109375 3.78125 0.109375 C 3.984375 0.109375 4.203125 -0.0625 4.203125 -0.265625 C 4.203125 -0.328125 4.203125 -0.34375 4.140625 -0.484375 C 3.84375 -1.203125 3.84375 -1.859375 3.84375 -2.140625 C 3.84375 -2.65625 3.921875 -3.203125 4.03125 -3.71875 L 5.15625 -3.71875 C 5.296875 -3.71875 5.65625 -3.71875 5.65625 -4.0625 C 5.65625 -4.296875 5.4375 -4.296875 5.25 -4.296875 L 1.90625 -4.296875 C 1.6875 -4.296875 1.3125 -4.296875 0.875 -3.828125 C 0.53125 -3.4375 0.265625 -2.984375 0.265625 -2.9375 C 0.265625 -2.921875 0.265625 -2.828125 0.390625 -2.828125 C 0.46875 -2.828125 0.484375 -2.875 0.546875 -2.953125 C 1.03125 -3.71875 1.609375 -3.71875 1.8125 -3.71875 L 2.375 -3.71875 C 2.0625 -2.515625 1.53125 -1.3125 1.109375 -0.40625 C 1.03125 -0.25 1.03125 -0.234375 1.03125 -0.15625 C 1.03125 0.03125 1.1875 0.109375 1.3125 0.109375 C 1.609375 0.109375 1.6875 -0.171875 1.8125 -0.53125 C 1.953125 -1 1.953125 -1.015625 2.078125 -1.515625 Z M 2.640625 -3.71875"/>
    <path transform="matrix(1 0 0 1 369 124)" d="M 4.84375 -1.828125 C 4.796875 -1.59375 4.765625 -1.53125 4.578125 -1.3125 C 3.984375 -0.5625 3.390625 -0.28125 2.9375 -0.28125 C 2.46875 -0.28125 2.015625 -0.65625 2.015625 -1.65625 C 2.015625 -2.40625 2.453125 -4.015625 2.765625 -4.65625 C 3.1875 -5.46875 3.828125 -6.03125 4.4375 -6.03125 C 5.375 -6.03125 5.5625 -4.859375 5.5625 -4.78125 L 5.515625 -4.578125 Z M 5.734375 -5.375 C 5.546875 -5.796875 5.15625 -6.328125 4.4375 -6.328125 C 2.875 -6.328125 1.09375 -4.359375 1.09375 -2.21875 C 1.09375 -0.734375 2 0 2.90625 0 C 3.671875 0 4.34375 -0.609375 4.609375 -0.890625 L 4.28125 0.40625 C 4.09375 1.1875 4 1.546875 3.484375 2.046875 C 2.890625 2.640625 2.359375 2.640625 2.03125 2.640625 C 1.609375 2.640625 1.25 2.609375 0.890625 2.5 C 1.34375 2.359375 1.46875 1.96875 1.46875 1.8125 C 1.46875 1.578125 1.296875 1.34375 0.96875 1.34375 C 0.625 1.34375 0.265625 1.640625 0.265625 2.109375 C 0.265625 2.703125 0.84375 2.921875 2.0625 2.921875 C 3.921875 2.921875 4.875 1.734375 5.0625 0.96875 L 6.65625 -5.46875 C 6.703125 -5.640625 6.703125 -5.671875 6.703125 -5.6875 C 6.703125 -5.890625 6.546875 -6.046875 6.328125 -6.046875 C 5.984375 -6.046875 5.78125 -5.765625 5.734375 -5.375 Z M 5.734375 -5.375"/>
    <path transform="matrix(1 0 0 1 375.726 126.152)" d="M 0.875 -0.59375 C 0.84375 -0.4375 0.78125 -0.203125 0.78125 -0.15625 C 0.78125 0.015625 0.921875 0.109375 1.078125 0.109375 C 1.203125 0.109375 1.375 0.03125 1.453125 -0.171875 C 1.453125 -0.1875 1.578125 -0.65625 1.640625 -0.90625 L 1.859375 -1.796875 C 1.90625 -2.03125 1.96875 -2.25 2.03125 -2.46875 C 2.0625 -2.640625 2.140625 -2.9375 2.15625 -2.96875 C 2.296875 -3.28125 2.828125 -4.1875 3.78125 -4.1875 C 4.234375 -4.1875 4.3125 -3.8125 4.3125 -3.484375 C 4.3125 -3.234375 4.25 -2.953125 4.171875 -2.65625 L 3.890625 -1.5 L 3.6875 -0.75 C 3.65625 -0.546875 3.5625 -0.203125 3.5625 -0.15625 C 3.5625 0.015625 3.703125 0.109375 3.84375 0.109375 C 4.15625 0.109375 4.21875 -0.140625 4.296875 -0.453125 C 4.4375 -1.015625 4.8125 -2.46875 4.890625 -2.859375 C 4.921875 -2.984375 5.453125 -4.1875 6.546875 -4.1875 C 6.96875 -4.1875 7.078125 -3.84375 7.078125 -3.484375 C 7.078125 -2.921875 6.65625 -1.78125 6.453125 -1.25 C 6.375 -1.015625 6.328125 -0.90625 6.328125 -0.703125 C 6.328125 -0.234375 6.671875 0.109375 7.140625 0.109375 C 8.078125 0.109375 8.453125 -1.34375 8.453125 -1.421875 C 8.453125 -1.53125 8.359375 -1.53125 8.328125 -1.53125 C 8.234375 -1.53125 8.234375 -1.5 8.1875 -1.34375 C 8.03125 -0.8125 7.71875 -0.109375 7.171875 -0.109375 C 7 -0.109375 6.921875 -0.203125 6.921875 -0.4375 C 6.921875 -0.6875 7.015625 -0.921875 7.109375 -1.140625 C 7.296875 -1.671875 7.71875 -2.765625 7.71875 -3.34375 C 7.71875 -3.984375 7.3125 -4.40625 6.5625 -4.40625 C 5.828125 -4.40625 5.3125 -3.96875 4.9375 -3.4375 C 4.9375 -3.5625 4.90625 -3.90625 4.625 -4.140625 C 4.375 -4.359375 4.0625 -4.40625 3.8125 -4.40625 C 2.90625 -4.40625 2.421875 -3.765625 2.25 -3.53125 C 2.203125 -4.109375 1.78125 -4.40625 1.328125 -4.40625 C 0.875 -4.40625 0.6875 -4.015625 0.59375 -3.84375 C 0.421875 -3.484375 0.296875 -2.90625 0.296875 -2.875 C 0.296875 -2.765625 0.390625 -2.765625 0.40625 -2.765625 C 0.515625 -2.765625 0.515625 -2.78125 0.578125 -3 C 0.75 -3.703125 0.953125 -4.1875 1.3125 -4.1875 C 1.46875 -4.1875 1.609375 -4.109375 1.609375 -3.734375 C 1.609375 -3.515625 1.578125 -3.40625 1.453125 -2.890625 Z M 0.875 -0.59375"/>
    <path transform="matrix(1 0 0 1 384.972 124)" d="M 6.5625 -5.359375 C 6.5625 -6.265625 6.09375 -6.328125 5.984375 -6.328125 C 5.640625 -6.328125 5.328125 -5.984375 5.328125 -5.6875 C 5.328125 -5.515625 5.421875 -5.421875 5.484375 -5.359375 C 5.625 -5.234375 6 -4.84375 6 -4.109375 C 6 -3.5 5.140625 -0.140625 3.40625 -0.140625 C 2.53125 -0.140625 2.359375 -0.875 2.359375 -1.40625 C 2.359375 -2.125 2.703125 -3.125 3.078125 -4.15625 C 3.3125 -4.75 3.375 -4.890625 3.375 -5.171875 C 3.375 -5.78125 2.9375 -6.328125 2.234375 -6.328125 C 0.921875 -6.328125 0.390625 -4.25 0.390625 -4.125 C 0.390625 -4.078125 0.4375 -4 0.546875 -4 C 0.671875 -4 0.6875 -4.0625 0.75 -4.265625 C 1.09375 -5.5 1.65625 -6.03125 2.1875 -6.03125 C 2.328125 -6.03125 2.5625 -6.03125 2.5625 -5.5625 C 2.5625 -5.1875 2.40625 -4.78125 2.1875 -4.234375 C 1.5 -2.390625 1.5 -1.953125 1.5 -1.609375 C 1.5 -1.296875 1.546875 -0.703125 2 -0.296875 C 2.515625 0.140625 3.234375 0.140625 3.359375 0.140625 C 5.734375 0.140625 6.5625 -4.546875 6.5625 -5.359375 Z M 6.5625 -5.359375"/>
    <path transform="matrix(1 0 0 1 391.763 126.152)" d="M 2.640625 -3.71875 L 3.765625 -3.71875 C 3.4375 -2.25 3.34375 -1.8125 3.34375 -1.140625 C 3.34375 -1 3.34375 -0.734375 3.421875 -0.390625 C 3.53125 0.046875 3.640625 0.109375 3.78125 0.109375 C 3.984375 0.109375 4.203125 -0.0625 4.203125 -0.265625 C 4.203125 -0.328125 4.203125 -0.34375 4.140625 -0.484375 C 3.84375 -1.203125 3.84375 -1.859375 3.84375 -2.140625 C 3.84375 -2.65625 3.921875 -3.203125 4.03125 -3.71875 L 5.15625 -3.71875 C 5.296875 -3.71875 5.65625 -3.71875 5.65625 -4.0625 C 5.65625 -4.296875 5.4375 -4.296875 5.25 -4.296875 L 1.90625 -4.296875 C 1.6875 -4.296875 1.3125 -4.296875 0.875 -3.828125 C 0.53125 -3.4375 0.265625 -2.984375 0.265625 -2.9375 C 0.265625 -2.921875 0.265625 -2.828125 0.390625 -2.828125 C 0.46875 -2.828125 0.484375 -2.875 0.546875 -2.953125 C 1.03125 -3.71875 1.609375 -3.71875 1.8125 -3.71875 L 2.375 -3.71875 C 2.0625 -2.515625 1.53125 -1.3125 1.109375 -0.40625 C 1.03125 -0.25 1.03125 -0.234375 1.03125 -0.15625 C 1.03125 0.03125 1.1875 0.109375 1.3125 0.109375 C 1.609375 0.109375 1.6875 -0.171875 1.8125 -0.53125 C 1.953125 -1 1.953125 -1.015625 2.078125 -1.515625 Z M 2.640625 -3.71875"/>
    <path fill="none" stroke="#000000" stroke-miterlimit="10" stroke-width="1.2" stroke-linejoin="round" transform="matrix(1 0 0 -1 -47 708)" d="M 400 600 L 388 584 L 400 568 L 412 584 L 400 600"/>
    <path fill="none" stroke="#000000" stroke-miterlimit="10" stroke-width="1.2" stroke-linejoin="round" transform="matrix(1 0 0 -1 -47 708)" d="M 400 596 L 400 572"/>
    <path fill-rule="evenodd" stroke="#000000" stroke-miterlimit="10" stroke-width="1.2" stroke-linejoin="round" transform="matrix(1 0 0 -1 -47 708)" d="M 400 572 L 402.332031 579 L 397.667969 579 Z M 400 572"/>
    <path fill="none" stroke="#000000" stroke-miterlimit="10" stroke-width="1.2" stroke-linejoin="round" transform="matrix(1 0 0 -1 -47 708)" d="M 456 600 L 464 596 L 448 588 L 464 580 L 448 572 L 456 568"/>
    <path transform="matrix(1 0 0 1 417 123.998)" d="M 5.578125 -5.859375 C 5.140625 -5.78125 4.90625 -5.46875 4.90625 -5.15625 C 4.90625 -4.8125 5.171875 -4.6875 5.375 -4.6875 C 5.78125 -4.6875 6.109375 -5.03125 6.109375 -5.46875 C 6.109375 -5.921875 5.671875 -6.328125 4.953125 -6.328125 C 4.375 -6.328125 3.71875 -6.0625 3.109375 -5.1875 C 3.015625 -5.953125 2.4375 -6.328125 1.859375 -6.328125 C 1.3125 -6.328125 1.015625 -5.890625 0.84375 -5.578125 C 0.609375 -5.0625 0.390625 -4.203125 0.390625 -4.125 C 0.390625 -4.078125 0.4375 -4 0.546875 -4 C 0.65625 -4 0.671875 -4.015625 0.765625 -4.34375 C 0.96875 -5.203125 1.25 -6.03125 1.828125 -6.03125 C 2.171875 -6.03125 2.265625 -5.796875 2.265625 -5.375 C 2.265625 -5.0625 2.125 -4.5 2.015625 -4.0625 L 1.625 -2.515625 C 1.5625 -2.234375 1.40625 -1.59375 1.328125 -1.328125 C 1.234375 -0.96875 1.078125 -0.28125 1.078125 -0.21875 C 1.078125 -0.015625 1.234375 0.140625 1.453125 0.140625 C 1.609375 0.140625 1.875 0.046875 1.96875 -0.25 C 2.015625 -0.359375 2.53125 -2.53125 2.625 -2.859375 C 2.703125 -3.171875 2.78125 -3.46875 2.859375 -3.78125 C 2.90625 -3.984375 2.96875 -4.21875 3.015625 -4.40625 C 3.0625 -4.53125 3.4375 -5.234375 3.796875 -5.546875 C 3.96875 -5.703125 4.34375 -6.03125 4.9375 -6.03125 C 5.15625 -6.03125 5.390625 -6 5.578125 -5.859375 Z M 5.578125 -5.859375"/>
    <path transform="matrix(1 0 0 1 423.33 126.15)" d="M 4.671875 -2.71875 C 4.671875 -3.765625 3.984375 -4.40625 3.078125 -4.40625 C 1.75 -4.40625 0.40625 -2.984375 0.40625 -1.578125 C 0.40625 -0.59375 1.078125 0.109375 2 0.109375 C 3.328125 0.109375 4.671875 -1.265625 4.671875 -2.71875 Z M 2.015625 -0.109375 C 1.578125 -0.109375 1.140625 -0.421875 1.140625 -1.203125 C 1.140625 -1.6875 1.40625 -2.765625 1.71875 -3.265625 C 2.21875 -4.03125 2.796875 -4.1875 3.078125 -4.1875 C 3.65625 -4.1875 3.953125 -3.703125 3.953125 -3.109375 C 3.953125 -2.71875 3.75 -1.671875 3.375 -1.03125 C 3.015625 -0.453125 2.46875 -0.109375 2.015625 -0.109375 Z M 2.015625 -0.109375"/>
    <path fill="none" stroke="#000000" stroke-miterlimit="10" stroke-width="1.2" stroke-linejoin="round" transform="matrix(1 0 0 -1 -47 708)" d="M 400 600 L 400 608 L 456 608 L 456 600"/>
    <path fill="none" stroke="#000000" stroke-miterlimit="10" stroke-width="1.2" stroke-linejoin="round" transform="matrix(1 0 0 -1 -47 708)" d="M 456 568 L 456 560 L 352 560 L 352 568"/>
    <path fill="none" stroke="#000000" stroke-miterlimit="10" stroke-width="1.2" stroke-linejoin="round" transform="matrix(1 0 0 -1 -47 708)" d="M 400 560 L 400 568"/>
    <path fill="none" stroke="#000000" stroke-miterlimit="10" stroke-width="1.2" stroke-linejoin="round" transform="matrix(1 0 0 -1 -47 708)" d="M 352 600 L 352 608"/>
</svg>
