<svg xmlns:xlink="http://www.w3.org/1999/xlink" xmlns="http://www.w3.org/2000/svg" width="1000.0" height="307.212421585">
  <desc>Created by CircuitLab https://www.circuitlab.com/</desc><g transform="matrix(1.10907011403,0,0,1.10907011403,-2517.58915884,-1357.50181957)">
    <rect x="2275" y="1225" width="400" height="275" r="0" rx="0" ry="0" fill="none" stroke="none" style="stroke-opacity: 0;"/>
    <rect x="2275" y="1225" width="400" height="275" r="0" rx="0" ry="0" fill="none" stroke="#00ff00" stroke-dasharray="16,6" stroke-width="2"/>
    <path style="stroke-linejoin: round;" fill="#000000" stroke="#000000" d="M0,50L12,35L19.333333333333332,35Z" stroke-width="2" stroke-linejoin="round" transform="translate(2475,1225)"/>
    <path style="stroke-linejoin: round;" fill="#000000" stroke="#000000" d="M0,50L12,35L19.333333333333332,35Z" stroke-width="2" stroke-linejoin="round" transform="matrix(-1,0,0,1,2300,1250)"/>
    <path style="stroke-linejoin: round;" fill="#000000" stroke="#000000" d="M0,50L12,35L19,35Z" stroke-width="2" stroke-linejoin="round" transform="matrix(1,0,0,-1,2475,1500)"/>
    <path style="stroke-linecap: round; stroke-miterlimit: 6;" fill="#ffffff" stroke="#000000" d="M25,18.75L43.750003,50L25,81.25002L6.249997,50L25,18.75" stroke-width="2" stroke-linecap="round" stroke-miterlimit="6" transform="translate(2450,1300)"/>
    <path style="stroke-linecap: round; stroke-miterlimit: 6;" fill="none" stroke="#000000" d="M25,0L25,18.75" stroke-width="2" stroke-linecap="round" stroke-miterlimit="6" transform="translate(2450,1300)"/>
    <path style="stroke-linecap: round; stroke-miterlimit: 6;" fill="none" stroke="#000000" d="M25,100L25,81.25002" stroke-width="2" stroke-linecap="round" stroke-miterlimit="6" transform="translate(2450,1300)"/>
    <path fill="#000000" stroke="none" d="M20,48.12502C23.125,54.37502,23.125,56.25002,25,65.62502C26.875001,56.25002,26.875001,54.37502,30.000001,48.12502C26.250001,49.37502,23.75,49.37502,20,48.12502" transform="translate(2450,1300)"/>
    <path style="stroke-linecap: round; stroke-miterlimit: 6;" fill="none" stroke="#000000" d="M25,56.25002L25,34.375" stroke-width="2" stroke-linecap="round" stroke-miterlimit="6" transform="translate(2450,1300)"/>
    <text style="font-family: Arial; font-size: 16px; font-weight: bold; text-anchor: start;" x="0" y="0" text-anchor="start" stroke="none" fill="#000000" transform="translate(2500,1350)">
      <tspan dy="7.2">$\begin{cases} \alpha \, i_E \\  \beta \, i_B \\  I_S \exp \left( v_{BE} / V_T \right)  \end{cases}$</tspan>
    </text>
    <path style="stroke-linecap: round;" fill="none" stroke="#000000" d="M 2375 1400 L 2475 1400" stroke-width="2" stroke-linecap="round" class="cl_wire"/>
    <rect x="7" y="7" width="21" height="28" r="5" rx="5" ry="5" fill="#ffffff" stroke="#000000" stroke-width="2" transform="matrix(1,0,0,-1,2475,1500)"/>
    <text style="font-family: Arial; font-size: 16px; font-weight: bold; text-anchor: start;" x="12" y="22" text-anchor="start" stroke="none" fill="#000000" transform="translate(2475,1453.6)">
      <tspan dy="7.2">E</tspan>
    </text>
    <path style="stroke-linecap: round;" fill="none" stroke="#000000" d="M 2475 1400 L 2475 1450" stroke-width="2" stroke-linecap="round" class="cl_wire"/>
    <path style="stroke-linecap: round;" fill="none" stroke="#000000" d="M 2300 1300 L 2375 1300" stroke-width="2" stroke-linecap="round" class="cl_wire"/>
    <rect x="7" y="7" width="22" height="28" r="5" rx="5" ry="5" fill="#ffffff" stroke="#000000" stroke-width="2" transform="matrix(-1,0,0,1,2300,1250)"/>
    <text style="font-family: Arial; font-size: 16px; font-weight: bold; text-anchor: end;" x="12" y="22" text-anchor="end" stroke="none" fill="#000000" transform="translate(2276,1250)">
      <tspan dy="7.2">B</tspan>
    </text>
    <rect x="7" y="7" width="22" height="28" r="5" rx="5" ry="5" fill="#ffffff" stroke="#000000" stroke-width="2" transform="translate(2475,1225)"/>
    <text style="font-family: Arial; font-size: 16px; font-weight: bold; text-anchor: start;" x="12" y="22" text-anchor="start" stroke="none" fill="#000000" transform="translate(2475,1225)">
      <tspan dy="7.2">C</tspan>
    </text>
    <path style="stroke-linecap: round; stroke-linejoin: round;" fill="#008000" stroke="#008000" d="M2300,1275L2350,1275L2334.338456320235,1269.2996642779055L2334.338456320235,1280.7003357220945L2350,1275" stroke-width="2" stroke-linecap="round" stroke-linejoin="round"/>
    <text style="font-family: Arial; font-size: 16px; font-weight: bold; text-anchor: start; font-style: normal;" x="0" y="0" text-anchor="start" stroke="none" fill="#008000" font-style="normal" transform="translate(2300,1259)">
      <tspan dy="7.2">$I_B=\begin{cases}  i_C / \beta \\  i_E / (\beta + 1)  \end{cases}$</tspan>
    </text>
    <path style="stroke-linecap: round;" fill="none" stroke="#000000" d="M 2475 1275 L 2475 1300" stroke-width="2" stroke-linecap="round" class="cl_wire"/>
    <path style="stroke-linecap: round; stroke-linejoin: round;" fill="#008000" stroke="#008000" d="M2500,1275L2500,1325L2505.7003357220947,1309.3384563202349L2494.2996642779053,1309.3384563202349L2500,1325" stroke-width="2" stroke-linecap="round" stroke-linejoin="round"/>
    <text style="font-family: Arial; font-size: 16px; font-weight: bold; text-anchor: start; font-style: normal;" x="0" y="0" text-anchor="start" stroke="none" fill="#008000" font-style="normal" transform="translate(2505,1279)">
      <tspan dy="7.2">$I_C$</tspan>
    </text>
    <path style="stroke-linecap: round; stroke-linejoin: round;" fill="#008000" stroke="#008000" d="M2500,1400L2500,1450L2505.7003357220947,1434.3384563202349L2494.2996642779053,1434.3384563202349L2500,1450" stroke-width="2" stroke-linecap="round" stroke-linejoin="round"/>
    <text style="font-family: Arial; font-size: 16px; font-weight: bold; text-anchor: start; font-style: normal;" x="0" y="0" text-anchor="start" stroke="none" fill="#008000" font-style="normal" transform="translate(2505,1414)">
      <tspan dy="7.2">$I_E$</tspan>
    </text>
    <path style="stroke-linecap: round; stroke-miterlimit: 6;" fill="#ffffff" stroke="#000000" d="M50,50C50,36.19374,38.806255,25,25,25C11.193755,25,0,36.19374,0,50C0,63.80632,11.193755,75,25,75C38.806255,75,50,63.80632,50,50" stroke-width="2" stroke-linecap="round" stroke-miterlimit="6" transform="translate(2350,1300)"/>
    <path style="stroke-linecap: round; stroke-miterlimit: 6;" fill="none" stroke="#000000" d="M25,0L25,25" stroke-width="2" stroke-linecap="round" stroke-miterlimit="6" transform="translate(2350,1300)"/>
    <path style="stroke-linecap: round; stroke-miterlimit: 6;" fill="none" stroke="#000000" d="M25,100.00002L25,75" stroke-width="2" stroke-linecap="round" stroke-miterlimit="6" transform="translate(2350,1300)"/>
    <path style="font-size: 15px; font-weight: normal;" fill="#000000" stroke="none" d="M25.84227,33.168L24.157737,33.168L24.157737,40.48806L16.898932,40.48806L16.898932,42.17259L24.157737,42.17259L24.157737,49.49262L25.84227,49.49262L25.84227,42.17259L33.101076,42.17259L33.101076,40.48806L25.84227,40.48806L25.84227,33.168" font-size="15px" font-weight="normal" transform="translate(2350,1300)"/>
    <path style="font-size: 15px; font-weight: normal;" fill="#000000" stroke="none" d="M17.006089,60.39372L17.006089,62.07822L33.055093,62.07822L33.055093,60.39372L17.006089,60.39372" font-size="15px" font-weight="normal" transform="translate(2350,1300)"/>
    <text style="font-family: Arial; font-size: 16px; font-weight: bold; text-anchor: start;" x="0" y="0" text-anchor="start" stroke="none" fill="#000000" transform="translate(2406.25,1350)">
      <tspan dy="7.2">$V_{BE}$</tspan>
    </text>
    <circle cx="2475" cy="1400" r="3" fill="#000000" stroke="#000000"/>
  </g>
</svg>
