<svg xmlns:xlink="http://www.w3.org/1999/xlink" xmlns="http://www.w3.org/2000/svg" width="452.0" height="402.0">
  <desc>Created by CircuitLab https://www.circuitlab.com/</desc><g transform="scale(0.641969) matrix(1.55770822178,0,0,1.55770822178,-3464.34308523,-1867.69215791)">
    <path style="stroke-linejoin: round;" fill="#000000" stroke="#000000" d="M0,50L12,36L25,36Z" stroke-width="2" stroke-linejoin="round" transform="translate(2600,1200)"/>
    <rect x="2225" y="1200" width="450" height="400" r="0" rx="0" ry="0" fill="none" stroke="none" style="stroke-opacity: 0;"/>
    <path style="stroke-linejoin: round;" fill="#000000" stroke="#000000" d="M0,50L12,36L19,36Z" stroke-width="2" stroke-linejoin="round" transform="matrix(1,0,0,-1,2475,1600)"/>
    <path style="stroke-linejoin: round;" fill="#000000" stroke="#000000" d="M0,50L12,36L19.333333333333332,36Z" stroke-width="2" stroke-linejoin="round" transform="translate(2625,1350)"/>
    <path style="stroke-linejoin: round;" fill="#000000" stroke="#000000" d="M0,50L12,36L19.333333333333332,36Z" stroke-width="2" stroke-linejoin="round" transform="matrix(-1,0,0,1,2275,1350)"/>
    <path fill="#000000" stroke="none" d="M10.93749,25L25,50L39.06251,25" transform="matrix(-1,0,0,1,2425,1425)"/>
    <path style="stroke-linecap: round; stroke-miterlimit: 6;" fill="none" stroke="#000000" d="M25,25L25,0" stroke-width="2" stroke-linecap="round" stroke-miterlimit="6" transform="matrix(-1,0,0,1,2425,1425)"/>
    <path style="stroke-linecap: round; stroke-miterlimit: 6;" fill="none" stroke="#000000" d="M25,50L25,75" stroke-width="2" stroke-linecap="round" stroke-miterlimit="6" transform="matrix(-1,0,0,1,2425,1425)"/>
    <path style="stroke-linecap: round; stroke-miterlimit: 6;" fill="none" stroke="#000000" d="M10.93749,50L39.06251,50" stroke-width="2" stroke-linecap="round" stroke-miterlimit="6" transform="matrix(-1,0,0,1,2425,1425)"/>
    <text style="font-family: 'Noto Sans',Tahoma,Verdana,Arial,sans-serif; font-size: 16px; font-weight: bold; text-anchor: start; font-stretch: extra-condensed;" x="0" y="0" text-anchor="start" stroke="none" fill="#000000" transform="translate(2418.75,1462.5)">
      <tspan dy="7.2">Dbe</tspan>
    </text>
    <path fill="#000000" stroke="none" d="M10.93749,25L25,50L39.06251,25" transform="matrix(0,-1,1,0,2425,1425)"/>
    <path style="stroke-linecap: round; stroke-miterlimit: 6;" fill="none" stroke="#000000" d="M25,25L25,0" stroke-width="2" stroke-linecap="round" stroke-miterlimit="6" transform="matrix(0,-1,1,0,2425,1425)"/>
    <path style="stroke-linecap: round; stroke-miterlimit: 6;" fill="none" stroke="#000000" d="M25,50L25,75" stroke-width="2" stroke-linecap="round" stroke-miterlimit="6" transform="matrix(0,-1,1,0,2425,1425)"/>
    <path style="stroke-linecap: round; stroke-miterlimit: 6;" fill="none" stroke="#000000" d="M10.93749,50L39.06251,50" stroke-width="2" stroke-linecap="round" stroke-miterlimit="6" transform="matrix(0,-1,1,0,2425,1425)"/>
    <text style="font-family: 'Noto Sans',Tahoma,Verdana,Arial,sans-serif; font-size: 16px; font-weight: bold; text-anchor: middle; font-stretch: extra-condensed;" x="0" y="0" text-anchor="middle" stroke="none" fill="#000000" transform="translate(2462.5,1428.35)">
      <tspan dy="7.2">Dbc</tspan>
    </text>
    <path style="stroke-linecap: round; stroke-miterlimit: 6;" fill="#ffffff" stroke="#000000" d="M25,18.75L43.750003,50L25,81.25002L6.249997,50L25,18.75" stroke-width="2" stroke-linecap="round" stroke-miterlimit="6" transform="translate(2500,1400)"/>
    <path style="stroke-linecap: round; stroke-miterlimit: 6;" fill="none" stroke="#000000" d="M25,0L25,18.75" stroke-width="2" stroke-linecap="round" stroke-miterlimit="6" transform="translate(2500,1400)"/>
    <path style="stroke-linecap: round; stroke-miterlimit: 6;" fill="none" stroke="#000000" d="M25,100L25,81.25002" stroke-width="2" stroke-linecap="round" stroke-miterlimit="6" transform="translate(2500,1400)"/>
    <path fill="#000000" stroke="none" d="M20,48.12502C23.125,54.37502,23.125,56.25002,25,65.62502C26.875001,56.25002,26.875001,54.37502,30.000001,48.12502C26.250001,49.37502,23.75,49.37502,20,48.12502" transform="translate(2500,1400)"/>
    <path style="stroke-linecap: round; stroke-miterlimit: 6;" fill="none" stroke="#000000" d="M25,56.25002L25,34.375" stroke-width="2" stroke-linecap="round" stroke-miterlimit="6" transform="translate(2500,1400)"/>
    <defs aria-hidden="true">
<path stroke-width="1" id="E1-MJMATHI-49" d="M43 1Q26 1 26 10Q26 12 29 24Q34 43 39 45Q42 46 54 46H60Q120 46 136 53Q137 53 138 54Q143 56 149 77T198 273Q210 318 216 344Q286 624 286 626Q284 630 284 631Q274 637 213 637H193Q184 643 189 662Q193 677 195 680T209 683H213Q285 681 359 681Q481 681 487 683H497Q504 676 504 672T501 655T494 639Q491 637 471 637Q440 637 407 634Q393 631 388 623Q381 609 337 432Q326 385 315 341Q245 65 245 59Q245 52 255 50T307 46H339Q345 38 345 37T342 19Q338 6 332 0H316Q279 2 179 2Q143 2 113 2T65 2T43 1Z"/>
<path stroke-width="1" id="E1-MJMATHI-53" d="M308 24Q367 24 416 76T466 197Q466 260 414 284Q308 311 278 321T236 341Q176 383 176 462Q176 523 208 573T273 648Q302 673 343 688T407 704H418H425Q521 704 564 640Q565 640 577 653T603 682T623 704Q624 704 627 704T632 705Q645 705 645 698T617 577T585 459T569 456Q549 456 549 465Q549 471 550 475Q550 478 551 494T553 520Q553 554 544 579T526 616T501 641Q465 662 419 662Q362 662 313 616T263 510Q263 480 278 458T319 427Q323 425 389 408T456 390Q490 379 522 342T554 242Q554 216 546 186Q541 164 528 137T492 78T426 18T332 -20Q320 -22 298 -22Q199 -22 144 33L134 44L106 13Q83 -14 78 -18T65 -22Q52 -22 52 -14Q52 -11 110 221Q112 227 130 227H143Q149 221 149 216Q149 214 148 207T144 186T142 153Q144 114 160 87T203 47T255 29T308 24Z"/>
<path stroke-width="1" id="E1-MJMAIN-65" d="M28 218Q28 273 48 318T98 391T163 433T229 448Q282 448 320 430T378 380T406 316T415 245Q415 238 408 231H126V216Q126 68 226 36Q246 30 270 30Q312 30 342 62Q359 79 369 104L379 128Q382 131 395 131H398Q415 131 415 121Q415 117 412 108Q393 53 349 21T250 -11Q155 -11 92 58T28 218ZM333 275Q322 403 238 411H236Q228 411 220 410T195 402T166 381T143 340T127 274V267H333V275Z"/>
<path stroke-width="1" id="E1-MJMAIN-78" d="M201 0Q189 3 102 3Q26 3 17 0H11V46H25Q48 47 67 52T96 61T121 78T139 96T160 122T180 150L226 210L168 288Q159 301 149 315T133 336T122 351T113 363T107 370T100 376T94 379T88 381T80 383Q74 383 44 385H16V431H23Q59 429 126 429Q219 429 229 431H237V385Q201 381 201 369Q201 367 211 353T239 315T268 274L272 270L297 304Q329 345 329 358Q329 364 327 369T322 376T317 380T310 384L307 385H302V431H309Q324 428 408 428Q487 428 493 431H499V385H492Q443 385 411 368Q394 360 377 341T312 257L296 236L358 151Q424 61 429 57T446 50Q464 46 499 46H516V0H510H502Q494 1 482 1T457 2T432 2T414 3Q403 3 377 3T327 1L304 0H295V46H298Q309 46 320 51T331 63Q331 65 291 120L250 175Q249 174 219 133T185 88Q181 83 181 74Q181 63 188 55T206 46Q208 46 208 23V0H201Z"/>
<path stroke-width="1" id="E1-MJMAIN-70" d="M36 -148H50Q89 -148 97 -134V-126Q97 -119 97 -107T97 -77T98 -38T98 6T98 55T98 106Q98 140 98 177T98 243T98 296T97 335T97 351Q94 370 83 376T38 385H20V408Q20 431 22 431L32 432Q42 433 61 434T98 436Q115 437 135 438T165 441T176 442H179V416L180 390L188 397Q247 441 326 441Q407 441 464 377T522 216Q522 115 457 52T310 -11Q242 -11 190 33L182 40V-45V-101Q182 -128 184 -134T195 -145Q216 -148 244 -148H260V-194H252L228 -193Q205 -192 178 -192T140 -191Q37 -191 28 -194H20V-148H36ZM424 218Q424 292 390 347T305 402Q234 402 182 337V98Q222 26 294 26Q345 26 384 80T424 218Z"/>
<path stroke-width="1" id="E1-MJMAIN-28" d="M94 250Q94 319 104 381T127 488T164 576T202 643T244 695T277 729T302 750H315H319Q333 750 333 741Q333 738 316 720T275 667T226 581T184 443T167 250T184 58T225 -81T274 -167T316 -220T333 -241Q333 -250 318 -250H315H302L274 -226Q180 -141 137 -14T94 250Z"/>
<path stroke-width="1" id="E1-MJMATHI-76" d="M173 380Q173 405 154 405Q130 405 104 376T61 287Q60 286 59 284T58 281T56 279T53 278T49 278T41 278H27Q21 284 21 287Q21 294 29 316T53 368T97 419T160 441Q202 441 225 417T249 361Q249 344 246 335Q246 329 231 291T200 202T182 113Q182 86 187 69Q200 26 250 26Q287 26 319 60T369 139T398 222T409 277Q409 300 401 317T383 343T365 361T357 383Q357 405 376 424T417 443Q436 443 451 425T467 367Q467 340 455 284T418 159T347 40T241 -11Q177 -11 139 22Q102 54 102 117Q102 148 110 181T151 298Q173 362 173 380Z"/>
<path stroke-width="1" id="E1-MJMATHI-42" d="M231 637Q204 637 199 638T194 649Q194 676 205 682Q206 683 335 683Q594 683 608 681Q671 671 713 636T756 544Q756 480 698 429T565 360L555 357Q619 348 660 311T702 219Q702 146 630 78T453 1Q446 0 242 0Q42 0 39 2Q35 5 35 10Q35 17 37 24Q42 43 47 45Q51 46 62 46H68Q95 46 128 49Q142 52 147 61Q150 65 219 339T288 628Q288 635 231 637ZM649 544Q649 574 634 600T585 634Q578 636 493 637Q473 637 451 637T416 636H403Q388 635 384 626Q382 622 352 506Q352 503 351 500L320 374H401Q482 374 494 376Q554 386 601 434T649 544ZM595 229Q595 273 572 302T512 336Q506 337 429 337Q311 337 310 336Q310 334 293 263T258 122L240 52Q240 48 252 48T333 46Q422 46 429 47Q491 54 543 105T595 229Z"/>
<path stroke-width="1" id="E1-MJMATHI-45" d="M492 213Q472 213 472 226Q472 230 477 250T482 285Q482 316 461 323T364 330H312Q311 328 277 192T243 52Q243 48 254 48T334 46Q428 46 458 48T518 61Q567 77 599 117T670 248Q680 270 683 272Q690 274 698 274Q718 274 718 261Q613 7 608 2Q605 0 322 0H133Q31 0 31 11Q31 13 34 25Q38 41 42 43T65 46Q92 46 125 49Q139 52 144 61Q146 66 215 342T285 622Q285 629 281 629Q273 632 228 634H197Q191 640 191 642T193 659Q197 676 203 680H757Q764 676 764 669Q764 664 751 557T737 447Q735 440 717 440H705Q698 445 698 453L701 476Q704 500 704 528Q704 558 697 578T678 609T643 625T596 632T532 634H485Q397 633 392 631Q388 629 386 622Q385 619 355 499T324 377Q347 376 372 376H398Q464 376 489 391T534 472Q538 488 540 490T557 493Q562 493 565 493T570 492T572 491T574 487T577 483L544 351Q511 218 508 216Q505 213 492 213Z"/>
<path stroke-width="1" id="E1-MJMATHI-56" d="M52 648Q52 670 65 683H76Q118 680 181 680Q299 680 320 683H330Q336 677 336 674T334 656Q329 641 325 637H304Q282 635 274 635Q245 630 242 620Q242 618 271 369T301 118L374 235Q447 352 520 471T595 594Q599 601 599 609Q599 633 555 637Q537 637 537 648Q537 649 539 661Q542 675 545 679T558 683Q560 683 570 683T604 682T668 681Q737 681 755 683H762Q769 676 769 672Q769 655 760 640Q757 637 743 637Q730 636 719 635T698 630T682 623T670 615T660 608T652 599T645 592L452 282Q272 -9 266 -16Q263 -18 259 -21L241 -22H234Q216 -22 216 -15Q213 -9 177 305Q139 623 138 626Q133 637 76 637H59Q52 642 52 648Z"/>
<path stroke-width="1" id="E1-MJMATHI-54" d="M40 437Q21 437 21 445Q21 450 37 501T71 602L88 651Q93 669 101 677H569H659Q691 677 697 676T704 667Q704 661 687 553T668 444Q668 437 649 437Q640 437 637 437T631 442L629 445Q629 451 635 490T641 551Q641 586 628 604T573 629Q568 630 515 631Q469 631 457 630T439 622Q438 621 368 343T298 60Q298 48 386 46Q418 46 427 45T436 36Q436 31 433 22Q429 4 424 1L422 0Q419 0 415 0Q410 0 363 1T228 2Q99 2 64 0H49Q43 6 43 9T45 27Q49 40 55 46H83H94Q174 46 189 55Q190 56 191 56Q196 59 201 76T241 233Q258 301 269 344Q339 619 339 625Q339 630 310 630H279Q212 630 191 624Q146 614 121 583T67 467Q60 445 57 441T43 437H40Z"/>
<path stroke-width="1" id="E1-MJMAIN-29" d="M60 749L64 750Q69 750 74 750H86L114 726Q208 641 251 514T294 250Q294 182 284 119T261 12T224 -76T186 -143T145 -194T113 -227T90 -246Q87 -249 86 -250H74Q66 -250 63 -250T58 -247T55 -238Q56 -237 66 -225Q221 -64 221 250T66 725Q56 737 55 738Q55 746 60 749Z"/>
<path stroke-width="1" id="E1-MJSZ3-28" d="M701 -940Q701 -943 695 -949H664Q662 -947 636 -922T591 -879T537 -818T475 -737T412 -636T350 -511T295 -362T250 -186T221 17T209 251Q209 962 573 1361Q596 1386 616 1405T649 1437T664 1450H695Q701 1444 701 1441Q701 1436 681 1415T629 1356T557 1261T476 1118T400 927T340 675T308 359Q306 321 306 250Q306 -139 400 -430T690 -924Q701 -936 701 -940Z"/>
<path stroke-width="1" id="E1-MJSZ3-29" d="M34 1438Q34 1446 37 1448T50 1450H56H71Q73 1448 99 1423T144 1380T198 1319T260 1238T323 1137T385 1013T440 864T485 688T514 485T526 251Q526 134 519 53Q472 -519 162 -860Q139 -885 119 -904T86 -936T71 -949H56Q43 -949 39 -947T34 -937Q88 -883 140 -813Q428 -430 428 251Q428 453 402 628T338 922T245 1146T145 1309T46 1425Q44 1427 42 1429T39 1433T36 1436L34 1438Z"/>
</defs>
<g stroke="currentColor" fill="#000000" stroke-width="0" transform="translate(2550,1450) scale(0.020000) matrix(1 0 0 -1 0 0)" aria-hidden="true">
 <use xlink:href="#E1-MJMATHI-49" x="0" y="0"/>
 <use transform="scale(0.707)" xlink:href="#E1-MJMATHI-53" x="622" y="-219"/>
<g transform="translate(1163,0)">
 <use xlink:href="#E1-MJMAIN-65"/>
 <use xlink:href="#E1-MJMAIN-78" x="444" y="0"/>
 <use xlink:href="#E1-MJMAIN-70" x="973" y="0"/>
</g>
<g transform="translate(2693,0)">
 <use xlink:href="#E1-MJSZ3-28"/>
<g transform="translate(736,0)">
<g transform="translate(120,0)">
<rect stroke="none" width="1783" height="60" x="0" y="220"/>
<g transform="translate(60,676)">
 <use xlink:href="#E1-MJMATHI-76" x="0" y="0"/>
<g transform="translate(485,-150)">
 <use transform="scale(0.707)" xlink:href="#E1-MJMATHI-42" x="0" y="0"/>
 <use transform="scale(0.707)" xlink:href="#E1-MJMATHI-45" x="759" y="0"/>
</g>
</g>
<g transform="translate(300,-704)">
 <use xlink:href="#E1-MJMATHI-56" x="0" y="0"/>
 <use transform="scale(0.707)" xlink:href="#E1-MJMATHI-54" x="825" y="-213"/>
</g>
</g>
</g>
 <use xlink:href="#E1-MJSZ3-29" x="2759" y="-1"/>
</g>
</g>
<path style="stroke-linecap: round;" fill="none" stroke="#000000" d="M 2275 1400 L 2425 1400" stroke-width="2" stroke-linecap="round" class="cl_wire"/>
    <path style="stroke-linecap: round;" fill="none" stroke="#000000" d="M 2400 1400 L 2400 1425" stroke-width="2" stroke-linecap="round" class="cl_wire"/>
    <path style="stroke-linecap: round;" fill="none" stroke="#000000" d="M 2500 1400 L 2625 1400" stroke-width="2" stroke-linecap="round" class="cl_wire"/>
    <path style="stroke-linecap: round;" fill="none" stroke="#000000" d="M 2400 1500 L 2525 1500" stroke-width="2" stroke-linecap="round" class="cl_wire"/>
    <path style="stroke-linecap: round;" fill="none" stroke="#000000" d="M 2475 1500 L 2475 1550" stroke-width="2" stroke-linecap="round" class="cl_wire"/>
    <rect x="7" y="7" width="22" height="29" r="5" rx="5" ry="5" fill="#ffffff" stroke="#000000" stroke-width="2" transform="matrix(-1,0,0,1,2275,1350)"/>
    <text style="font-family: 'Noto Sans',Tahoma,Verdana,Arial,sans-serif; font-size: 16px; font-weight: bold; text-anchor: end; font-stretch: extra-condensed;" x="12" y="22" text-anchor="end" stroke="none" fill="#000000" transform="translate(2251,1350)">
      <tspan dy="7.2">B</tspan>
    </text>
    <rect x="7" y="7" width="22" height="29" r="5" rx="5" ry="5" fill="#ffffff" stroke="#000000" stroke-width="2" transform="translate(2625,1350)"/>
    <text style="font-family: 'Noto Sans',Tahoma,Verdana,Arial,sans-serif; font-size: 16px; font-weight: bold; text-anchor: start; font-stretch: extra-condensed;" x="12" y="22" text-anchor="start" stroke="none" fill="#000000" transform="translate(2625,1350)">
      <tspan dy="7.2">C</tspan>
    </text>
    <rect x="7" y="7" width="21" height="29" r="5" rx="5" ry="5" fill="#ffffff" stroke="#000000" stroke-width="2" transform="matrix(1,0,0,-1,2475,1600)"/>
    <text style="font-family: 'Noto Sans',Tahoma,Verdana,Arial,sans-serif; font-size: 16px; font-weight: bold; text-anchor: start; font-stretch: extra-condensed;" x="12" y="22" text-anchor="start" stroke="none" fill="#000000" transform="translate(2475,1553.6)">
      <tspan dy="7.2">E</tspan>
    </text>
    <path style="stroke-linecap: round; stroke-miterlimit: 6;" fill="none" stroke="#000000" d="M25,21.87499L25,0" stroke-width="2" stroke-linecap="round" stroke-miterlimit="6" transform="translate(2575,1250)"/>
    <path style="stroke-linecap: round; stroke-miterlimit: 6;" fill="none" stroke="#000000" d="M25,78.12502L25,100" stroke-width="2" stroke-linecap="round" stroke-miterlimit="6" transform="translate(2575,1250)"/>
    <path style="stroke-linecap: round; stroke-miterlimit: 6;" fill="none" stroke="#000000" d="M25,21.87499L14.062504,26.56249L35.937495,35.93748L14.062504,45.31248L35.937495,54.68752L14.062504,64.06252L35.937495,73.43752L25,78.12502" stroke-width="2" stroke-linecap="round" stroke-miterlimit="6" transform="translate(2575,1250)"/>
    <text style="font-family: 'Noto Sans',Tahoma,Verdana,Arial,sans-serif; font-size: 16px; font-weight: bold; text-anchor: start; font-stretch: extra-condensed;" x="0" y="0" text-anchor="start" stroke="none" fill="#000000" transform="translate(2618.75,1300)">
      <tspan dy="7.2">Rc</tspan>
    </text>
    <rect x="7" y="7" width="39" height="29" r="5" rx="5" ry="5" fill="#ffffff" stroke="#000000" stroke-width="2" transform="translate(2600,1200)"/>
    <text style="font-family: 'Noto Sans',Tahoma,Verdana,Arial,sans-serif; font-size: 16px; font-weight: bold; text-anchor: start; font-stretch: extra-condensed;" x="12" y="22" text-anchor="start" stroke="none" fill="#000000" transform="translate(2600,1200)">
      <tspan dy="7.2">Vcc</tspan>
    </text>
    <path style="stroke-linecap: round;" fill="none" stroke="#000000" d="M 2600 1350 L 2600 1400" stroke-width="2" stroke-linecap="round" class="cl_wire"/>
    <path style="stroke-linecap: round; stroke-linejoin: round;" fill="#008000" stroke="#008000" d="M2575,1275L2575,1325L2580.7003357220947,1309.3384563202349L2569.2996642779053,1309.3384563202349L2575,1325" stroke-width="2" stroke-linecap="round" stroke-linejoin="round"/>
    <text style="font-family: 'Noto Sans',Tahoma,Verdana,Arial,sans-serif; font-size: 16px; font-weight: bold; text-anchor: start; font-style: normal; font-stretch: extra-condensed;" x="0" y="0" text-anchor="start" stroke="none" fill="#008000" font-style="normal" transform="translate(2550,1309)">
      <tspan dy="-2.3999999999999995">Ic</tspan>
      <tspan dy="19.2" x="0"/>
    </text>
    <path style="stroke-linecap: round; stroke-linejoin: round;" fill="#008000" stroke="#008000" d="M2425,1375L2475,1375L2459.338456320235,1369.2996642779055L2459.338456320235,1380.7003357220945L2475,1375" stroke-width="2" stroke-linecap="round" stroke-linejoin="round"/>
    <path style="stroke-linecap: round; stroke-linejoin: round;" fill="#008000" stroke="#008000" d="M2375,1425L2375,1475L2380.7003357220947,1459.3384563202349L2369.2996642779053,1459.3384563202349L2375,1475" stroke-width="2" stroke-linecap="round" stroke-linejoin="round"/>
    <text style="font-family: 'Noto Sans',Tahoma,Verdana,Arial,sans-serif; font-size: 16px; font-weight: bold; text-anchor: start; font-style: normal; font-stretch: extra-condensed;" x="0" y="0" text-anchor="start" stroke="none" fill="#008000" font-style="normal" transform="translate(2450,1359)">
      <tspan dy="-2.3999999999999995">Iy</tspan>
      <tspan dy="19.2" x="0"/>
    </text>
    <text style="font-family: 'Noto Sans',Tahoma,Verdana,Arial,sans-serif; font-size: 16px; font-weight: bold; text-anchor: start; font-style: normal; font-stretch: extra-condensed;" x="0" y="0" text-anchor="start" stroke="none" fill="#008000" font-style="normal" transform="translate(2350,1459)">
      <tspan dy="-2.3999999999999995">Ix</tspan>
      <tspan dy="19.2" x="0"/>
    </text>
    <path style="stroke-linecap: round; stroke-linejoin: round;" fill="#008000" stroke="#008000" d="M2300,1375L2350,1375L2334.338456320235,1369.2996642779055L2334.338456320235,1380.7003357220945L2350,1375" stroke-width="2" stroke-linecap="round" stroke-linejoin="round"/>
    <text style="font-family: 'Noto Sans',Tahoma,Verdana,Arial,sans-serif; font-size: 16px; font-weight: bold; text-anchor: start; font-style: normal; font-stretch: extra-condensed;" x="0" y="0" text-anchor="start" stroke="none" fill="#008000" font-style="normal" transform="translate(2325,1359)">
      <tspan dy="-2.3999999999999995">Ib</tspan>
      <tspan dy="19.2" x="0"/>
    </text>
    <text style="font-family: 'Noto Sans',Tahoma,Verdana,Arial,sans-serif; font-size: 16px; font-weight: bold; text-anchor: start; font-style: normal; font-stretch: extra-condensed;" x="0" y="0" text-anchor="start" stroke="none" fill="#008000" font-style="normal" transform="translate(2550,1434)">
      <tspan dy="-2.3999999999999995">Iz</tspan>
      <tspan dy="19.2" x="0"/>
    </text>
    <circle cx="2525" cy="1400" r="3" fill="#000000" stroke="#000000"/>
    <circle cx="2400" cy="1400" r="3" fill="#000000" stroke="#000000"/>
    <circle cx="2475" cy="1500" r="3" fill="#000000" stroke="#000000"/>
    <circle cx="2600" cy="1400" r="3" fill="#000000" stroke="#000000"/>
  </g>
</svg>
