<svg xmlns:xlink="http://www.w3.org/1999/xlink" xmlns="http://www.w3.org/2000/svg" width="1000.0" height="740.034662045">
  <desc>Created by CircuitLab https://www.circuitlab.com/</desc><g transform="matrix(1.73310225303,0,0,1.73310225303,-3984.40207972,-2121.31715771)">
    <rect x="2300" y="1225" width="575" height="425" r="0" rx="0" ry="0" fill="none" stroke="none" style="stroke-opacity: 0;"/>
    <rect x="2300" y="1225" width="575" height="425" r="0" rx="0" ry="0" fill="none" stroke="#00ff00" stroke-dasharray="16,6" stroke-width="2"/>
    <path style="stroke-linejoin: round;" fill="#000000" stroke="#000000" d="M0,50L12,36L19,36Z" stroke-width="2" stroke-linejoin="round" transform="matrix(-1,0,0,-1,2575,1525)"/>
    <path style="stroke-linejoin: round;" fill="#000000" stroke="#000000" d="M0,50L12,36L19.333333333333332,36Z" stroke-width="2" stroke-linejoin="round" transform="translate(2675,1300)"/>
    <path style="stroke-linecap: round; stroke-miterlimit: 6;" fill="none" stroke="#000000" d="M0,50L12.5,50" stroke-width="2" stroke-linecap="round" stroke-miterlimit="6" transform="translate(2550,1375)"/>
    <path style="stroke-linecap: round; stroke-miterlimit: 6;" fill="none" stroke="#000000" d="M12.5,87.5L12.5,12.5" stroke-width="2" stroke-linecap="round" stroke-miterlimit="6" transform="translate(2550,1375)"/>
    <path style="stroke-linecap: round; stroke-miterlimit: 6;" fill="none" stroke="#000000" d="M12.5,32.81249L50,12.5" stroke-width="2" stroke-linecap="round" stroke-miterlimit="6" transform="translate(2550,1375)"/>
    <path style="stroke-linecap: round; stroke-miterlimit: 6;" fill="none" stroke="#000000" d="M50,0L50,12.5" stroke-width="2" stroke-linecap="round" stroke-miterlimit="6" transform="translate(2550,1375)"/>
    <path style="stroke-linecap: round; stroke-miterlimit: 6;" fill="none" stroke="#000000" d="M12.5,67.18752L50,87.5" stroke-width="2" stroke-linecap="round" stroke-miterlimit="6" transform="translate(2550,1375)"/>
    <path style="stroke-linecap: round; stroke-miterlimit: 6;" fill="none" stroke="#000000" d="M50,100L50,87.5" stroke-width="2" stroke-linecap="round" stroke-miterlimit="6" transform="translate(2550,1375)"/>
    <path fill="#000000" stroke="none" d="M27.931232,81.97502C36.649984,82.49792,38.679151,83.67082,50,87.5C41.0229,79.61042,38.993733,78.43962,34.181237,71.15002C33.189565,75.98962,31.627079,78.69792,27.931232,81.97502" transform="translate(2550,1375)"/>
    <text style="font-family: Arial; font-size: 16px; font-weight: bold; text-anchor: start;" x="0" y="0" text-anchor="start" stroke="none" fill="#000000" transform="translate(2600,1425)">
      <tspan dy="-2.3999999999999995">Q1</tspan>
      <tspan dy="19.2" x="0">2N3904</tspan>
    </text>
    <path style="stroke-linecap: round; stroke-miterlimit: 6;" fill="none" stroke="#000000" d="M25,21.87499L25,0" stroke-width="2" stroke-linecap="round" stroke-miterlimit="6" transform="translate(2575,1250)"/>
    <path style="stroke-linecap: round; stroke-miterlimit: 6;" fill="none" stroke="#000000" d="M25,78.12502L25,100" stroke-width="2" stroke-linecap="round" stroke-miterlimit="6" transform="translate(2575,1250)"/>
    <path style="stroke-linecap: round; stroke-miterlimit: 6;" fill="none" stroke="#000000" d="M25,21.87499L14.062504,26.56249L35.937495,35.93748L14.062504,45.31248L35.937495,54.68752L14.062504,64.06252L35.937495,73.43752L25,78.12502" stroke-width="2" stroke-linecap="round" stroke-miterlimit="6" transform="translate(2575,1250)"/>
    <text style="font-family: Arial; font-size: 16px; font-weight: bold; text-anchor: start;" x="0" y="0" text-anchor="start" stroke="none" fill="#000000" transform="translate(2618.75,1300)">
      <tspan dy="7.2">R3</tspan>
    </text>
    <path style="stroke-linecap: round; stroke-miterlimit: 6;" fill="none" stroke="#000000" d="M25,21.87499L25,0" stroke-width="2" stroke-linecap="round" stroke-miterlimit="6" transform="translate(2575,1500)"/>
    <path style="stroke-linecap: round; stroke-miterlimit: 6;" fill="none" stroke="#000000" d="M25,78.12502L25,100" stroke-width="2" stroke-linecap="round" stroke-miterlimit="6" transform="translate(2575,1500)"/>
    <path style="stroke-linecap: round; stroke-miterlimit: 6;" fill="none" stroke="#000000" d="M25,21.87499L14.062504,26.56249L35.937495,35.93748L14.062504,45.31248L35.937495,54.68752L14.062504,64.06252L35.937495,73.43752L25,78.12502" stroke-width="2" stroke-linecap="round" stroke-miterlimit="6" transform="translate(2575,1500)"/>
    <text style="font-family: Arial; font-size: 16px; font-weight: bold; text-anchor: start;" x="0" y="0" text-anchor="start" stroke="none" fill="#000000" transform="translate(2618.75,1550)">
      <tspan dy="7.2">R4</tspan>
    </text>
    <path style="stroke-linecap: round;" fill="none" stroke="#000000" d="M 2600 1350 L 2600 1375" stroke-width="2" stroke-linecap="round" class="cl_wire"/>
    <path style="stroke-linecap: round; stroke-miterlimit: 6;" fill="#ffffff" stroke="#000000" d="M50,50C50,36.19374,38.806255,25,25,25C11.193755,25,0,36.19374,0,50C0,63.80632,11.193755,75,25,75C38.806255,75,50,63.80632,50,50" stroke-width="2" stroke-linecap="round" stroke-miterlimit="6" transform="translate(2775,1375)"/>
    <path style="stroke-linecap: round; stroke-miterlimit: 6;" fill="none" stroke="#000000" d="M25,0L25,25" stroke-width="2" stroke-linecap="round" stroke-miterlimit="6" transform="translate(2775,1375)"/>
    <path style="stroke-linecap: round; stroke-miterlimit: 6;" fill="none" stroke="#000000" d="M25,100.00002L25,75" stroke-width="2" stroke-linecap="round" stroke-miterlimit="6" transform="translate(2775,1375)"/>
    <path style="font-size: 15px; font-weight: normal;" fill="#000000" stroke="none" d="M25.84227,33.168L24.157737,33.168L24.157737,40.48806L16.898932,40.48806L16.898932,42.17259L24.157737,42.17259L24.157737,49.49262L25.84227,49.49262L25.84227,42.17259L33.101076,42.17259L33.101076,40.48806L25.84227,40.48806L25.84227,33.168" font-size="15px" font-weight="normal" transform="translate(2775,1375)"/>
    <path style="font-size: 15px; font-weight: normal;" fill="#000000" stroke="none" d="M17.006089,60.39372L17.006089,62.07822L33.055093,62.07822L33.055093,60.39372L17.006089,60.39372" font-size="15px" font-weight="normal" transform="translate(2775,1375)"/>
    <text style="font-family: Arial; font-size: 16px; font-weight: bold; text-anchor: start;" x="0" y="0" text-anchor="start" stroke="none" fill="#000000" transform="translate(2831.25,1425)">
      <tspan dy="-2.3999999999999995">Vcc</tspan>
      <tspan dy="19.2" x="0">10 V</tspan>
    </text>
    <rect x="7" y="7" width="22" height="29" r="5" rx="5" ry="5" fill="#ffffff" stroke="#000000" stroke-width="2" transform="translate(2675,1300)"/>
    <text style="font-family: Arial; font-size: 16px; font-weight: bold; text-anchor: start;" x="12" y="22" text-anchor="start" stroke="none" fill="#000000" transform="translate(2675,1300)">
      <tspan dy="7.2">C</tspan>
    </text>
    <path style="stroke-linecap: round;" fill="none" stroke="#000000" d="M 2600 1350 L 2675 1350" stroke-width="2" stroke-linecap="round" class="cl_wire"/>
    <rect x="7" y="7" width="21" height="29" r="5" rx="5" ry="5" fill="#ffffff" stroke="#000000" stroke-width="2" transform="matrix(-1,0,0,-1,2575,1525)"/>
    <text style="font-family: Arial; font-size: 16px; font-weight: bold; text-anchor: end;" x="12" y="22" text-anchor="end" stroke="none" fill="#000000" transform="translate(2551,1478.6)">
      <tspan dy="7.2">E</tspan>
    </text>
    <path style="stroke-linecap: round;" fill="none" stroke="#000000" d="M 2600 1475 L 2600 1500" stroke-width="2" stroke-linecap="round" class="cl_wire"/>
    <path style="stroke-linecap: round;" fill="none" stroke="#000000" d="M 2800 1250 L 2800 1375" stroke-width="2" stroke-linecap="round" class="cl_wire"/>
    <path style="stroke-linecap: round;" fill="none" stroke="#000000" d="M 2475 1425 L 2550 1425" stroke-width="2" stroke-linecap="round" class="cl_wire"/>
    <text style="font-family: Arial; font-size: 16px; font-weight: bold; text-anchor: middle;" x="0" y="0" text-anchor="middle" stroke="none" fill="#000000" transform="translate(2425,1490.85)">
      <tspan dy="7.2">C1</tspan>
    </text>
    <path style="stroke-linecap: round; stroke-miterlimit: 6;" fill="none" stroke="#000000" d="M25,54.68752L25,100" stroke-width="2" stroke-linecap="round" stroke-miterlimit="6" transform="matrix(0,1,-1,0,2475,1425)"/>
    <path style="stroke-linecap: round; stroke-miterlimit: 6;" fill="none" stroke="#000000" d="M25,45.31248L25,0" stroke-width="2" stroke-linecap="round" stroke-miterlimit="6" transform="matrix(0,1,-1,0,2475,1425)"/>
    <path style="stroke-linecap: round; stroke-miterlimit: 6;" fill="none" stroke="#000000" d="M50,45.31248L0,45.31248" stroke-width="2" stroke-linecap="round" stroke-miterlimit="6" transform="matrix(0,1,-1,0,2475,1425)"/>
    <path style="stroke-linecap: round; stroke-miterlimit: 6;" fill="none" stroke="#000000" d="M48.514615,59.68552C41.112527,56.39162,33.102105,54.68752,25,54.68752C16.897927,54.68752,8.8875054,56.39162,1.4854176,59.68552" stroke-width="2" stroke-linecap="round" stroke-miterlimit="6" transform="matrix(0,1,-1,0,2475,1425)"/>
    <path fill="#000000" stroke="none" d="M12.239297,29.99626L10.99166,29.99626L10.99166,35.41781L5.6154788,35.41781L5.6154788,36.66545L10.99166,36.66545L10.99166,42.087L12.239297,42.087L12.239297,36.66545L17.615479,36.66545L17.615479,35.41781L12.239297,35.41781L12.239297,29.99626" transform="matrix(0,1,-1,0,2475,1425)"/>
    <path style="stroke-linecap: round; stroke-miterlimit: 6;" fill="#ffffff" stroke="#000000" d="M50,50C50,36.1937,38.806847,25,25,25C11.193111,25,0,36.1937,0,50C0,63.80622,11.193111,75,25,75C38.806847,75,50,63.80622,50,50" stroke-width="2" stroke-linecap="round" stroke-miterlimit="6" transform="matrix(-1,0,0,1,2400,1475)"/>
    <path style="stroke-linecap: round; stroke-miterlimit: 6;" fill="none" stroke="#000000" d="M25,0L25,25" stroke-width="2" stroke-linecap="round" stroke-miterlimit="6" transform="matrix(-1,0,0,1,2400,1475)"/>
    <path style="stroke-linecap: round; stroke-miterlimit: 6;" fill="none" stroke="#000000" d="M25,100L25,75" stroke-width="2" stroke-linecap="round" stroke-miterlimit="6" transform="matrix(-1,0,0,1,2400,1475)"/>
    <path style="stroke-linecap: round; stroke-miterlimit: 6;" fill="none" stroke="#000000" d="M37.5,50C25,87.5,25,12.5,12.5,50" stroke-width="2" stroke-linecap="round" stroke-miterlimit="6" transform="matrix(-1,0,0,1,2400,1475)"/>
    <path style="font-size: 15px; font-weight: normal;" fill="#000000" stroke="none" d="M25.623818,28.684383L24.376181,28.684383L24.376181,34.105933L19,34.105933L19,35.35357L24.376181,35.35357L24.376181,40.77512L25.623818,40.77512L25.623818,35.35357L31,35.35357L31,34.105933L25.623818,34.105933L25.623818,28.684383" font-size="15px" font-weight="normal" transform="matrix(-1,0,0,1,2400,1475)"/>
    <path style="font-size: 15px; font-weight: normal;" fill="#000000" stroke="none" d="M19.079395,65.81149L19.079395,67.059127L30.965974,67.059127L30.965974,65.81149L19.079395,65.81149" font-size="15px" font-weight="normal" transform="matrix(-1,0,0,1,2400,1475)"/>
    <text style="font-family: Arial; font-size: 16px; font-weight: bold; text-anchor: end;" x="0" y="0" text-anchor="end" stroke="none" fill="#000000" transform="translate(2343.75,1525)">
      <tspan dy="-11.999999999999996">Vin</tspan>
      <tspan dy="19.2" x="0">sine</tspan>
      <tspan dy="19.2" x="0">1 kHz</tspan>
    </text>
    <path style="stroke-linecap: round; stroke-miterlimit: 6;" fill="none" stroke="#000000" d="M25,20L25,0" stroke-width="2" stroke-linecap="round" stroke-miterlimit="6" transform="translate(2525,1600)"/>
    <path style="stroke-linecap: round; stroke-linejoin: round; stroke-miterlimit: 6;" fill="#ffffff" stroke="#000000" d="M5,20L25,40L45,20Z" stroke-width="2" stroke-linecap="round" stroke-linejoin="round" stroke-miterlimit="6" transform="translate(2525,1600)"/>
    <path style="stroke-linecap: round; stroke-miterlimit: 6;" fill="none" stroke="#000000" d="M25,21.87499L25,0" stroke-width="2" stroke-linecap="round" stroke-miterlimit="6" transform="translate(2450,1275)"/>
    <path style="stroke-linecap: round; stroke-miterlimit: 6;" fill="none" stroke="#000000" d="M25,78.12502L25,100" stroke-width="2" stroke-linecap="round" stroke-miterlimit="6" transform="translate(2450,1275)"/>
    <path style="stroke-linecap: round; stroke-miterlimit: 6;" fill="none" stroke="#000000" d="M25,21.87499L14.062504,26.56249L35.937495,35.93748L14.062504,45.31248L35.937495,54.68752L14.062504,64.06252L35.937495,73.43752L25,78.12502" stroke-width="2" stroke-linecap="round" stroke-miterlimit="6" transform="translate(2450,1275)"/>
    <text style="font-family: Arial; font-size: 16px; font-weight: bold; text-anchor: start;" x="0" y="0" text-anchor="start" stroke="none" fill="#000000" transform="translate(2493.75,1325)">
      <tspan dy="7.2">R1</tspan>
    </text>
    <path style="stroke-linecap: round; stroke-miterlimit: 6;" fill="none" stroke="#000000" d="M25,21.87499L25,0" stroke-width="2" stroke-linecap="round" stroke-miterlimit="6" transform="translate(2450,1475)"/>
    <path style="stroke-linecap: round; stroke-miterlimit: 6;" fill="none" stroke="#000000" d="M25,78.12502L25,100" stroke-width="2" stroke-linecap="round" stroke-miterlimit="6" transform="translate(2450,1475)"/>
    <path style="stroke-linecap: round; stroke-miterlimit: 6;" fill="none" stroke="#000000" d="M25,21.87499L14.062504,26.56249L35.937495,35.93748L14.062504,45.31248L35.937495,54.68752L14.062504,64.06252L35.937495,73.43752L25,78.12502" stroke-width="2" stroke-linecap="round" stroke-miterlimit="6" transform="translate(2450,1475)"/>
    <text style="font-family: Arial; font-size: 16px; font-weight: bold; text-anchor: start;" x="0" y="0" text-anchor="start" stroke="none" fill="#000000" transform="translate(2493.75,1525)">
      <tspan dy="7.2">R2</tspan>
    </text>
    <path style="stroke-linecap: round;" fill="none" stroke="#000000" d="M 2475 1375 L 2475 1475" stroke-width="2" stroke-linecap="round" class="cl_wire"/>
    <path style="stroke-linecap: round;" fill="none" stroke="#000000" d="M 2475 1575 L 2475 1600" stroke-width="2" stroke-linecap="round" class="cl_wire"/>
    <path style="stroke-linecap: round;" fill="none" stroke="#000000" d="M 2375 1450 L 2375 1475" stroke-width="2" stroke-linecap="round" class="cl_wire"/>
    <path style="stroke-linecap: round;" fill="none" stroke="#000000" d="M 2475 1250 L 2475 1275" stroke-width="2" stroke-linecap="round" class="cl_wire"/>
    <text style="font-family: Arial; font-size: 16px; font-weight: bold; text-anchor: middle;" x="0" y="0" text-anchor="middle" stroke="none" fill="#000000" transform="translate(2675,1540.85)">
      <tspan dy="7.2">C2</tspan>
    </text>
    <path style="stroke-linecap: round; stroke-miterlimit: 6;" fill="none" stroke="#000000" d="M25,54.68752L25,100" stroke-width="2" stroke-linecap="round" stroke-miterlimit="6" transform="matrix(0,1,1,0,2625,1475)"/>
    <path style="stroke-linecap: round; stroke-miterlimit: 6;" fill="none" stroke="#000000" d="M25,45.31248L25,0" stroke-width="2" stroke-linecap="round" stroke-miterlimit="6" transform="matrix(0,1,1,0,2625,1475)"/>
    <path style="stroke-linecap: round; stroke-miterlimit: 6;" fill="none" stroke="#000000" d="M50,45.31248L0,45.31248" stroke-width="2" stroke-linecap="round" stroke-miterlimit="6" transform="matrix(0,1,1,0,2625,1475)"/>
    <path style="stroke-linecap: round; stroke-miterlimit: 6;" fill="none" stroke="#000000" d="M48.514615,59.68552C41.112527,56.39162,33.102105,54.68752,25,54.68752C16.897927,54.68752,8.8875054,56.39162,1.4854176,59.68552" stroke-width="2" stroke-linecap="round" stroke-miterlimit="6" transform="matrix(0,1,1,0,2625,1475)"/>
    <path fill="#000000" stroke="none" d="M12.239297,29.99626L10.99166,29.99626L10.99166,35.41781L5.6154788,35.41781L5.6154788,36.66545L10.99166,36.66545L10.99166,42.087L12.239297,42.087L12.239297,36.66545L17.615479,36.66545L17.615479,35.41781L12.239297,35.41781L12.239297,29.99626" transform="matrix(0,1,1,0,2625,1475)"/>
    <path style="stroke-linecap: round; stroke-miterlimit: 6;" fill="none" stroke="#000000" d="M25,21.87499L25,0" stroke-width="2" stroke-linecap="round" stroke-miterlimit="6" transform="translate(2700,1500)"/>
    <path style="stroke-linecap: round; stroke-miterlimit: 6;" fill="none" stroke="#000000" d="M25,78.12502L25,100" stroke-width="2" stroke-linecap="round" stroke-miterlimit="6" transform="translate(2700,1500)"/>
    <path style="stroke-linecap: round; stroke-miterlimit: 6;" fill="none" stroke="#000000" d="M25,21.87499L14.062504,26.56249L35.937495,35.93748L14.062504,45.31248L35.937495,54.68752L14.062504,64.06252L35.937495,73.43752L25,78.12502" stroke-width="2" stroke-linecap="round" stroke-miterlimit="6" transform="translate(2700,1500)"/>
    <text style="font-family: Arial; font-size: 16px; font-weight: bold; text-anchor: start;" x="0" y="0" text-anchor="start" stroke="none" fill="#000000" transform="translate(2743.75,1550)">
      <tspan dy="7.2">R5</tspan>
    </text>
    <path style="stroke-linecap: round;" fill="none" stroke="#000000" d="M 2600 1500 L 2625 1500" stroke-width="2" stroke-linecap="round" class="cl_wire"/>
    <path style="stroke-linecap: round;" fill="none" stroke="#000000" d="M 2575 1475 L 2600 1475" stroke-width="2" stroke-linecap="round" class="cl_wire"/>
    <path style="stroke-linecap: round;" fill="none" stroke="#000000" d="M 2475 1250 L 2800 1250" stroke-width="2" stroke-linecap="round" class="cl_wire"/>
    <path style="stroke-linecap: round;" fill="none" stroke="#000000" d="M 2475 1600 L 2800 1600" stroke-width="2" stroke-linecap="round" class="cl_wire"/>
    <path style="stroke-linecap: round;" fill="none" stroke="#000000" d="M 2800 1475 L 2800 1600" stroke-width="2" stroke-linecap="round" class="cl_wire"/>
    <path style="stroke-linecap: round;" fill="none" stroke="#000000" d="M 2375 1575 L 2375 1600" stroke-width="2" stroke-linecap="round" class="cl_wire"/>
    <path style="stroke-linecap: round;" fill="none" stroke="#000000" d="M 2375 1600 L 2475 1600" stroke-width="2" stroke-linecap="round" class="cl_wire"/>
    <circle cx="2600" cy="1475" r="3" fill="#000000" stroke="#000000"/>
    <circle cx="2600" cy="1250" r="3" fill="#000000" stroke="#000000"/>
    <circle cx="2600" cy="1350" r="3" fill="#000000" stroke="#000000"/>
    <circle cx="2600" cy="1500" r="3" fill="#000000" stroke="#000000"/>
    <circle cx="2600" cy="1600" r="3" fill="#000000" stroke="#000000"/>
    <circle cx="2475" cy="1450" r="3" fill="#000000" stroke="#000000"/>
    <circle cx="2550" cy="1600" r="3" fill="#000000" stroke="#000000"/>
    <circle cx="2725" cy="1600" r="3" fill="#000000" stroke="#000000"/>
    <circle cx="2475" cy="1425" r="3" fill="#000000" stroke="#000000"/>
    <circle cx="2475" cy="1600" r="3" fill="#000000" stroke="#000000"/>
  </g>
</svg>
