<svg xmlns:xlink="http://www.w3.org/1999/xlink" xmlns="http://www.w3.org/2000/svg" width="1000.0" height="269.717624148">
  <desc>Created by CircuitLab https://www.circuitlab.com/</desc><g transform="matrix(0.973709834469,0,0,0.973709834469,-2116.84518014,-1289.19182084)">
    <rect x="2175" y="1325" width="1025" height="275" r="0" rx="0" ry="0" fill="none" stroke="none" style="stroke-opacity: 0;"/>
    <rect x="2175" y="1325" width="1025" height="275" r="0" rx="0" ry="0" fill="none" stroke="#00ff00" stroke-dasharray="16,6" stroke-width="2"/>
    <path style="stroke-linejoin: round;" fill="#000000" stroke="#000000" d="M0,50L12,36L18.333333333333332,36Z" stroke-width="2" stroke-linejoin="round" transform="translate(2925,1325)"/>
    <path style="stroke-linejoin: round;" fill="#000000" stroke="#000000" d="M0,50L12,36L18.333333333333332,36Z" stroke-width="2" stroke-linejoin="round" transform="translate(2875,1425)"/>
    <path style="stroke-linejoin: round;" fill="#000000" stroke="#000000" d="M0,50L12,36L18.333333333333332,36Z" stroke-width="2" stroke-linejoin="round" transform="matrix(-1,0,0,-1,2575,1525)"/>
    <path style="stroke-linejoin: round;" fill="#000000" stroke="#000000" d="M0,50L12,36L18.333333333333332,36Z" stroke-width="2" stroke-linejoin="round" transform="translate(2625,1325)"/>
    <path style="stroke-linejoin: round;" fill="#000000" stroke="#000000" d="M0,50L12,36L18.333333333333332,36Z" stroke-width="2" stroke-linejoin="round" transform="translate(2450,1375)"/>
    <path style="stroke-linejoin: round;" fill="#000000" stroke="#000000" d="M0,50L12,36L23.666666666666664,36Z" stroke-width="2" stroke-linejoin="round" transform="translate(3125,1325)"/>
    <path style="stroke-linecap: round; stroke-miterlimit: 6;" fill="none" stroke="#000000" d="M0,50L12.5,50" stroke-width="2" stroke-linecap="round" stroke-miterlimit="6" transform="translate(2525,1375)"/>
    <path style="stroke-linecap: round; stroke-miterlimit: 6;" fill="none" stroke="#000000" d="M12.5,87.5L12.5,12.5" stroke-width="2" stroke-linecap="round" stroke-miterlimit="6" transform="translate(2525,1375)"/>
    <path style="stroke-linecap: round; stroke-miterlimit: 6;" fill="none" stroke="#000000" d="M12.5,32.81249L50,12.5" stroke-width="2" stroke-linecap="round" stroke-miterlimit="6" transform="translate(2525,1375)"/>
    <path style="stroke-linecap: round; stroke-miterlimit: 6;" fill="none" stroke="#000000" d="M50,0L50,12.5" stroke-width="2" stroke-linecap="round" stroke-miterlimit="6" transform="translate(2525,1375)"/>
    <path style="stroke-linecap: round; stroke-miterlimit: 6;" fill="none" stroke="#000000" d="M12.5,67.18752L50,87.5" stroke-width="2" stroke-linecap="round" stroke-miterlimit="6" transform="translate(2525,1375)"/>
    <path style="stroke-linecap: round; stroke-miterlimit: 6;" fill="none" stroke="#000000" d="M50,100L50,87.5" stroke-width="2" stroke-linecap="round" stroke-miterlimit="6" transform="translate(2525,1375)"/>
    <path fill="#000000" stroke="none" d="M27.931232,81.97502C36.649984,82.49792,38.679151,83.67082,50,87.5C41.0229,79.61042,38.993733,78.43962,34.181237,71.15002C33.189565,75.98962,31.627079,78.69792,27.931232,81.97502" transform="translate(2525,1375)"/>
    <text style="font-family: Arial; font-size: 16px; font-weight: bold; text-anchor: start;" x="0" y="0" text-anchor="start" stroke="none" fill="#000000" transform="translate(2575,1425)">
      <tspan dy="7.2">Q1</tspan>
    </text>
    <path style="stroke-linecap: round; stroke-miterlimit: 6;" fill="none" stroke="#000000" d="M0,50L12.5,50" stroke-width="2" stroke-linecap="round" stroke-miterlimit="6" transform="matrix(0,-1,1,0,2775,1425)"/>
    <path style="stroke-linecap: round; stroke-miterlimit: 6;" fill="none" stroke="#000000" d="M12.5,87.5L12.5,12.5" stroke-width="2" stroke-linecap="round" stroke-miterlimit="6" transform="matrix(0,-1,1,0,2775,1425)"/>
    <path style="stroke-linecap: round; stroke-miterlimit: 6;" fill="none" stroke="#000000" d="M12.5,32.81249L50,12.5" stroke-width="2" stroke-linecap="round" stroke-miterlimit="6" transform="matrix(0,-1,1,0,2775,1425)"/>
    <path style="stroke-linecap: round; stroke-miterlimit: 6;" fill="none" stroke="#000000" d="M50,0L50,12.5" stroke-width="2" stroke-linecap="round" stroke-miterlimit="6" transform="matrix(0,-1,1,0,2775,1425)"/>
    <path style="stroke-linecap: round; stroke-miterlimit: 6;" fill="none" stroke="#000000" d="M12.5,67.18752L50,87.5" stroke-width="2" stroke-linecap="round" stroke-miterlimit="6" transform="matrix(0,-1,1,0,2775,1425)"/>
    <path style="stroke-linecap: round; stroke-miterlimit: 6;" fill="none" stroke="#000000" d="M50,100L50,87.5" stroke-width="2" stroke-linecap="round" stroke-miterlimit="6" transform="matrix(0,-1,1,0,2775,1425)"/>
    <path fill="#000000" stroke="none" d="M28.318737,16.46249C23.50624,23.75207,21.477073,24.92291,12.5,32.81249C23.820823,28.98333,25.849989,27.81041,34.568741,27.28749C30.872894,24.01041,29.310409,21.30208,28.318737,16.46249" transform="matrix(0,-1,1,0,2775,1425)"/>
    <text style="font-family: Arial; font-size: 16px; font-weight: bold; text-anchor: middle;" x="0" y="0" text-anchor="middle" stroke="none" fill="#000000" transform="translate(2825,1365.4)">
      <tspan dy="7.2">Q2</tspan>
    </text>
    <path style="stroke-linecap: round; stroke-miterlimit: 6;" fill="none" stroke="#000000" d="M25,21.87499L25,0" stroke-width="2" stroke-linecap="round" stroke-miterlimit="6" transform="translate(2625,1425)"/>
    <path style="stroke-linecap: round; stroke-miterlimit: 6;" fill="none" stroke="#000000" d="M25,78.12502L25,100" stroke-width="2" stroke-linecap="round" stroke-miterlimit="6" transform="translate(2625,1425)"/>
    <path style="stroke-linecap: round; stroke-miterlimit: 6;" fill="none" stroke="#000000" d="M25,21.87499L14.062504,26.56249L35.937495,35.93748L14.062504,45.31248L35.937495,54.68752L14.062504,64.06252L35.937495,73.43752L25,78.12502" stroke-width="2" stroke-linecap="round" stroke-miterlimit="6" transform="translate(2625,1425)"/>
    <text style="font-family: Arial; font-size: 16px; font-weight: bold; text-anchor: start;" x="0" y="0" text-anchor="start" stroke="none" fill="#000000" transform="translate(2668.75,1475)">
      <tspan dy="7.2">R3</tspan>
    </text>
    <path style="stroke-linecap: round; stroke-miterlimit: 6;" fill="none" stroke="#000000" d="M25,21.87499L25,0" stroke-width="2" stroke-linecap="round" stroke-miterlimit="6" transform="translate(2975,1425)"/>
    <path style="stroke-linecap: round; stroke-miterlimit: 6;" fill="none" stroke="#000000" d="M25,78.12502L25,100" stroke-width="2" stroke-linecap="round" stroke-miterlimit="6" transform="translate(2975,1425)"/>
    <path style="stroke-linecap: round; stroke-miterlimit: 6;" fill="none" stroke="#000000" d="M25,21.87499L14.062504,26.56249L35.937495,35.93748L14.062504,45.31248L35.937495,54.68752L14.062504,64.06252L35.937495,73.43752L25,78.12502" stroke-width="2" stroke-linecap="round" stroke-miterlimit="6" transform="translate(2975,1425)"/>
    <text style="font-family: Arial; font-size: 16px; font-weight: bold; text-anchor: start;" x="0" y="0" text-anchor="start" stroke="none" fill="#000000" transform="translate(3018.75,1475)">
      <tspan dy="7.2">R7</tspan>
    </text>
    <path style="stroke-linecap: round; stroke-miterlimit: 6;" fill="none" stroke="#000000" d="M25,21.87499L25,0" stroke-width="2" stroke-linecap="round" stroke-miterlimit="6" transform="translate(2550,1475)"/>
    <path style="stroke-linecap: round; stroke-miterlimit: 6;" fill="none" stroke="#000000" d="M25,78.12502L25,100" stroke-width="2" stroke-linecap="round" stroke-miterlimit="6" transform="translate(2550,1475)"/>
    <path style="stroke-linecap: round; stroke-miterlimit: 6;" fill="none" stroke="#000000" d="M25,21.87499L14.062504,26.56249L35.937495,35.93748L14.062504,45.31248L35.937495,54.68752L14.062504,64.06252L35.937495,73.43752L25,78.12502" stroke-width="2" stroke-linecap="round" stroke-miterlimit="6" transform="translate(2550,1475)"/>
    <text style="font-family: Arial; font-size: 16px; font-weight: bold; text-anchor: start;" x="0" y="0" text-anchor="start" stroke="none" fill="#000000" transform="translate(2593.75,1525)">
      <tspan dy="7.2">R4</tspan>
    </text>
    <path style="stroke-linecap: round; stroke-miterlimit: 6;" fill="#ffffff" stroke="#000000" d="M50,50C50,36.1937,38.806847,25,25,25C11.193111,25,0,36.1937,0,50C0,63.80622,11.193111,75,25,75C38.806847,75,50,63.80622,50,50" stroke-width="2" stroke-linecap="round" stroke-miterlimit="6" transform="translate(2175,1450)"/>
    <path style="stroke-linecap: round; stroke-miterlimit: 6;" fill="none" stroke="#000000" d="M25,0L25,25" stroke-width="2" stroke-linecap="round" stroke-miterlimit="6" transform="translate(2175,1450)"/>
    <path style="stroke-linecap: round; stroke-miterlimit: 6;" fill="none" stroke="#000000" d="M25,100L25,75" stroke-width="2" stroke-linecap="round" stroke-miterlimit="6" transform="translate(2175,1450)"/>
    <path style="stroke-linecap: round; stroke-miterlimit: 6;" fill="none" stroke="#000000" d="M37.5,50C25,87.5,25,12.5,12.5,50" stroke-width="2" stroke-linecap="round" stroke-miterlimit="6" transform="translate(2175,1450)"/>
    <path style="font-size: 15px; font-weight: normal;" fill="#000000" stroke="none" d="M25.623818,28.684383L24.376181,28.684383L24.376181,34.105933L19,34.105933L19,35.35357L24.376181,35.35357L24.376181,40.77512L25.623818,40.77512L25.623818,35.35357L31,35.35357L31,34.105933L25.623818,34.105933L25.623818,28.684383" font-size="15px" font-weight="normal" transform="translate(2175,1450)"/>
    <path style="font-size: 15px; font-weight: normal;" fill="#000000" stroke="none" d="M19.079395,65.81149L19.079395,67.059127L30.965974,67.059127L30.965974,65.81149L19.079395,65.81149" font-size="15px" font-weight="normal" transform="translate(2175,1450)"/>
    <text style="font-family: Arial; font-size: 16px; font-weight: bold; text-anchor: start;" x="0" y="0" text-anchor="start" stroke="none" fill="#000000" transform="translate(2231.25,1500)">
      <tspan dy="-11.999999999999996">Vs</tspan>
      <tspan dy="19.2" x="0">sine</tspan>
      <tspan dy="19.2" x="0">1 kHz</tspan>
    </text>
    <path style="stroke-linecap: round; stroke-miterlimit: 6;" fill="none" stroke="#000000" d="M25,21.87499L25,0" stroke-width="2" stroke-linecap="round" stroke-miterlimit="6" transform="translate(2400,1450)"/>
    <path style="stroke-linecap: round; stroke-miterlimit: 6;" fill="none" stroke="#000000" d="M25,78.12502L25,100" stroke-width="2" stroke-linecap="round" stroke-miterlimit="6" transform="translate(2400,1450)"/>
    <path style="stroke-linecap: round; stroke-miterlimit: 6;" fill="none" stroke="#000000" d="M25,21.87499L14.062504,26.56249L35.937495,35.93748L14.062504,45.31248L35.937495,54.68752L14.062504,64.06252L35.937495,73.43752L25,78.12502" stroke-width="2" stroke-linecap="round" stroke-miterlimit="6" transform="translate(2400,1450)"/>
    <text style="font-family: Arial; font-size: 16px; font-weight: bold; text-anchor: start;" x="0" y="0" text-anchor="start" stroke="none" fill="#000000" transform="translate(2443.75,1500)">
      <tspan dy="7.2">R1</tspan>
    </text>
    <path style="stroke-linecap: round; stroke-miterlimit: 6;" fill="none" stroke="#000000" d="M25,21.87499L25,0" stroke-width="2" stroke-linecap="round" stroke-miterlimit="6" transform="translate(2450,1450)"/>
    <path style="stroke-linecap: round; stroke-miterlimit: 6;" fill="none" stroke="#000000" d="M25,78.12502L25,100" stroke-width="2" stroke-linecap="round" stroke-miterlimit="6" transform="translate(2450,1450)"/>
    <path style="stroke-linecap: round; stroke-miterlimit: 6;" fill="none" stroke="#000000" d="M25,21.87499L14.062504,26.56249L35.937495,35.93748L14.062504,45.31248L35.937495,54.68752L14.062504,64.06252L35.937495,73.43752L25,78.12502" stroke-width="2" stroke-linecap="round" stroke-miterlimit="6" transform="translate(2450,1450)"/>
    <text style="font-family: Arial; font-size: 16px; font-weight: bold; text-anchor: start;" x="0" y="0" text-anchor="start" stroke="none" fill="#000000" transform="translate(2493.75,1500)">
      <tspan dy="7.2">R2</tspan>
    </text>
    <path style="stroke-linecap: round; stroke-miterlimit: 6;" fill="none" stroke="#000000" d="M25,54.68752L25,100" stroke-width="2" stroke-linecap="round" stroke-miterlimit="6" transform="matrix(0,-1,-1,0,2400,1450)"/>
    <path style="stroke-linecap: round; stroke-miterlimit: 6;" fill="none" stroke="#000000" d="M25,45.31249L25,0" stroke-width="2" stroke-linecap="round" stroke-miterlimit="6" transform="matrix(0,-1,-1,0,2400,1450)"/>
    <path style="stroke-linecap: round; stroke-miterlimit: 6;" fill="none" stroke="#000000" d="M50,45.31249L0,45.31249" stroke-width="2" stroke-linecap="round" stroke-miterlimit="6" transform="matrix(0,-1,-1,0,2400,1450)"/>
    <path style="stroke-linecap: round; stroke-miterlimit: 6;" fill="none" stroke="#000000" d="M50,54.68752L0,54.68752" stroke-width="2" stroke-linecap="round" stroke-miterlimit="6" transform="matrix(0,-1,-1,0,2400,1450)"/>
    <text style="font-family: Arial; font-size: 16px; font-weight: bold; text-anchor: middle;" x="0" y="0" text-anchor="middle" stroke="none" fill="#000000" transform="translate(2350,1384.15)">
      <tspan dy="7.2">Cin</tspan>
    </text>
    <path style="stroke-linecap: round;" fill="none" stroke="#000000" d="M 2200 1425 L 2200 1450" stroke-width="2" stroke-linecap="round" class="cl_wire"/>
    <path style="stroke-linecap: round; stroke-miterlimit: 6;" fill="none" stroke="#000000" d="M25,21.87499L25,0" stroke-width="2" stroke-linecap="round" stroke-miterlimit="6" transform="translate(2750,1475)"/>
    <path style="stroke-linecap: round; stroke-miterlimit: 6;" fill="none" stroke="#000000" d="M25,78.12502L25,100" stroke-width="2" stroke-linecap="round" stroke-miterlimit="6" transform="translate(2750,1475)"/>
    <path style="stroke-linecap: round; stroke-miterlimit: 6;" fill="none" stroke="#000000" d="M25,21.87499L14.062504,26.56249L35.937495,35.93748L14.062504,45.31248L35.937495,54.68752L14.062504,64.06252L35.937495,73.43752L25,78.12502" stroke-width="2" stroke-linecap="round" stroke-miterlimit="6" transform="translate(2750,1475)"/>
    <text style="font-family: Arial; font-size: 16px; font-weight: bold; text-anchor: start;" x="0" y="0" text-anchor="start" stroke="none" fill="#000000" transform="translate(2793.75,1525)">
      <tspan dy="7.2">R5</tspan>
    </text>
    <path style="stroke-linecap: round; stroke-miterlimit: 6;" fill="none" stroke="#000000" d="M25,21.87499L25,0" stroke-width="2" stroke-linecap="round" stroke-miterlimit="6" transform="translate(2825,1475)"/>
    <path style="stroke-linecap: round; stroke-miterlimit: 6;" fill="none" stroke="#000000" d="M25,78.12502L25,100" stroke-width="2" stroke-linecap="round" stroke-miterlimit="6" transform="translate(2825,1475)"/>
    <path style="stroke-linecap: round; stroke-miterlimit: 6;" fill="none" stroke="#000000" d="M25,21.87499L14.062504,26.56249L35.937495,35.93748L14.062504,45.31248L35.937495,54.68752L14.062504,64.06252L35.937495,73.43752L25,78.12502" stroke-width="2" stroke-linecap="round" stroke-miterlimit="6" transform="translate(2825,1475)"/>
    <text style="font-family: Arial; font-size: 16px; font-weight: bold; text-anchor: start;" x="0" y="0" text-anchor="start" stroke="none" fill="#000000" transform="translate(2868.75,1525)">
      <tspan dy="7.2">R6</tspan>
    </text>
    <path style="stroke-linecap: round; stroke-miterlimit: 6;" fill="none" stroke="#000000" d="M25,54.68752L25,100" stroke-width="2" stroke-linecap="round" stroke-miterlimit="6" transform="translate(2900,1475)"/>
    <path style="stroke-linecap: round; stroke-miterlimit: 6;" fill="none" stroke="#000000" d="M25,45.31249L25,0" stroke-width="2" stroke-linecap="round" stroke-miterlimit="6" transform="translate(2900,1475)"/>
    <path style="stroke-linecap: round; stroke-miterlimit: 6;" fill="none" stroke="#000000" d="M50,45.31249L0,45.31249" stroke-width="2" stroke-linecap="round" stroke-miterlimit="6" transform="translate(2900,1475)"/>
    <path style="stroke-linecap: round; stroke-miterlimit: 6;" fill="none" stroke="#000000" d="M50,54.68752L0,54.68752" stroke-width="2" stroke-linecap="round" stroke-miterlimit="6" transform="translate(2900,1475)"/>
    <text style="font-family: Arial; font-size: 16px; font-weight: bold; text-anchor: start;" x="0" y="0" text-anchor="start" stroke="none" fill="#000000" transform="translate(2956.25,1525)">
      <tspan dy="7.2">Cb</tspan>
    </text>
    <rect x="7" y="7" width="35" height="29" r="5" rx="5" ry="5" fill="#ffffff" stroke="#000000" stroke-width="2" transform="translate(3125,1325)"/>
    <text style="font-family: Arial; font-size: 16px; font-weight: bold; text-anchor: start;" x="12" y="22" text-anchor="start" stroke="none" fill="#000000" transform="translate(3125,1325)">
      <tspan dy="7.2">out</tspan>
    </text>
    <path style="stroke-linecap: round; stroke-miterlimit: 6;" fill="none" stroke="#000000" d="M25,21.87499L25,0" stroke-width="2" stroke-linecap="round" stroke-miterlimit="6" transform="matrix(0,-1,1,0,2200,1450)"/>
    <path style="stroke-linecap: round; stroke-miterlimit: 6;" fill="none" stroke="#000000" d="M25,78.12502L25,100" stroke-width="2" stroke-linecap="round" stroke-miterlimit="6" transform="matrix(0,-1,1,0,2200,1450)"/>
    <path style="stroke-linecap: round; stroke-miterlimit: 6;" fill="none" stroke="#000000" d="M25,21.87499L14.062504,26.56249L35.937495,35.93748L14.062504,45.31248L35.937495,54.68752L14.062504,64.06252L35.937495,73.43752L25,78.12502" stroke-width="2" stroke-linecap="round" stroke-miterlimit="6" transform="matrix(0,-1,1,0,2200,1450)"/>
    <text style="font-family: Arial; font-size: 16px; font-weight: bold; text-anchor: middle;" x="0" y="0" text-anchor="middle" stroke="none" fill="#000000" transform="translate(2250,1396.65)">
      <tspan dy="7.2">Rs</tspan>
    </text>
    <path style="stroke-linecap: round; stroke-miterlimit: 6;" fill="none" stroke="#000000" d="M25,21.87499L25,0" stroke-width="2" stroke-linecap="round" stroke-miterlimit="6" transform="translate(3100,1425)"/>
    <path style="stroke-linecap: round; stroke-miterlimit: 6;" fill="none" stroke="#000000" d="M25,78.12502L25,100" stroke-width="2" stroke-linecap="round" stroke-miterlimit="6" transform="translate(3100,1425)"/>
    <path style="stroke-linecap: round; stroke-miterlimit: 6;" fill="none" stroke="#000000" d="M25,21.87499L14.062504,26.56249L35.937495,35.93748L14.062504,45.31248L35.937495,54.68752L14.062504,64.06252L35.937495,73.43752L25,78.12502" stroke-width="2" stroke-linecap="round" stroke-miterlimit="6" transform="translate(3100,1425)"/>
    <text style="font-family: Arial; font-size: 16px; font-weight: bold; text-anchor: start;" x="0" y="0" text-anchor="start" stroke="none" fill="#000000" transform="translate(3143.75,1475)">
      <tspan dy="7.2">Rload</tspan>
    </text>
    <path style="stroke-linecap: round; stroke-miterlimit: 6;" fill="none" stroke="#000000" d="M25,54.68752L25,100" stroke-width="2" stroke-linecap="round" stroke-miterlimit="6" transform="matrix(0,-1,1,0,3025,1400)"/>
    <path style="stroke-linecap: round; stroke-miterlimit: 6;" fill="none" stroke="#000000" d="M25,45.31249L25,0" stroke-width="2" stroke-linecap="round" stroke-miterlimit="6" transform="matrix(0,-1,1,0,3025,1400)"/>
    <path style="stroke-linecap: round; stroke-miterlimit: 6;" fill="none" stroke="#000000" d="M50,45.31249L0,45.31249" stroke-width="2" stroke-linecap="round" stroke-miterlimit="6" transform="matrix(0,-1,1,0,3025,1400)"/>
    <path style="stroke-linecap: round; stroke-miterlimit: 6;" fill="none" stroke="#000000" d="M50,54.68752L0,54.68752" stroke-width="2" stroke-linecap="round" stroke-miterlimit="6" transform="matrix(0,-1,1,0,3025,1400)"/>
    <text style="font-family: Arial; font-size: 16px; font-weight: bold; text-anchor: middle;" x="0" y="0" text-anchor="middle" stroke="none" fill="#000000" transform="translate(3075,1334.15)">
      <tspan dy="7.2">Cout</tspan>
    </text>
    <path style="stroke-linecap: round;" fill="none" stroke="#000000" d="M 2875 1375 L 3025 1375" stroke-width="2" stroke-linecap="round" class="cl_wire"/>
    <path style="stroke-linecap: round;" fill="none" stroke="#000000" d="M 2425 1425 L 2425 1450" stroke-width="2" stroke-linecap="round" class="cl_wire"/>
    <path style="stroke-linecap: round;" fill="none" stroke="#000000" d="M 2475 1425 L 2475 1450" stroke-width="2" stroke-linecap="round" class="cl_wire"/>
    <path style="stroke-linecap: round;" fill="none" stroke="#000000" d="M 2425 1550 L 2425 1575" stroke-width="2" stroke-linecap="round" class="cl_wire"/>
    <path style="stroke-linecap: round;" fill="none" stroke="#000000" d="M 2475 1550 L 2475 1575" stroke-width="2" stroke-linecap="round" class="cl_wire"/>
    <path style="stroke-linecap: round;" fill="none" stroke="#000000" d="M 2200 1550 L 2200 1575" stroke-width="2" stroke-linecap="round" class="cl_wire"/>
    <path style="stroke-linecap: round;" fill="none" stroke="#000000" d="M 2650 1375 L 2650 1425" stroke-width="2" stroke-linecap="round" class="cl_wire"/>
    <path style="stroke-linecap: round;" fill="none" stroke="#000000" d="M 2650 1525 L 2650 1575" stroke-width="2" stroke-linecap="round" class="cl_wire"/>
    <path style="stroke-linecap: round;" fill="none" stroke="#000000" d="M 2775 1475 L 2925 1475" stroke-width="2" stroke-linecap="round" class="cl_wire"/>
    <path style="stroke-linecap: round;" fill="none" stroke="#000000" d="M 2825 1425 L 2825 1475" stroke-width="2" stroke-linecap="round" class="cl_wire"/>
    <path style="stroke-linecap: round;" fill="none" stroke="#000000" d="M 2575 1375 L 2775 1375" stroke-width="2" stroke-linecap="round" class="cl_wire"/>
    <path style="stroke-linecap: round;" fill="none" stroke="#000000" d="M 3125 1525 L 3125 1575" stroke-width="2" stroke-linecap="round" class="cl_wire"/>
    <path style="stroke-linecap: round;" fill="none" stroke="#000000" d="M 3125 1375 L 3125 1425" stroke-width="2" stroke-linecap="round" class="cl_wire"/>
    <path style="stroke-linecap: round;" fill="none" stroke="#000000" d="M 3000 1375 L 3000 1425" stroke-width="2" stroke-linecap="round" class="cl_wire"/>
    <rect x="7" y="7" width="19" height="29" r="5" rx="5" ry="5" fill="#ffffff" stroke="#000000" stroke-width="2" transform="translate(2450,1375)"/>
    <text style="font-family: Arial; font-size: 16px; font-weight: bold; text-anchor: start;" x="12" y="22" text-anchor="start" stroke="none" fill="#000000" transform="translate(2450,1375)">
      <tspan dy="7.2">1</tspan>
    </text>
    <rect x="7" y="7" width="19" height="29" r="5" rx="5" ry="5" fill="#ffffff" stroke="#000000" stroke-width="2" transform="translate(2625,1325)"/>
    <text style="font-family: Arial; font-size: 16px; font-weight: bold; text-anchor: start;" x="12" y="22" text-anchor="start" stroke="none" fill="#000000" transform="translate(2625,1325)">
      <tspan dy="7.2">2</tspan>
    </text>
    <rect x="7" y="7" width="19" height="29" r="5" rx="5" ry="5" fill="#ffffff" stroke="#000000" stroke-width="2" transform="matrix(-1,0,0,-1,2575,1525)"/>
    <text style="font-family: Arial; font-size: 16px; font-weight: bold; text-anchor: end;" x="12" y="22" text-anchor="end" stroke="none" fill="#000000" transform="translate(2551,1478.6)">
      <tspan dy="7.2">3</tspan>
    </text>
    <rect x="7" y="7" width="19" height="29" r="5" rx="5" ry="5" fill="#ffffff" stroke="#000000" stroke-width="2" transform="translate(2875,1425)"/>
    <text style="font-family: Arial; font-size: 16px; font-weight: bold; text-anchor: start;" x="12" y="22" text-anchor="start" stroke="none" fill="#000000" transform="translate(2875,1425)">
      <tspan dy="7.2">4</tspan>
    </text>
    <rect x="7" y="7" width="19" height="29" r="5" rx="5" ry="5" fill="#ffffff" stroke="#000000" stroke-width="2" transform="translate(2925,1325)"/>
    <text style="font-family: Arial; font-size: 16px; font-weight: bold; text-anchor: start;" x="12" y="22" text-anchor="start" stroke="none" fill="#000000" transform="translate(2925,1325)">
      <tspan dy="7.2">5</tspan>
    </text>
    <path style="stroke-linecap: round;" fill="none" stroke="#000000" d="M 2425 1425 L 2525 1425" stroke-width="2" stroke-linecap="round" class="cl_wire"/>
    <path style="stroke-linecap: round;" fill="none" stroke="#000000" d="M 2400 1425 L 2425 1425" stroke-width="2" stroke-linecap="round" class="cl_wire"/>
    <path style="stroke-linecap: round;" fill="none" stroke="#000000" d="M 2200 1575 L 3125 1575" stroke-width="2" stroke-linecap="round" class="cl_wire"/>
    <path style="stroke-linecap: round;" fill="none" stroke="#000000" d="M 3000 1525 L 3000 1575" stroke-width="2" stroke-linecap="round" class="cl_wire"/>
    <text style="font-family: Courier New; font-size: 30px; font-weight: bold; text-anchor: start; font-style: normal;" x="0" y="0" text-anchor="start" stroke="none" fill="#ff0000" font-style="normal" transform="translate(2300,1442.5)">
      <tspan dy="13.5">+</tspan>
    </text>
    <text style="font-family: Courier New; font-size: 30px; font-weight: bold; text-anchor: start; font-style: normal;" x="0" y="0" text-anchor="start" stroke="none" fill="#ff0000" font-style="normal" transform="translate(2300,1542.5)">
      <tspan dy="13.5">-</tspan>
    </text>
    <text style="font-family: Arial; font-size: 20px; font-weight: bold; text-anchor: start; font-style: normal;" x="0" y="0" text-anchor="start" stroke="none" fill="#ff0000" font-style="normal" transform="translate(2300,1486.5)">
      <tspan dy="9">Vin</tspan>
    </text>
    <circle cx="2575" cy="1475" r="3" fill="#000000" stroke="#000000"/>
    <circle cx="2575" cy="1575" r="3" fill="#000000" stroke="#000000"/>
    <circle cx="2775" cy="1575" r="3" fill="#000000" stroke="#000000"/>
    <circle cx="2850" cy="1475" r="3" fill="#000000" stroke="#000000"/>
    <circle cx="2850" cy="1575" r="3" fill="#000000" stroke="#000000"/>
    <circle cx="2925" cy="1575" r="3" fill="#000000" stroke="#000000"/>
    <circle cx="3125" cy="1375" r="3" fill="#000000" stroke="#000000"/>
    <circle cx="2450" cy="1425" r="3" fill="#000000" stroke="#000000"/>
    <circle cx="2625" cy="1375" r="3" fill="#000000" stroke="#000000"/>
    <circle cx="2875" cy="1475" r="3" fill="#000000" stroke="#000000"/>
    <circle cx="2925" cy="1375" r="3" fill="#000000" stroke="#000000"/>
    <circle cx="2425" cy="1425" r="3" fill="#000000" stroke="#000000"/>
    <circle cx="2475" cy="1425" r="3" fill="#000000" stroke="#000000"/>
    <circle cx="2425" cy="1575" r="3" fill="#000000" stroke="#000000"/>
    <circle cx="2475" cy="1575" r="3" fill="#000000" stroke="#000000"/>
    <circle cx="2650" cy="1375" r="3" fill="#000000" stroke="#000000"/>
    <circle cx="2650" cy="1575" r="3" fill="#000000" stroke="#000000"/>
    <circle cx="2825" cy="1475" r="3" fill="#000000" stroke="#000000"/>
    <circle cx="3000" cy="1375" r="3" fill="#000000" stroke="#000000"/>
    <circle cx="3000" cy="1575" r="3" fill="#000000" stroke="#000000"/>
  </g>
</svg>
