<svg width="333.3333333333333" height="304.1666666666667" viewBox="0 0 160 146" xmlns="http://www.w3.org/2000/svg" xmlns:usvg="https://github.com/RazrFalcon/usvg" usvg:version="0.8.0">
    <defs/>
    <path fill="none" stroke="#000000" stroke-miterlimit="10" stroke-width="1.2" stroke-linejoin="round" transform="matrix(1 0 0 -1 -158 657)" d="M 232 600 C 232 595.582031 235.582031 592 240 592 C 244.417969 592 248 595.582031 248 600"/>
    <path fill="none" stroke="#000000" stroke-miterlimit="10" stroke-width="2" stroke-linejoin="round" transform="matrix(1 0 0 -1 -158 657)" d="M 212 592 L 268 592 L 264 612"/>
    <path fill="none" stroke="#000000" stroke-miterlimit="10" stroke-width="1.2" stroke-linejoin="round" transform="matrix(1 0 0 -1 -158 657)" d="M 240 552 L 240 512"/>
    <path fill="none" stroke="#000000" stroke-miterlimit="10" stroke-width="1.2" stroke-linejoin="round" transform="matrix(1 0 0 -1 -158 657)" d="M 240 616 L 240 656"/>
    <path fill="#bebebe" fill-rule="evenodd" stroke="#000000" stroke-miterlimit="10" stroke-width="1.2" stroke-linejoin="round" transform="matrix(1 0 0 -1 -158 657)" d="M 240 616 L 232 600 L 248 600 Z M 240 616"/>
    <path fill="#bebebe" fill-rule="evenodd" stroke="#000000" stroke-miterlimit="10" stroke-width="2" stroke-linejoin="round" transform="matrix(1 0 0 -1 -158 657)" d="M 244 592 L 236 592 L 216 552 L 264 552 Z M 244 592"/>
    <path transform="matrix(1 0 0 1 102 28.764)" d="M 3.90625 -2.890625 C 3.96875 -2.96875 4.140625 -3.1875 4.640625 -3.1875 L 4.640625 -3.40625 C 4.46875 -3.390625 4.265625 -3.390625 4.09375 -3.390625 C 3.890625 -3.390625 3.609375 -3.390625 3.4375 -3.40625 L 3.4375 -3.1875 C 3.640625 -3.1875 3.6875 -3.09375 3.6875 -3.03125 C 3.6875 -2.96875 3.65625 -2.9375 3.625 -2.890625 L 2.625 -1.625 L 1.546875 -3 C 1.484375 -3.0625 1.484375 -3.078125 1.484375 -3.09375 C 1.484375 -3.1875 1.6875 -3.1875 1.8125 -3.1875 L 1.8125 -3.40625 C 1.625 -3.40625 1.265625 -3.390625 0.984375 -3.390625 C 0.78125 -3.390625 0.5 -3.390625 0.25 -3.40625 L 0.25 -3.1875 L 0.375 -3.1875 C 0.71875 -3.1875 0.78125 -3.140625 0.875 -3.03125 L 2.1875 -1.359375 L 2.1875 -0.421875 C 2.1875 -0.265625 2.1875 -0.21875 1.78125 -0.21875 L 1.640625 -0.21875 L 1.640625 0 C 1.859375 -0.015625 2.171875 -0.015625 2.4375 -0.015625 C 2.71875 -0.015625 3 -0.015625 3.25 0 L 3.25 -0.21875 L 3.09375 -0.21875 C 2.703125 -0.21875 2.703125 -0.265625 2.703125 -0.421875 L 2.703125 -1.359375 Z M 3.90625 -2.890625"/>
    <path transform="matrix(1 0 0 1 106.363619 28.764)" d="M 3.0625 -1.0625 C 3.0625 -1.6875 2.484375 -2.234375 1.6875 -2.234375 C 0.90625 -2.234375 0.328125 -1.6875 0.328125 -1.0625 C 0.328125 -0.46875 0.921875 0.0625 1.6875 0.0625 C 2.484375 0.0625 3.0625 -0.46875 3.0625 -1.0625 Z M 1.6875 -0.125 C 0.828125 -0.125 0.828125 -0.875 0.828125 -1.109375 C 0.828125 -1.328125 0.828125 -2.0625 1.6875 -2.0625 C 2.5625 -2.0625 2.5625 -1.328125 2.5625 -1.109375 C 2.5625 -0.875 2.5625 -0.125 1.6875 -0.125 Z M 1.6875 -0.125"/>
    <path transform="matrix(1 0 0 1 109.750903 28.764)" d="M 2.140625 -2.140625 L 2.140625 -1.921875 C 2.5 -1.921875 2.546875 -1.890625 2.546875 -1.65625 L 2.546875 -0.84375 C 2.546875 -0.375 2.203125 -0.109375 1.796875 -0.109375 C 1.28125 -0.109375 1.265625 -0.3125 1.265625 -0.5625 L 1.265625 -2.203125 L 0.40625 -2.140625 L 0.40625 -1.921875 C 0.796875 -1.921875 0.828125 -1.890625 0.828125 -1.640625 L 0.828125 -0.546875 C 0.875 0.015625 1.4375 0.0625 1.75 0.0625 C 2.171875 0.0625 2.421875 -0.140625 2.5625 -0.375 L 2.5625 0.0625 L 3.40625 0 L 3.40625 -0.21875 C 3.03125 -0.21875 2.984375 -0.25 2.984375 -0.5 L 2.984375 -2.203125 Z M 2.140625 -2.140625"/>
    <path transform="matrix(1 0 0 1 115.838051 28.764)" d="M 2.234375 -2.09375 C 2.234375 -2.171875 2.234375 -2.234375 2.140625 -2.234375 C 2.125 -2.234375 2.109375 -2.234375 2.0625 -2.203125 C 2.046875 -2.171875 1.953125 -2.09375 1.9375 -2.09375 C 1.921875 -2.09375 1.921875 -2.09375 1.890625 -2.125 C 1.78125 -2.1875 1.59375 -2.234375 1.34375 -2.234375 C 0.515625 -2.234375 0.34375 -1.859375 0.34375 -1.625 C 0.34375 -1.15625 0.921875 -1.0625 1.390625 -1 C 1.671875 -0.953125 2.140625 -0.875 2.140625 -0.546875 C 2.140625 -0.375 1.984375 -0.109375 1.390625 -0.109375 C 1.046875 -0.109375 0.71875 -0.234375 0.5625 -0.765625 C 0.546875 -0.859375 0.53125 -0.875 0.453125 -0.875 C 0.34375 -0.875 0.34375 -0.828125 0.34375 -0.71875 L 0.34375 -0.078125 C 0.34375 0 0.34375 0.0625 0.421875 0.0625 C 0.46875 0.0625 0.46875 0.046875 0.5625 -0.046875 L 0.703125 -0.171875 C 0.953125 0.046875 1.265625 0.0625 1.390625 0.0625 C 2.21875 0.0625 2.375 -0.375 2.375 -0.625 C 2.375 -0.859375 2.265625 -1.015625 2.0625 -1.140625 C 1.875 -1.265625 1.71875 -1.28125 1.296875 -1.34375 C 0.984375 -1.390625 0.59375 -1.453125 0.59375 -1.71875 C 0.59375 -1.890625 0.796875 -2.078125 1.328125 -2.078125 C 1.75 -2.078125 1.984375 -1.921875 2.015625 -1.578125 C 2.03125 -1.5 2.03125 -1.46875 2.125 -1.46875 C 2.234375 -1.46875 2.234375 -1.5 2.234375 -1.609375 Z M 2.234375 -2.09375"/>
    <path transform="matrix(1 0 0 1 118.567804 28.764)" d="M 2.984375 -1.5 C 2.984375 -2.046875 2.609375 -2.203125 2.15625 -2.203125 C 1.578125 -2.203125 1.328125 -1.859375 1.25 -1.75 L 1.25 -3.453125 L 0.40625 -3.40625 L 0.40625 -3.1875 C 0.78125 -3.1875 0.828125 -3.15625 0.828125 -2.90625 L 0.828125 -0.421875 C 0.828125 -0.265625 0.828125 -0.21875 0.5 -0.21875 L 0.40625 -0.21875 L 0.40625 0 C 0.625 -0.015625 0.828125 -0.015625 1.046875 -0.015625 C 1.25 -0.015625 1.46875 -0.015625 1.6875 0 L 1.6875 -0.21875 L 1.59375 -0.21875 C 1.265625 -0.21875 1.265625 -0.265625 1.265625 -0.421875 L 1.265625 -1.28125 C 1.265625 -1.84375 1.78125 -2.03125 2.09375 -2.03125 C 2.46875 -2.03125 2.546875 -1.828125 2.546875 -1.515625 L 2.546875 -0.421875 C 2.546875 -0.265625 2.546875 -0.21875 2.21875 -0.21875 L 2.140625 -0.21875 L 2.140625 0 C 2.34375 -0.015625 2.5625 -0.015625 2.765625 -0.015625 C 2.984375 -0.015625 3.1875 -0.015625 3.40625 0 L 3.40625 -0.21875 L 3.3125 -0.21875 C 2.984375 -0.21875 2.984375 -0.265625 2.984375 -0.421875 Z M 2.984375 -1.5"/>
    <path transform="matrix(1 0 0 1 122.303779 28.764)" d="M 2.609375 -1.484375 C 2.609375 -1.953125 2.109375 -2.234375 1.484375 -2.234375 C 1.1875 -2.234375 0.609375 -2.21875 0.609375 -1.796875 C 0.609375 -1.609375 0.75 -1.53125 0.875 -1.53125 C 1 -1.53125 1.125 -1.625 1.125 -1.796875 C 1.125 -1.90625 1.0625 -1.984375 1.015625 -2.015625 C 1.1875 -2.0625 1.421875 -2.0625 1.46875 -2.0625 C 1.90625 -2.0625 2.15625 -1.828125 2.15625 -1.46875 L 2.15625 -1.34375 C 1.6875 -1.328125 1.40625 -1.3125 1.03125 -1.171875 C 0.703125 -1.0625 0.40625 -0.84375 0.40625 -0.515625 C 0.40625 -0.0625 0.984375 0.0625 1.390625 0.0625 C 1.765625 0.0625 2.0625 -0.09375 2.21875 -0.359375 C 2.25 -0.171875 2.359375 0.03125 2.609375 0.03125 C 2.640625 0.03125 3.21875 0.03125 3.21875 -0.453125 L 3.21875 -0.71875 L 3 -0.71875 L 3 -0.453125 C 3 -0.40625 3 -0.1875 2.8125 -0.1875 C 2.609375 -0.1875 2.609375 -0.40625 2.609375 -0.453125 Z M 2.15625 -0.703125 C 2.15625 -0.15625 1.5625 -0.109375 1.4375 -0.109375 C 1.140625 -0.109375 0.875 -0.265625 0.875 -0.515625 C 0.875 -0.6875 0.96875 -1.140625 2.15625 -1.203125 Z M 2.15625 -0.703125"/>
    <path transform="matrix(1 0 0 1 125.691063 28.764)" d="M 1.25 -3.453125 L 0.40625 -3.40625 L 0.40625 -3.1875 C 0.78125 -3.1875 0.828125 -3.15625 0.828125 -2.90625 L 0.828125 -0.421875 C 0.828125 -0.265625 0.828125 -0.21875 0.5 -0.21875 L 0.40625 -0.21875 L 0.40625 0 C 0.625 -0.015625 0.828125 -0.015625 1.03125 -0.015625 C 1.25 -0.015625 1.453125 -0.015625 1.671875 0 L 1.671875 -0.21875 L 1.578125 -0.21875 C 1.25 -0.21875 1.25 -0.265625 1.25 -0.421875 Z M 1.25 -3.453125"/>
    <path transform="matrix(1 0 0 1 127.693545 28.764)" d="M 1.25 -3.453125 L 0.40625 -3.40625 L 0.40625 -3.1875 C 0.78125 -3.1875 0.828125 -3.15625 0.828125 -2.90625 L 0.828125 -0.421875 C 0.828125 -0.265625 0.828125 -0.21875 0.5 -0.21875 L 0.40625 -0.21875 L 0.40625 0 C 0.625 -0.015625 0.828125 -0.015625 1.03125 -0.015625 C 1.25 -0.015625 1.453125 -0.015625 1.671875 0 L 1.671875 -0.21875 L 1.578125 -0.21875 C 1.25 -0.21875 1.25 -0.265625 1.25 -0.421875 Z M 1.25 -3.453125"/>
    <path transform="matrix(1 0 0 1 102 34.741)" d="M 2.984375 -1.5 C 2.984375 -2.046875 2.609375 -2.203125 2.15625 -2.203125 C 1.625 -2.203125 1.34375 -1.90625 1.21875 -1.71875 L 1.21875 -2.203125 L 0.40625 -2.140625 L 0.40625 -1.921875 C 0.78125 -1.921875 0.828125 -1.890625 0.828125 -1.65625 L 0.828125 -0.421875 C 0.828125 -0.265625 0.828125 -0.21875 0.5 -0.21875 L 0.40625 -0.21875 L 0.40625 0 C 0.625 -0.015625 0.828125 -0.015625 1.046875 -0.015625 C 1.25 -0.015625 1.46875 -0.015625 1.6875 0 L 1.6875 -0.21875 L 1.59375 -0.21875 C 1.265625 -0.21875 1.265625 -0.265625 1.265625 -0.421875 L 1.265625 -1.28125 C 1.265625 -1.84375 1.78125 -2.03125 2.09375 -2.03125 C 2.46875 -2.03125 2.546875 -1.828125 2.546875 -1.515625 L 2.546875 -0.421875 C 2.546875 -0.265625 2.546875 -0.21875 2.21875 -0.21875 L 2.140625 -0.21875 L 2.140625 0 C 2.34375 -0.015625 2.5625 -0.015625 2.765625 -0.015625 C 2.984375 -0.015625 3.1875 -0.015625 3.40625 0 L 3.40625 -0.21875 L 3.3125 -0.21875 C 2.984375 -0.21875 2.984375 -0.265625 2.984375 -0.421875 Z M 2.984375 -1.5"/>
    <path transform="matrix(1 0 0 1 105.735975 34.741)" d="M 3.0625 -1.0625 C 3.0625 -1.6875 2.484375 -2.234375 1.6875 -2.234375 C 0.90625 -2.234375 0.328125 -1.6875 0.328125 -1.0625 C 0.328125 -0.46875 0.921875 0.0625 1.6875 0.0625 C 2.484375 0.0625 3.0625 -0.46875 3.0625 -1.0625 Z M 1.6875 -0.125 C 0.828125 -0.125 0.828125 -0.875 0.828125 -1.109375 C 0.828125 -1.328125 0.828125 -2.0625 1.6875 -2.0625 C 2.5625 -2.0625 2.5625 -1.328125 2.5625 -1.109375 C 2.5625 -0.875 2.5625 -0.125 1.6875 -0.125 Z M 1.6875 -0.125"/>
    <path transform="matrix(1 0 0 1 109.123259 34.741)" d="M 1.21875 -1.921875 L 2.109375 -1.921875 L 2.109375 -2.140625 L 1.21875 -2.140625 L 1.21875 -3.0625 L 1.015625 -3.0625 C 1.015625 -2.59375 0.765625 -2.109375 0.25 -2.09375 L 0.25 -1.921875 L 0.78125 -1.921875 L 0.78125 -0.625 C 0.78125 -0.0625 1.25 0.0625 1.5625 0.0625 C 1.9375 0.0625 2.21875 -0.21875 2.21875 -0.625 L 2.21875 -0.90625 L 2 -0.90625 L 2 -0.640625 C 2 -0.265625 1.78125 -0.125 1.609375 -0.125 C 1.21875 -0.125 1.21875 -0.515625 1.21875 -0.625 Z M 1.21875 -1.921875"/>
    <path transform="matrix(1 0 0 1 114.169316 34.741)" d="M 1.65625 0.75 L 1.5625 0.75 C 1.234375 0.75 1.234375 0.703125 1.234375 0.546875 L 1.234375 -0.234375 C 1.453125 -0.046875 1.71875 0.0625 2 0.0625 C 2.765625 0.0625 3.375 -0.453125 3.375 -1.078125 C 3.375 -1.671875 2.828125 -2.203125 2.09375 -2.203125 C 1.6875 -2.203125 1.390625 -2.0625 1.21875 -1.921875 L 1.21875 -2.203125 L 0.375 -2.140625 L 0.375 -1.921875 C 0.734375 -1.921875 0.796875 -1.921875 0.796875 -1.71875 L 0.796875 0.546875 C 0.796875 0.703125 0.796875 0.75 0.46875 0.75 L 0.375 0.75 L 0.375 0.96875 C 0.59375 0.953125 0.796875 0.953125 1.015625 0.953125 C 1.21875 0.953125 1.4375 0.953125 1.65625 0.96875 Z M 1.234375 -1.65625 C 1.453125 -1.953125 1.828125 -2.03125 2.03125 -2.03125 C 2.515625 -2.03125 2.875 -1.578125 2.875 -1.078125 C 2.875 -0.53125 2.46875 -0.109375 1.96875 -0.109375 C 1.75 -0.109375 1.484375 -0.203125 1.3125 -0.421875 C 1.234375 -0.515625 1.234375 -0.515625 1.234375 -0.625 Z M 1.234375 -1.65625"/>
    <path transform="matrix(1 0 0 1 117.905291 34.741)" d="M 2.609375 -1.484375 C 2.609375 -1.953125 2.109375 -2.234375 1.484375 -2.234375 C 1.1875 -2.234375 0.609375 -2.21875 0.609375 -1.796875 C 0.609375 -1.609375 0.75 -1.53125 0.875 -1.53125 C 1 -1.53125 1.125 -1.625 1.125 -1.796875 C 1.125 -1.90625 1.0625 -1.984375 1.015625 -2.015625 C 1.1875 -2.0625 1.421875 -2.0625 1.46875 -2.0625 C 1.90625 -2.0625 2.15625 -1.828125 2.15625 -1.46875 L 2.15625 -1.34375 C 1.6875 -1.328125 1.40625 -1.3125 1.03125 -1.171875 C 0.703125 -1.0625 0.40625 -0.84375 0.40625 -0.515625 C 0.40625 -0.0625 0.984375 0.0625 1.390625 0.0625 C 1.765625 0.0625 2.0625 -0.09375 2.21875 -0.359375 C 2.25 -0.171875 2.359375 0.03125 2.609375 0.03125 C 2.640625 0.03125 3.21875 0.03125 3.21875 -0.453125 L 3.21875 -0.71875 L 3 -0.71875 L 3 -0.453125 C 3 -0.40625 3 -0.1875 2.8125 -0.1875 C 2.609375 -0.1875 2.609375 -0.40625 2.609375 -0.453125 Z M 2.15625 -0.703125 C 2.15625 -0.15625 1.5625 -0.109375 1.4375 -0.109375 C 1.140625 -0.109375 0.875 -0.265625 0.875 -0.515625 C 0.875 -0.6875 0.96875 -1.140625 2.15625 -1.203125 Z M 2.15625 -0.703125"/>
    <path transform="matrix(1 0 0 1 121.292575 34.741)" d="M 2.234375 -2.09375 C 2.234375 -2.171875 2.234375 -2.234375 2.140625 -2.234375 C 2.125 -2.234375 2.109375 -2.234375 2.0625 -2.203125 C 2.046875 -2.171875 1.953125 -2.09375 1.9375 -2.09375 C 1.921875 -2.09375 1.921875 -2.09375 1.890625 -2.125 C 1.78125 -2.1875 1.59375 -2.234375 1.34375 -2.234375 C 0.515625 -2.234375 0.34375 -1.859375 0.34375 -1.625 C 0.34375 -1.15625 0.921875 -1.0625 1.390625 -1 C 1.671875 -0.953125 2.140625 -0.875 2.140625 -0.546875 C 2.140625 -0.375 1.984375 -0.109375 1.390625 -0.109375 C 1.046875 -0.109375 0.71875 -0.234375 0.5625 -0.765625 C 0.546875 -0.859375 0.53125 -0.875 0.453125 -0.875 C 0.34375 -0.875 0.34375 -0.828125 0.34375 -0.71875 L 0.34375 -0.078125 C 0.34375 0 0.34375 0.0625 0.421875 0.0625 C 0.46875 0.0625 0.46875 0.046875 0.5625 -0.046875 L 0.703125 -0.171875 C 0.953125 0.046875 1.265625 0.0625 1.390625 0.0625 C 2.21875 0.0625 2.375 -0.375 2.375 -0.625 C 2.375 -0.859375 2.265625 -1.015625 2.0625 -1.140625 C 1.875 -1.265625 1.71875 -1.28125 1.296875 -1.34375 C 0.984375 -1.390625 0.59375 -1.453125 0.59375 -1.71875 C 0.59375 -1.890625 0.796875 -2.078125 1.328125 -2.078125 C 1.75 -2.078125 1.984375 -1.921875 2.015625 -1.578125 C 2.03125 -1.5 2.03125 -1.46875 2.125 -1.46875 C 2.234375 -1.46875 2.234375 -1.5 2.234375 -1.609375 Z M 2.234375 -2.09375"/>
    <path transform="matrix(1 0 0 1 124.022327 34.741)" d="M 2.234375 -2.09375 C 2.234375 -2.171875 2.234375 -2.234375 2.140625 -2.234375 C 2.125 -2.234375 2.109375 -2.234375 2.0625 -2.203125 C 2.046875 -2.171875 1.953125 -2.09375 1.9375 -2.09375 C 1.921875 -2.09375 1.921875 -2.09375 1.890625 -2.125 C 1.78125 -2.1875 1.59375 -2.234375 1.34375 -2.234375 C 0.515625 -2.234375 0.34375 -1.859375 0.34375 -1.625 C 0.34375 -1.15625 0.921875 -1.0625 1.390625 -1 C 1.671875 -0.953125 2.140625 -0.875 2.140625 -0.546875 C 2.140625 -0.375 1.984375 -0.109375 1.390625 -0.109375 C 1.046875 -0.109375 0.71875 -0.234375 0.5625 -0.765625 C 0.546875 -0.859375 0.53125 -0.875 0.453125 -0.875 C 0.34375 -0.875 0.34375 -0.828125 0.34375 -0.71875 L 0.34375 -0.078125 C 0.34375 0 0.34375 0.0625 0.421875 0.0625 C 0.46875 0.0625 0.46875 0.046875 0.5625 -0.046875 L 0.703125 -0.171875 C 0.953125 0.046875 1.265625 0.0625 1.390625 0.0625 C 2.21875 0.0625 2.375 -0.375 2.375 -0.625 C 2.375 -0.859375 2.265625 -1.015625 2.0625 -1.140625 C 1.875 -1.265625 1.71875 -1.28125 1.296875 -1.34375 C 0.984375 -1.390625 0.59375 -1.453125 0.59375 -1.71875 C 0.59375 -1.890625 0.796875 -2.078125 1.328125 -2.078125 C 1.75 -2.078125 1.984375 -1.921875 2.015625 -1.578125 C 2.03125 -1.5 2.03125 -1.46875 2.125 -1.46875 C 2.234375 -1.46875 2.234375 -1.5 2.234375 -1.609375 Z M 2.234375 -2.09375"/>
    <path transform="matrix(1 0 0 1 126.75208 34.741)" d="M 1.3125 -3.28125 C 1.3125 -3.46875 1.140625 -3.5625 1 -3.5625 C 0.859375 -3.5625 0.703125 -3.46875 0.703125 -3.28125 C 0.703125 -3.265625 0.703125 -3.1875 0.703125 -3.15625 L 0.890625 -1.109375 C 0.890625 -1.03125 0.90625 -0.984375 1 -0.984375 C 1.09375 -0.984375 1.109375 -1.03125 1.109375 -1.109375 Z M 1.3125 -0.296875 C 1.3125 -0.46875 1.171875 -0.609375 1 -0.609375 C 0.84375 -0.609375 0.703125 -0.46875 0.703125 -0.296875 C 0.703125 -0.140625 0.828125 0 1 0 C 1.171875 0 1.3125 -0.140625 1.3125 -0.296875 Z M 1.3125 -0.296875"/>
    <path transform="matrix(1 0 0 1 31.308 76.998)" d="M 7.875 -6.4375 C 7.875 -7.53125 7.3125 -7.59375 7.1875 -7.59375 C 6.765625 -7.59375 6.390625 -7.1875 6.390625 -6.828125 C 6.390625 -6.625 6.515625 -6.515625 6.578125 -6.4375 C 6.75 -6.28125 7.203125 -5.8125 7.203125 -4.921875 C 7.203125 -4.203125 6.171875 -0.171875 4.09375 -0.171875 C 3.046875 -0.171875 2.84375 -1.046875 2.84375 -1.6875 C 2.84375 -2.546875 3.234375 -3.75 3.703125 -5 C 3.984375 -5.703125 4.046875 -5.875 4.046875 -6.21875 C 4.046875 -6.9375 3.53125 -7.59375 2.6875 -7.59375 C 1.109375 -7.59375 0.46875 -5.09375 0.46875 -4.953125 C 0.46875 -4.890625 0.53125 -4.796875 0.65625 -4.796875 C 0.8125 -4.796875 0.828125 -4.875 0.890625 -5.109375 C 1.3125 -6.59375 1.984375 -7.25 2.640625 -7.25 C 2.796875 -7.25 3.078125 -7.25 3.078125 -6.6875 C 3.078125 -6.234375 2.890625 -5.734375 2.640625 -5.078125 C 1.8125 -2.875 1.8125 -2.34375 1.8125 -1.921875 C 1.8125 -1.546875 1.859375 -0.84375 2.390625 -0.359375 C 3.015625 0.171875 3.875 0.171875 4.03125 0.171875 C 6.890625 0.171875 7.875 -5.453125 7.875 -6.4375 Z M 7.875 -6.4375"/>
    <path transform="matrix(1 0 0 1 39.457 79.58)" d="M 1.875 -0.890625 C 1.765625 -0.46875 1.75 -0.34375 0.90625 -0.34375 C 0.6875 -0.34375 0.5625 -0.34375 0.5625 -0.125 C 0.5625 0 0.640625 0 0.875 0 L 4.65625 0 C 7.078125 0 9.4375 -2.5 9.4375 -5.15625 C 9.4375 -6.890625 8.40625 -8.15625 6.6875 -8.15625 L 2.859375 -8.15625 C 2.625 -8.15625 2.515625 -8.15625 2.515625 -7.9375 C 2.515625 -7.8125 2.625 -7.8125 2.8125 -7.8125 C 3.53125 -7.8125 3.53125 -7.71875 3.53125 -7.59375 C 3.53125 -7.5625 3.53125 -7.5 3.484375 -7.3125 Z M 4.40625 -7.34375 C 4.5 -7.796875 4.546875 -7.8125 5.015625 -7.8125 L 6.328125 -7.8125 C 7.453125 -7.8125 8.484375 -7.203125 8.484375 -5.5625 C 8.484375 -4.953125 8.25 -2.875 7.09375 -1.5625 C 6.75 -1.171875 5.84375 -0.34375 4.46875 -0.34375 L 3.109375 -0.34375 C 2.9375 -0.34375 2.921875 -0.34375 2.84375 -0.359375 C 2.71875 -0.375 2.703125 -0.390625 2.703125 -0.484375 C 2.703125 -0.578125 2.71875 -0.640625 2.75 -0.75 Z M 4.40625 -7.34375"/>
    <path fill="none" stroke="#000000" stroke-miterlimit="10" stroke-width="1.2" stroke-linejoin="round" transform="matrix(1 0 0 -1 -158 657)" d="M 180 540 L 180 616"/>
    <path fill-rule="evenodd" stroke="#000000" stroke-miterlimit="10" stroke-width="1.2" stroke-linejoin="round" transform="matrix(1 0 0 -1 -158 657)" d="M 180 616 L 177.667969 609 L 182.332031 609 Z M 180 616"/>
    <path transform="matrix(1 0 0 1 1.707 108.998)" d="M 4.875 -2.46875 C 4.875 -2.546875 4.796875 -2.625 4.703125 -2.625 C 4.546875 -2.625 4.53125 -2.5625 4.4375 -2.265625 C 4 -0.703125 3.28125 -0.171875 2.71875 -0.171875 C 2.515625 -0.171875 2.265625 -0.21875 2.265625 -0.734375 C 2.265625 -1.203125 2.484375 -1.71875 2.671875 -2.234375 L 3.875 -5.4375 C 3.921875 -5.578125 4.046875 -5.890625 4.046875 -6.21875 C 4.046875 -6.9375 3.53125 -7.59375 2.6875 -7.59375 C 1.109375 -7.59375 0.46875 -5.09375 0.46875 -4.953125 C 0.46875 -4.890625 0.53125 -4.796875 0.65625 -4.796875 C 0.8125 -4.796875 0.828125 -4.875 0.890625 -5.109375 C 1.3125 -6.5625 1.96875 -7.25 2.640625 -7.25 C 2.796875 -7.25 3.078125 -7.234375 3.078125 -6.6875 C 3.078125 -6.234375 2.859375 -5.671875 2.71875 -5.28125 L 1.515625 -2.078125 C 1.40625 -1.8125 1.3125 -1.53125 1.3125 -1.21875 C 1.3125 -0.453125 1.84375 0.171875 2.671875 0.171875 C 4.25 0.171875 4.875 -2.34375 4.875 -2.46875 Z M 4.734375 -10.75 C 4.734375 -11 4.53125 -11.3125 4.15625 -11.3125 C 3.75 -11.3125 3.3125 -10.9375 3.3125 -10.484375 C 3.3125 -10.0625 3.671875 -9.921875 3.875 -9.921875 C 4.34375 -9.921875 4.734375 -10.359375 4.734375 -10.75 Z M 4.734375 -10.75"/>
    <path transform="matrix(1 0 0 1 7.458 111.58)" d="M 1.875 -0.890625 C 1.765625 -0.46875 1.75 -0.34375 0.90625 -0.34375 C 0.6875 -0.34375 0.5625 -0.34375 0.5625 -0.125 C 0.5625 0 0.640625 0 0.875 0 L 4.65625 0 C 7.078125 0 9.4375 -2.5 9.4375 -5.15625 C 9.4375 -6.890625 8.40625 -8.15625 6.6875 -8.15625 L 2.859375 -8.15625 C 2.625 -8.15625 2.515625 -8.15625 2.515625 -7.9375 C 2.515625 -7.8125 2.625 -7.8125 2.8125 -7.8125 C 3.53125 -7.8125 3.53125 -7.71875 3.53125 -7.59375 C 3.53125 -7.5625 3.53125 -7.5 3.484375 -7.3125 Z M 4.40625 -7.34375 C 4.5 -7.796875 4.546875 -7.8125 5.015625 -7.8125 L 6.328125 -7.8125 C 7.453125 -7.8125 8.484375 -7.203125 8.484375 -5.5625 C 8.484375 -4.953125 8.25 -2.875 7.09375 -1.5625 C 6.75 -1.171875 5.84375 -0.34375 4.46875 -0.34375 L 3.109375 -0.34375 C 2.9375 -0.34375 2.921875 -0.34375 2.84375 -0.359375 C 2.71875 -0.375 2.703125 -0.390625 2.703125 -0.484375 C 2.703125 -0.578125 2.71875 -0.640625 2.75 -0.75 Z M 4.40625 -7.34375"/>
    <path fill-rule="evenodd" d="M 104.199219 46.800781 L 107.800781 46.800781 L 107.800781 43.199219 L 104.199219 43.199219 Z M 104.199219 46.800781"/>
    <path fill="none" stroke="#000000" stroke-miterlimit="10" stroke-width="1.2" stroke-linejoin="round" transform="matrix(1 0 0 -1 -158 657)" d="M 254 628 C 254.667969 630.667969 257.332031 633.332031 265.332031 634.667969 C 273.332031 636 286.667969 636 292.667969 633.332031 C 298.667969 630.667969 297.332031 625.332031 290 622 C 282.667969 618.667969 269.332031 617.332031 261.332031 615.332031 C 253.332031 613.332031 250.667969 610.667969 249.332031 609.332031 C 248 608 248 608 249.332031 610 C 250.667969 612 253.332031 616 254 619.332031 C 254.667969 622.667969 253.332031 625.332031 254 628 Z M 254 628"/>
    <path transform="matrix(1 0 0 1 32.3605 43.1965)" d="M 16.328125 -5.703125 C 16.75 -5.703125 17.203125 -5.703125 17.203125 -6.1875 C 17.203125 -6.6875 16.75 -6.6875 16.328125 -6.6875 L 2.921875 -6.6875 C 2.5 -6.6875 2.0625 -6.6875 2.0625 -6.1875 C 2.0625 -5.703125 2.5 -5.703125 2.921875 -5.703125 Z M 16.328125 -5.703125"/>
    <path transform="matrix(1 0 0 1 33.0785 127.196)" d="M 9.34375 -5.75 L 15.90625 -5.75 C 16.25 -5.75 16.671875 -5.75 16.671875 -6.171875 C 16.671875 -6.609375 16.28125 -6.609375 15.90625 -6.609375 L 9.34375 -6.609375 L 9.34375 -13.1875 C 9.34375 -13.53125 9.34375 -13.953125 8.921875 -13.953125 C 8.46875 -13.953125 8.46875 -13.5625 8.46875 -13.1875 L 8.46875 -6.609375 L 1.90625 -6.609375 C 1.5625 -6.609375 1.140625 -6.609375 1.140625 -6.1875 C 1.140625 -5.75 1.53125 -5.75 1.90625 -5.75 L 8.46875 -5.75 L 8.46875 0.8125 C 8.46875 1.171875 8.46875 1.59375 8.890625 1.59375 C 9.34375 1.59375 9.34375 1.1875 9.34375 0.8125 Z M 9.34375 -5.75"/>
    <path fill="none" stroke="#000000" stroke-miterlimit="10" stroke-width="1.2" stroke-linejoin="round" transform="matrix(1 0 0 -1 -158 657)" d="M 232 632 L 253.503906 618.339844"/>
    <path fill="none" stroke="#000000" stroke-miterlimit="10" stroke-width="1.2" stroke-linejoin="round" transform="matrix(1 0 0 -1 -158 657)" d="M 259.429688 614.605469 L 264 612"/>
    <path fill="#bebebe" fill-rule="evenodd" stroke="#000000" stroke-miterlimit="10" stroke-width="0.8" stroke-linejoin="round" transform="matrix(1 0 0 -1 -158 657)" d="M 224.71875 636.46875 C 225.429688 637.597656 227.269531 638.015625 229.523438 636.59375 C 231.78125 635.171875 234.457031 631.914062 233.746094 630.785156 C 233.035156 629.65625 228.9375 630.660156 226.683594 632.082031 C 224.425781 633.503906 224.007812 635.339844 224.71875 636.46875 Z M 224.71875 636.46875"/>
</svg>
