<svg width="368.75" height="254.16666666666666" viewBox="0 0 177 122" xmlns="http://www.w3.org/2000/svg" xmlns:usvg="https://github.com/RazrFalcon/usvg" usvg:version="0.8.0">
    <defs/>
    <path fill="none" stroke="#000000" stroke-miterlimit="10" stroke-width="1.2" stroke-linejoin="round" transform="matrix(1 0 0 -1 -151 653)" d="M 243.03125 602.5625 C 240.0625 599.292969 240.308594 594.234375 243.582031 591.265625 C 246.851562 588.296875 251.910156 588.542969 254.878906 591.8125"/>
    <path fill="none" stroke="#000000" stroke-miterlimit="10" stroke-width="2" stroke-linejoin="round" transform="matrix(1 0 0 -1 -151 653)" d="M 222.839844 610.078125 L 264.320312 572.453125 L 274.792969 589.953125"/>
    <path fill="none" stroke="#000000" stroke-miterlimit="10" stroke-width="1.2" stroke-linejoin="round" transform="matrix(1 0 0 -1 -151 653)" d="M 216.707031 561.636719 L 189.828125 532.011719"/>
    <path fill="none" stroke="#000000" stroke-miterlimit="10" stroke-width="1.2" stroke-linejoin="round" transform="matrix(1 0 0 -1 -151 653)" d="M 259.703125 609.039062 L 286.578125 638.667969"/>
    <path fill="#bebebe" fill-rule="evenodd" stroke="#000000" stroke-miterlimit="10" stroke-width="1.2" stroke-linejoin="round" transform="matrix(1 0 0 -1 -151 653)" d="M 259.707031 609.039062 L 243.03125 602.5625 L 254.878906 591.8125 Z M 259.707031 609.039062"/>
    <path fill="#bebebe" fill-rule="evenodd" stroke="#000000" stroke-miterlimit="10" stroke-width="2" stroke-linejoin="round" transform="matrix(1 0 0 -1 -151 653)" d="M 246.542969 588.578125 L 240.617188 593.953125 L 198.929688 577.761719 L 234.480469 545.511719 Z M 246.542969 588.578125"/>
    <path transform="matrix(1 0 0 1 131.739514 48.334884)" d="M 4.828125 0.484375 C 4.9375 0.46875 5.203125 0.421875 5.578125 0.765625 L 5.71875 0.609375 C 5.59375 0.484375 5.4375 0.34375 5.3125 0.234375 C 5.15625 0.09375 4.953125 -0.09375 4.828125 -0.203125 L 4.6875 -0.046875 C 4.84375 0.09375 4.8125 0.1875 4.765625 0.234375 C 4.734375 0.28125 4.671875 0.28125 4.625 0.296875 L 3.03125 0.5625 L 3.15625 -1.171875 C 3.15625 -1.265625 3.15625 -1.28125 3.171875 -1.296875 C 3.234375 -1.359375 3.390625 -1.21875 3.484375 -1.140625 L 3.625 -1.296875 C 3.484375 -1.421875 3.21875 -1.671875 3.015625 -1.859375 C 2.859375 -1.984375 2.65625 -2.171875 2.46875 -2.34375 L 2.328125 -2.1875 L 2.421875 -2.109375 C 2.671875 -1.875 2.6875 -1.796875 2.671875 -1.65625 L 2.53125 0.46875 L 1.90625 1.15625 C 1.796875 1.265625 1.765625 1.3125 1.453125 1.046875 L 1.359375 0.953125 L 1.21875 1.109375 C 1.390625 1.234375 1.625 1.4375 1.828125 1.625 C 2.03125 1.8125 2.234375 2 2.40625 2.1875 L 2.546875 2.03125 L 2.4375 1.921875 C 2.140625 1.65625 2.171875 1.609375 2.28125 1.5 L 2.90625 0.8125 Z M 4.828125 0.484375"/>
    <path transform="matrix(1 0 0 1 134.971489 51.266694)" d="M 2.984375 1.28125 C 3.40625 0.8125 3.34375 0.015625 2.75 -0.515625 C 2.171875 -1.046875 1.390625 -1.03125 0.96875 -0.5625 C 0.5625 -0.125 0.640625 0.671875 1.203125 1.1875 C 1.796875 1.71875 2.578125 1.71875 2.984375 1.28125 Z M 1.328125 1.046875 C 0.6875 0.46875 1.203125 -0.078125 1.359375 -0.265625 C 1.5 -0.421875 2 -0.96875 2.640625 -0.390625 C 3.28125 0.1875 2.78125 0.734375 2.640625 0.890625 C 2.484375 1.078125 1.96875 1.625 1.328125 1.046875 Z M 1.328125 1.046875"/>
    <path transform="matrix(1 0 0 1 137.480327 53.542528)" d="M 3.015625 -0.140625 L 2.875 0.015625 C 3.15625 0.265625 3.15625 0.3125 3 0.484375 L 2.453125 1.09375 C 2.140625 1.4375 1.703125 1.40625 1.40625 1.125 C 1.03125 0.78125 1.140625 0.609375 1.3125 0.421875 L 2.421875 -0.78125 L 1.734375 -1.3125 L 1.59375 -1.15625 C 1.890625 -0.890625 1.875 -0.84375 1.71875 -0.65625 L 0.984375 0.15625 C 0.625 0.609375 1.015625 1.015625 1.25 1.21875 C 1.5625 1.5 1.890625 1.515625 2.140625 1.4375 L 1.84375 1.765625 L 2.515625 2.28125 L 2.65625 2.125 C 2.390625 1.875 2.375 1.8125 2.546875 1.625 L 3.6875 0.375 Z M 3.015625 -0.140625"/>
    <path transform="matrix(1 0 0 1 141.988858 57.632336)" d="M 3.0625 -0.046875 C 3.109375 -0.109375 3.15625 -0.15625 3.078125 -0.21875 C 3.078125 -0.234375 3.0625 -0.234375 3.015625 -0.234375 C 2.96875 -0.234375 2.859375 -0.234375 2.84375 -0.25 C 2.828125 -0.25 2.828125 -0.25 2.828125 -0.3125 C 2.78125 -0.421875 2.6875 -0.578125 2.5 -0.75 C 1.875 -1.3125 1.5 -1.140625 1.34375 -0.96875 C 1.03125 -0.625 1.40625 -0.15625 1.703125 0.203125 C 1.875 0.421875 2.171875 0.796875 1.953125 1.03125 C 1.828125 1.15625 1.546875 1.25 1.109375 0.859375 C 0.859375 0.625 0.6875 0.3125 0.9375 -0.1875 C 0.984375 -0.265625 0.984375 -0.28125 0.921875 -0.34375 C 0.84375 -0.40625 0.8125 -0.375 0.734375 -0.296875 L 0.296875 0.171875 C 0.25 0.234375 0.203125 0.28125 0.265625 0.328125 C 0.296875 0.359375 0.3125 0.34375 0.453125 0.34375 L 0.625 0.34375 C 0.671875 0.671875 0.890625 0.890625 0.984375 0.984375 C 1.59375 1.53125 2.015625 1.3125 2.1875 1.125 C 2.34375 0.953125 2.359375 0.765625 2.296875 0.546875 C 2.234375 0.328125 2.125 0.203125 1.859375 -0.125 C 1.671875 -0.375 1.40625 -0.671875 1.59375 -0.859375 C 1.703125 -1 1.984375 -1.015625 2.375 -0.65625 C 2.6875 -0.375 2.765625 -0.09375 2.5625 0.1875 C 2.515625 0.25 2.484375 0.265625 2.5625 0.328125 C 2.640625 0.40625 2.671875 0.390625 2.734375 0.3125 Z M 3.0625 -0.046875"/>
    <path transform="matrix(1 0 0 1 144.010687 59.466391)" d="M 3.21875 0.890625 C 3.578125 0.484375 3.421875 0.125 3.078125 -0.171875 C 2.65625 -0.5625 2.234375 -0.484375 2.09375 -0.453125 L 3.234375 -1.71875 L 2.578125 -2.25 L 2.4375 -2.09375 C 2.71875 -1.828125 2.734375 -1.78125 2.5625 -1.59375 L 0.890625 0.25 C 0.78125 0.359375 0.75 0.40625 0.515625 0.1875 L 0.4375 0.109375 L 0.296875 0.265625 C 0.484375 0.40625 0.625 0.546875 0.796875 0.6875 C 0.9375 0.828125 1.109375 0.96875 1.25 1.140625 L 1.390625 0.984375 L 1.328125 0.921875 C 1.078125 0.6875 1.109375 0.640625 1.21875 0.53125 L 1.796875 -0.109375 C 2.171875 -0.515625 2.671875 -0.296875 2.90625 -0.09375 C 3.1875 0.15625 3.125 0.359375 2.90625 0.59375 L 2.171875 1.40625 C 2.0625 1.515625 2.03125 1.5625 1.78125 1.328125 L 1.71875 1.28125 L 1.578125 1.4375 C 1.75 1.5625 1.90625 1.703125 2.0625 1.84375 C 2.21875 1.984375 2.375 2.125 2.515625 2.28125 L 2.65625 2.125 L 2.59375 2.0625 C 2.34375 1.84375 2.375 1.796875 2.484375 1.6875 Z M 3.21875 0.890625"/>
    <path transform="matrix(1 0 0 1 146.777788 61.976502)" d="M 2.9375 0.65625 C 3.25 0.296875 3.0625 -0.234375 2.59375 -0.65625 C 2.375 -0.859375 1.9375 -1.234375 1.65625 -0.921875 C 1.53125 -0.78125 1.59375 -0.640625 1.671875 -0.546875 C 1.765625 -0.46875 1.921875 -0.453125 2.03125 -0.578125 C 2.109375 -0.65625 2.109375 -0.75 2.109375 -0.8125 C 2.265625 -0.734375 2.4375 -0.578125 2.484375 -0.546875 C 2.796875 -0.25 2.828125 0.09375 2.578125 0.359375 L 2.5 0.453125 C 2.140625 0.15625 1.921875 -0.03125 1.546875 -0.1875 C 1.234375 -0.3125 0.859375 -0.359375 0.640625 -0.109375 C 0.34375 0.21875 0.6875 0.703125 0.984375 0.984375 C 1.265625 1.234375 1.59375 1.328125 1.875 1.21875 C 1.78125 1.390625 1.734375 1.59375 1.921875 1.765625 C 1.9375 1.796875 2.375 2.171875 2.6875 1.828125 L 2.875 1.625 L 2.703125 1.484375 L 2.515625 1.6875 C 2.484375 1.71875 2.34375 1.875 2.203125 1.75 C 2.0625 1.609375 2.203125 1.453125 2.234375 1.421875 Z M 2.0625 0.9375 C 1.703125 1.34375 1.234375 0.96875 1.140625 0.890625 C 0.921875 0.6875 0.8125 0.390625 0.984375 0.21875 C 1.109375 0.078125 1.484375 -0.1875 2.40625 0.5625 Z M 2.0625 0.9375"/>
    <path transform="matrix(1 0 0 1 149.286627 64.252336)" d="M 3.234375 -1.71875 L 2.578125 -2.25 L 2.4375 -2.09375 C 2.71875 -1.828125 2.734375 -1.78125 2.5625 -1.59375 L 0.890625 0.25 C 0.78125 0.359375 0.75 0.40625 0.515625 0.1875 L 0.4375 0.109375 L 0.296875 0.265625 C 0.484375 0.40625 0.625 0.546875 0.78125 0.671875 C 0.9375 0.828125 1.09375 0.953125 1.234375 1.125 L 1.375 0.96875 L 1.3125 0.90625 C 1.0625 0.6875 1.09375 0.640625 1.203125 0.53125 Z M 3.234375 -1.71875"/>
    <path transform="matrix(1 0 0 1 150.769793 65.597756)" d="M 3.234375 -1.71875 L 2.578125 -2.25 L 2.4375 -2.09375 C 2.71875 -1.828125 2.734375 -1.78125 2.5625 -1.59375 L 0.890625 0.25 C 0.78125 0.359375 0.75 0.40625 0.515625 0.1875 L 0.4375 0.109375 L 0.296875 0.265625 C 0.484375 0.40625 0.625 0.546875 0.78125 0.671875 C 0.9375 0.828125 1.09375 0.953125 1.234375 1.125 L 1.375 0.96875 L 1.3125 0.90625 C 1.0625 0.6875 1.09375 0.640625 1.203125 0.53125 Z M 3.234375 -1.71875"/>
    <path transform="matrix(1 0 0 1 127.723712 52.761832)" d="M 3.21875 0.890625 C 3.578125 0.484375 3.421875 0.125 3.078125 -0.171875 C 2.6875 -0.53125 2.28125 -0.5 2.0625 -0.453125 L 2.390625 -0.8125 L 1.734375 -1.3125 L 1.59375 -1.15625 C 1.875 -0.890625 1.875 -0.84375 1.71875 -0.671875 L 0.890625 0.25 C 0.78125 0.359375 0.75 0.40625 0.515625 0.1875 L 0.4375 0.109375 L 0.296875 0.265625 C 0.484375 0.40625 0.625 0.546875 0.796875 0.6875 C 0.9375 0.828125 1.109375 0.96875 1.25 1.140625 L 1.390625 0.984375 L 1.328125 0.921875 C 1.078125 0.6875 1.109375 0.640625 1.21875 0.53125 L 1.796875 -0.109375 C 2.171875 -0.515625 2.671875 -0.296875 2.90625 -0.09375 C 3.1875 0.15625 3.125 0.359375 2.90625 0.59375 L 2.171875 1.40625 C 2.0625 1.515625 2.03125 1.5625 1.78125 1.328125 L 1.71875 1.28125 L 1.578125 1.4375 C 1.75 1.5625 1.90625 1.703125 2.0625 1.84375 C 2.21875 1.984375 2.375 2.125 2.515625 2.28125 L 2.65625 2.125 L 2.59375 2.0625 C 2.34375 1.84375 2.375 1.796875 2.484375 1.6875 Z M 3.21875 0.890625"/>
    <path transform="matrix(1 0 0 1 130.490814 55.271943)" d="M 2.984375 1.28125 C 3.40625 0.8125 3.34375 0.015625 2.75 -0.515625 C 2.171875 -1.046875 1.390625 -1.03125 0.96875 -0.5625 C 0.5625 -0.125 0.640625 0.671875 1.203125 1.1875 C 1.796875 1.71875 2.578125 1.71875 2.984375 1.28125 Z M 1.328125 1.046875 C 0.6875 0.46875 1.203125 -0.078125 1.359375 -0.265625 C 1.5 -0.421875 2 -0.96875 2.640625 -0.390625 C 3.28125 0.1875 2.78125 0.734375 2.640625 0.890625 C 2.484375 1.078125 1.96875 1.625 1.328125 1.046875 Z M 1.328125 1.046875"/>
    <path transform="matrix(1 0 0 1 132.999652 57.547777)" d="M 2.203125 -0.609375 L 2.859375 0 L 3 -0.15625 L 2.34375 -0.765625 L 2.96875 -1.453125 L 2.8125 -1.578125 C 2.5 -1.234375 1.984375 -1.046875 1.59375 -1.375 L 1.484375 -1.25 L 1.875 -0.890625 L 1 0.0625 C 0.625 0.484375 0.875 0.890625 1.109375 1.09375 C 1.390625 1.34375 1.78125 1.328125 2.0625 1.015625 L 2.25 0.8125 L 2.09375 0.671875 L 1.921875 0.875 C 1.65625 1.140625 1.390625 1.109375 1.265625 0.984375 C 0.984375 0.71875 1.25 0.4375 1.328125 0.34375 Z M 2.203125 -0.609375"/>
    <path transform="matrix(1 0 0 1 136.737084 60.938101)" d="M 0.734375 1.671875 L 0.65625 1.609375 C 0.421875 1.390625 0.453125 1.34375 0.546875 1.234375 L 1.078125 0.65625 C 1.109375 0.9375 1.21875 1.203125 1.4375 1.390625 C 2 1.90625 2.796875 1.9375 3.21875 1.46875 C 3.625 1.03125 3.578125 0.28125 3.03125 -0.21875 C 2.734375 -0.484375 2.421875 -0.59375 2.203125 -0.609375 L 2.390625 -0.8125 L 1.71875 -1.328125 L 1.578125 -1.171875 C 1.84375 -0.921875 1.890625 -0.890625 1.75 -0.734375 L 0.21875 0.9375 C 0.125 1.046875 0.09375 1.09375 -0.15625 0.875 L -0.21875 0.8125 L -0.375 0.96875 C -0.203125 1.109375 -0.046875 1.234375 0.109375 1.390625 C 0.265625 1.515625 0.421875 1.671875 0.578125 1.828125 Z M 2.03125 -0.40625 C 2.390625 -0.484375 2.71875 -0.265625 2.859375 -0.140625 C 3.21875 0.1875 3.1875 0.765625 2.84375 1.140625 C 2.484375 1.546875 1.90625 1.578125 1.53125 1.25 C 1.375 1.09375 1.234375 0.84375 1.25 0.5625 C 1.265625 0.453125 1.265625 0.453125 1.34375 0.359375 Z M 2.03125 -0.40625"/>
    <path transform="matrix(1 0 0 1 139.504186 63.448212)" d="M 2.9375 0.65625 C 3.25 0.296875 3.0625 -0.234375 2.59375 -0.65625 C 2.375 -0.859375 1.9375 -1.234375 1.65625 -0.921875 C 1.53125 -0.78125 1.59375 -0.640625 1.671875 -0.546875 C 1.765625 -0.46875 1.921875 -0.453125 2.03125 -0.578125 C 2.109375 -0.65625 2.109375 -0.75 2.109375 -0.8125 C 2.265625 -0.734375 2.4375 -0.578125 2.484375 -0.546875 C 2.796875 -0.25 2.828125 0.09375 2.578125 0.359375 L 2.5 0.453125 C 2.140625 0.15625 1.921875 -0.03125 1.546875 -0.1875 C 1.234375 -0.3125 0.859375 -0.359375 0.640625 -0.109375 C 0.34375 0.21875 0.6875 0.703125 0.984375 0.984375 C 1.265625 1.234375 1.59375 1.328125 1.875 1.21875 C 1.78125 1.390625 1.734375 1.59375 1.921875 1.765625 C 1.9375 1.796875 2.375 2.171875 2.6875 1.828125 L 2.875 1.625 L 2.703125 1.484375 L 2.515625 1.6875 C 2.484375 1.71875 2.34375 1.875 2.203125 1.75 C 2.0625 1.609375 2.203125 1.453125 2.234375 1.421875 Z M 2.0625 0.9375 C 1.703125 1.34375 1.234375 0.96875 1.140625 0.890625 C 0.921875 0.6875 0.8125 0.390625 0.984375 0.21875 C 1.109375 0.078125 1.484375 -0.1875 2.40625 0.5625 Z M 2.0625 0.9375"/>
    <path transform="matrix(1 0 0 1 142.013024 65.724046)" d="M 3.0625 -0.046875 C 3.109375 -0.109375 3.15625 -0.15625 3.078125 -0.21875 C 3.078125 -0.234375 3.0625 -0.234375 3.015625 -0.234375 C 2.96875 -0.234375 2.859375 -0.234375 2.84375 -0.25 C 2.828125 -0.25 2.828125 -0.25 2.828125 -0.3125 C 2.78125 -0.421875 2.6875 -0.578125 2.5 -0.75 C 1.875 -1.3125 1.5 -1.140625 1.34375 -0.96875 C 1.03125 -0.625 1.40625 -0.15625 1.703125 0.203125 C 1.875 0.421875 2.171875 0.796875 1.953125 1.03125 C 1.828125 1.15625 1.546875 1.25 1.109375 0.859375 C 0.859375 0.625 0.6875 0.3125 0.9375 -0.1875 C 0.984375 -0.265625 0.984375 -0.28125 0.921875 -0.34375 C 0.84375 -0.40625 0.8125 -0.375 0.734375 -0.296875 L 0.296875 0.171875 C 0.25 0.234375 0.203125 0.28125 0.265625 0.328125 C 0.296875 0.359375 0.3125 0.34375 0.453125 0.34375 L 0.625 0.34375 C 0.671875 0.671875 0.890625 0.890625 0.984375 0.984375 C 1.59375 1.53125 2.015625 1.3125 2.1875 1.125 C 2.34375 0.953125 2.359375 0.765625 2.296875 0.546875 C 2.234375 0.328125 2.125 0.203125 1.859375 -0.125 C 1.671875 -0.375 1.40625 -0.671875 1.59375 -0.859375 C 1.703125 -1 1.984375 -1.015625 2.375 -0.65625 C 2.6875 -0.375 2.765625 -0.09375 2.5625 0.1875 C 2.515625 0.25 2.484375 0.265625 2.5625 0.328125 C 2.640625 0.40625 2.671875 0.390625 2.734375 0.3125 Z M 3.0625 -0.046875"/>
    <path transform="matrix(1 0 0 1 144.034853 67.558101)" d="M 3.0625 -0.046875 C 3.109375 -0.109375 3.15625 -0.15625 3.078125 -0.21875 C 3.078125 -0.234375 3.0625 -0.234375 3.015625 -0.234375 C 2.96875 -0.234375 2.859375 -0.234375 2.84375 -0.25 C 2.828125 -0.25 2.828125 -0.25 2.828125 -0.3125 C 2.78125 -0.421875 2.6875 -0.578125 2.5 -0.75 C 1.875 -1.3125 1.5 -1.140625 1.34375 -0.96875 C 1.03125 -0.625 1.40625 -0.15625 1.703125 0.203125 C 1.875 0.421875 2.171875 0.796875 1.953125 1.03125 C 1.828125 1.15625 1.546875 1.25 1.109375 0.859375 C 0.859375 0.625 0.6875 0.3125 0.9375 -0.1875 C 0.984375 -0.265625 0.984375 -0.28125 0.921875 -0.34375 C 0.84375 -0.40625 0.8125 -0.375 0.734375 -0.296875 L 0.296875 0.171875 C 0.25 0.234375 0.203125 0.28125 0.265625 0.328125 C 0.296875 0.359375 0.3125 0.34375 0.453125 0.34375 L 0.625 0.34375 C 0.671875 0.671875 0.890625 0.890625 0.984375 0.984375 C 1.59375 1.53125 2.015625 1.3125 2.1875 1.125 C 2.34375 0.953125 2.359375 0.765625 2.296875 0.546875 C 2.234375 0.328125 2.125 0.203125 1.859375 -0.125 C 1.671875 -0.375 1.40625 -0.671875 1.59375 -0.859375 C 1.703125 -1 1.984375 -1.015625 2.375 -0.65625 C 2.6875 -0.375 2.765625 -0.09375 2.5625 0.1875 C 2.515625 0.25 2.484375 0.265625 2.5625 0.328125 C 2.640625 0.40625 2.671875 0.390625 2.734375 0.3125 Z M 3.0625 -0.046875"/>
    <path transform="matrix(1 0 0 1 146.056682 69.392156)" d="M 3.171875 -1.5625 C 3.296875 -1.6875 3.234375 -1.875 3.125 -1.96875 C 3.03125 -2.0625 2.84375 -2.09375 2.71875 -1.96875 C 2.703125 -1.953125 2.65625 -1.890625 2.640625 -1.875 L 1.40625 -0.234375 C 1.34375 -0.171875 1.328125 -0.125 1.390625 -0.0625 C 1.46875 0 1.515625 -0.015625 1.578125 -0.078125 Z M 1.171875 0.65625 C 1.28125 0.53125 1.28125 0.328125 1.140625 0.21875 C 1.03125 0.109375 0.828125 0.125 0.71875 0.25 C 0.609375 0.359375 0.609375 0.5625 0.734375 0.671875 C 0.875 0.78125 1.0625 0.765625 1.171875 0.65625 Z M 1.171875 0.65625"/>
    <path transform="matrix(1 0 0 1 46.973544 36.56356)" d="M 10.15625 0.53125 C 10.890625 -0.28125 10.53125 -0.71875 10.4375 -0.796875 C 10.125 -1.078125 9.5625 -1.03125 9.328125 -0.765625 C 9.1875 -0.609375 9.203125 -0.453125 9.203125 -0.34375 C 9.21875 -0.125 9.234375 0.53125 8.640625 1.203125 C 8.15625 1.734375 4.6875 4.015625 3.140625 2.625 C 2.359375 1.921875 2.8125 1.125 3.25 0.65625 C 3.828125 0.015625 4.90625 -0.609375 6.109375 -1.21875 C 6.78125 -1.546875 6.953125 -1.625 7.171875 -1.890625 C 7.65625 -2.421875 7.71875 -3.25 7.09375 -3.8125 C 5.9375 -4.875 3.765625 -3.453125 3.671875 -3.359375 C 3.625 -3.3125 3.609375 -3.1875 3.703125 -3.109375 C 3.828125 -3 3.890625 -3.046875 4.09375 -3.1875 C 5.40625 -4.015625 6.34375 -4.046875 6.828125 -3.59375 C 6.953125 -3.5 7.15625 -3.3125 6.78125 -2.890625 C 6.46875 -2.5625 6 -2.3125 5.359375 -1.984375 C 3.28125 -0.90625 2.921875 -0.515625 2.640625 -0.203125 C 2.390625 0.078125 1.9375 0.625 2 1.34375 C 2.125 2.15625 2.765625 2.734375 2.875 2.828125 C 5 4.75 9.484375 1.265625 10.15625 0.53125 Z M 10.15625 0.53125"/>
    <path transform="matrix(1 0 0 1 51.27443 43.95107)" d="M 1.984375 0.609375 C 1.625 0.84375 1.53125 0.921875 0.90625 0.359375 C 0.75 0.21875 0.65625 0.125 0.5 0.28125 C 0.421875 0.375 0.46875 0.4375 0.640625 0.59375 L 3.453125 3.125 C 5.25 4.75 8.671875 4.484375 10.453125 2.53125 C 11.609375 1.234375 11.703125 -0.40625 10.4375 -1.546875 L 7.609375 -4.125 C 7.421875 -4.28125 7.34375 -4.359375 7.1875 -4.1875 C 7.109375 -4.09375 7.1875 -4.015625 7.328125 -3.890625 C 7.859375 -3.40625 7.796875 -3.34375 7.71875 -3.25 C 7.6875 -3.21875 7.65625 -3.1875 7.484375 -3.078125 Z M 8.203125 -2.484375 C 8.5625 -2.75 8.625 -2.71875 8.96875 -2.40625 L 9.9375 -1.53125 C 10.765625 -0.78125 11.125 0.375 10.015625 1.578125 C 9.609375 2.03125 8.046875 3.421875 6.296875 3.609375 C 5.78125 3.65625 4.5625 3.671875 3.546875 2.75 L 2.53125 1.84375 C 2.40625 1.71875 2.40625 1.71875 2.34375 1.640625 C 2.265625 1.546875 2.265625 1.515625 2.328125 1.453125 C 2.390625 1.390625 2.453125 1.359375 2.53125 1.28125 Z M 8.203125 -2.484375"/>
    <path fill="none" stroke="#000000" stroke-miterlimit="10" stroke-width="1.2" stroke-linejoin="round" transform="matrix(1 0 0 -1 -151 653)" d="M 164.203125 593.0625 L 215.265625 649.351562"/>
    <path fill-rule="evenodd" stroke="#000000" stroke-miterlimit="10" stroke-width="1.2" stroke-linejoin="round" transform="matrix(1 0 0 -1 -151 653)" d="M 215.265625 649.351562 L 208.835938 645.734375 L 212.289062 642.601562 Z M 215.265625 649.351562"/>
    <path transform="matrix(1 0 0 1 3.549012 40.37651)" d="M 5.265625 1.453125 C 5.328125 1.390625 5.3125 1.28125 5.25 1.21875 C 5.140625 1.125 5.078125 1.15625 4.796875 1.3125 C 3.4375 2.171875 2.546875 2.078125 2.125 1.703125 C 1.96875 1.5625 1.8125 1.359375 2.171875 0.96875 C 2.484375 0.625 3 0.40625 3.484375 0.140625 L 6.53125 -1.421875 C 6.65625 -1.484375 6.953125 -1.640625 7.171875 -1.890625 C 7.65625 -2.421875 7.71875 -3.25 7.09375 -3.8125 C 5.9375 -4.875 3.765625 -3.453125 3.671875 -3.359375 C 3.625 -3.3125 3.609375 -3.1875 3.703125 -3.109375 C 3.828125 -3 3.890625 -3.046875 4.09375 -3.1875 C 5.375 -3.984375 6.328125 -4.046875 6.828125 -3.59375 C 6.953125 -3.5 7.140625 -3.296875 6.78125 -2.890625 C 6.46875 -2.5625 5.9375 -2.28125 5.5625 -2.078125 L 2.515625 -0.53125 C 2.265625 -0.40625 2 -0.265625 1.78125 -0.03125 C 1.265625 0.546875 1.25 1.359375 1.875 1.921875 C 3.03125 2.984375 5.1875 1.546875 5.265625 1.453125 Z M 10.71875 -4.78125 C 10.890625 -4.953125 10.953125 -5.328125 10.671875 -5.578125 C 10.375 -5.859375 9.796875 -5.875 9.5 -5.546875 C 9.21875 -5.234375 9.390625 -4.875 9.546875 -4.734375 C 9.890625 -4.421875 10.453125 -4.484375 10.71875 -4.78125 Z M 10.71875 -4.78125"/>
    <path transform="matrix(1 0 0 1 6.073787 46.152862)" d="M 1.984375 0.609375 C 1.625 0.84375 1.53125 0.921875 0.90625 0.359375 C 0.75 0.21875 0.65625 0.125 0.5 0.28125 C 0.421875 0.375 0.46875 0.4375 0.640625 0.59375 L 3.453125 3.125 C 5.25 4.75 8.671875 4.484375 10.453125 2.53125 C 11.609375 1.234375 11.703125 -0.40625 10.4375 -1.546875 L 7.609375 -4.125 C 7.421875 -4.28125 7.34375 -4.359375 7.1875 -4.1875 C 7.109375 -4.09375 7.1875 -4.015625 7.328125 -3.890625 C 7.859375 -3.40625 7.796875 -3.34375 7.71875 -3.25 C 7.6875 -3.21875 7.65625 -3.1875 7.484375 -3.078125 Z M 8.203125 -2.484375 C 8.5625 -2.75 8.625 -2.71875 8.96875 -2.40625 L 9.9375 -1.53125 C 10.765625 -0.78125 11.125 0.375 10.015625 1.578125 C 9.609375 2.03125 8.046875 3.421875 6.296875 3.609375 C 5.78125 3.65625 4.5625 3.671875 3.546875 2.75 L 2.53125 1.84375 C 2.40625 1.71875 2.40625 1.71875 2.34375 1.640625 C 2.265625 1.546875 2.265625 1.515625 2.328125 1.453125 C 2.390625 1.390625 2.453125 1.359375 2.53125 1.28125 Z M 8.203125 -2.484375"/>
    <path fill-rule="evenodd" d="M 121.992188 64.847656 L 125.59375 64.847656 L 125.59375 61.246094 L 121.992188 61.246094 Z M 121.992188 64.847656"/>
    <path fill="none" stroke="#000000" stroke-miterlimit="10" stroke-width="1.2" stroke-linejoin="round" transform="matrix(1 0 0 -1 -151 653)" d="M 278.136719 608.519531 C 280.421875 610.046875 284.1875 610.230469 291.011719 605.84375 C 297.832031 601.457031 307.707031 592.5 310.359375 586.492188 C 313.011719 580.484375 308.441406 577.433594 300.769531 579.890625 C 293.097656 582.347656 282.328125 590.320312 275.058594 594.210938 C 267.789062 598.105469 264.023438 597.921875 262.136719 597.832031 C 260.253906 597.738281 260.253906 597.738281 262.585938 598.324219 C 264.917969 598.910156 269.582031 600.082031 272.3125 602.101562 C 275.046875 604.125 275.851562 606.996094 278.136719 608.519531 Z M 278.136719 608.519531"/>
    <path transform="matrix(1 0 0 1 70.462893 12.23468)" d="M 15.921875 6.75 C 16.234375 7.03125 16.5625 7.34375 16.890625 6.984375 C 17.234375 6.609375 16.90625 6.296875 16.59375 6.015625 L 6.671875 -2.984375 C 6.359375 -3.265625 6.03125 -3.5625 5.6875 -3.1875 C 5.359375 -2.828125 5.6875 -2.53125 6 -2.25 Z M 15.921875 6.75"/>
    <path transform="matrix(1 0 0 1 14.558193 74.932989)" d="M 10.78125 2.015625 L 15.640625 6.421875 C 15.890625 6.65625 16.203125 6.9375 16.484375 6.625 C 16.78125 6.3125 16.5 6.046875 16.21875 5.796875 L 11.359375 1.390625 L 15.78125 -3.484375 C 16.015625 -3.734375 16.296875 -4.046875 15.984375 -4.328125 C 15.640625 -4.640625 15.375 -4.359375 15.125 -4.078125 L 10.703125 0.796875 L 5.84375 -3.609375 C 5.59375 -3.84375 5.28125 -4.125 5 -3.8125 C 4.703125 -3.5 5 -3.234375 5.265625 -2.984375 L 10.125 1.421875 L 5.71875 6.296875 C 5.484375 6.5625 5.1875 6.875 5.5 7.15625 C 5.84375 7.46875 6.125 7.15625 6.375 6.890625 Z M 10.78125 2.015625"/>
    <path fill="none" stroke="#000000" stroke-miterlimit="10" stroke-width="1.2" stroke-linejoin="round" transform="matrix(1 0 0 -1 -151 653)" d="M 264.53125 626.265625 L 271.277344 601.699219"/>
    <path fill="none" stroke="#000000" stroke-miterlimit="10" stroke-width="1.2" stroke-linejoin="round" transform="matrix(1 0 0 -1 -151 653)" d="M 273.160156 594.953125 L 274.792969 589.953125"/>
    <path fill="#bebebe" fill-rule="evenodd" stroke="#000000" stroke-miterlimit="10" stroke-width="0.8" stroke-linejoin="round" transform="matrix(1 0 0 -1 -151 653)" d="M 262.140625 634.46875 C 263.425781 634.824219 265.066406 633.898438 265.785156 631.332031 C 266.5 628.761719 266.289062 624.550781 265.007812 624.191406 C 263.722656 623.835938 261.363281 627.328125 260.644531 629.898438 C 259.929688 632.464844 260.855469 634.109375 262.140625 634.46875 Z M 262.140625 634.46875"/>
</svg>
