<svg xmlns:xlink="http://www.w3.org/1999/xlink" xmlns="http://www.w3.org/2000/svg" width="1077.0" height="602.0">
  <desc>Created by CircuitLab https://www.circuitlab.com/</desc><g transform="scale(1.077000) matrix(0.928505106778,0,0,0.928505106778,-1995.35747447,-1020.42711235)">
    <rect x="2150" y="1100" width="1075" height="600" r="0" rx="0" ry="0" fill="none" stroke="none" style="stroke-opacity: 0;"/>
    <path style="stroke-linejoin: round;" fill="#000000" stroke="#000000" d="M0,50L12,36L29.333333333333332,36Z" stroke-width="2" stroke-linejoin="round" transform="translate(3150,1325)"/>
    <path style="stroke-linejoin: round;" fill="#000000" stroke="#000000" d="M0,50L12,36L26,36Z" stroke-width="2" stroke-linejoin="round" transform="matrix(-1,0,0,1,2800,1325)"/>
    <path style="stroke-linejoin: round;" fill="#000000" stroke="#000000" d="M0,50L12,36L26.666666666666664,36Z" stroke-width="2" stroke-linejoin="round" transform="translate(2975,1100)"/>
    <path style="stroke-linejoin: round;" fill="#000000" stroke="#000000" d="M0,50L12,36L26.666666666666664,36Z" stroke-width="2" stroke-linejoin="round" transform="translate(2500,1100)"/>
    <path style="stroke-linejoin: round;" fill="#000000" stroke="#000000" d="M0,50L12,36L25.333333333333336,36Z" stroke-width="2" stroke-linejoin="round" transform="matrix(1,0,0,-1,2500,1700)"/>
    <path style="stroke-linecap: round; stroke-miterlimit: 6;" fill="none" stroke="#000000" d="M0,50L12.5,50" stroke-width="2" stroke-linecap="round" stroke-miterlimit="6" transform="translate(2400,1325)"/>
    <path style="stroke-linecap: round; stroke-miterlimit: 6;" fill="none" stroke="#000000" d="M12.5,87.5L12.5,12.5" stroke-width="2" stroke-linecap="round" stroke-miterlimit="6" transform="translate(2400,1325)"/>
    <path style="stroke-linecap: round; stroke-miterlimit: 6;" fill="none" stroke="#000000" d="M12.5,32.81249L50,12.5" stroke-width="2" stroke-linecap="round" stroke-miterlimit="6" transform="translate(2400,1325)"/>
    <path style="stroke-linecap: round; stroke-miterlimit: 6;" fill="none" stroke="#000000" d="M50,0L50,12.5" stroke-width="2" stroke-linecap="round" stroke-miterlimit="6" transform="translate(2400,1325)"/>
    <path style="stroke-linecap: round; stroke-miterlimit: 6;" fill="none" stroke="#000000" d="M12.5,67.18752L50,87.5" stroke-width="2" stroke-linecap="round" stroke-miterlimit="6" transform="translate(2400,1325)"/>
    <path style="stroke-linecap: round; stroke-miterlimit: 6;" fill="none" stroke="#000000" d="M50,100L50,87.5" stroke-width="2" stroke-linecap="round" stroke-miterlimit="6" transform="translate(2400,1325)"/>
    <path fill="#000000" stroke="none" d="M27.931232,81.97502C36.649984,82.49792,38.679151,83.67082,50,87.5C41.0229,79.61042,38.993733,78.43962,34.181237,71.15002C33.189565,75.98962,31.627079,78.69792,27.931232,81.97502" transform="translate(2400,1325)"/>
    <text style="font-family: 'Noto Sans',Tahoma,Verdana,Arial,sans-serif; font-size: 16px; font-weight: bold; text-anchor: start; font-stretch: extra-condensed;" x="0" y="0" text-anchor="start" stroke="none" fill="#000000" transform="translate(2450,1375)">
      <tspan dy="7.2">Q1</tspan>
    </text>
    <path style="stroke-linecap: round; stroke-miterlimit: 6;" fill="none" stroke="#000000" d="M0,50L12.5,50" stroke-width="2" stroke-linecap="round" stroke-miterlimit="6" transform="matrix(-1,0,0,1,2600,1325)"/>
    <path style="stroke-linecap: round; stroke-miterlimit: 6;" fill="none" stroke="#000000" d="M12.5,87.5L12.5,12.5" stroke-width="2" stroke-linecap="round" stroke-miterlimit="6" transform="matrix(-1,0,0,1,2600,1325)"/>
    <path style="stroke-linecap: round; stroke-miterlimit: 6;" fill="none" stroke="#000000" d="M12.5,32.81249L50,12.5" stroke-width="2" stroke-linecap="round" stroke-miterlimit="6" transform="matrix(-1,0,0,1,2600,1325)"/>
    <path style="stroke-linecap: round; stroke-miterlimit: 6;" fill="none" stroke="#000000" d="M50,0L50,12.5" stroke-width="2" stroke-linecap="round" stroke-miterlimit="6" transform="matrix(-1,0,0,1,2600,1325)"/>
    <path style="stroke-linecap: round; stroke-miterlimit: 6;" fill="none" stroke="#000000" d="M12.5,67.18752L50,87.5" stroke-width="2" stroke-linecap="round" stroke-miterlimit="6" transform="matrix(-1,0,0,1,2600,1325)"/>
    <path style="stroke-linecap: round; stroke-miterlimit: 6;" fill="none" stroke="#000000" d="M50,100L50,87.5" stroke-width="2" stroke-linecap="round" stroke-miterlimit="6" transform="matrix(-1,0,0,1,2600,1325)"/>
    <path fill="#000000" stroke="none" d="M27.931232,81.97502C36.649984,82.49792,38.679151,83.67082,50,87.5C41.0229,79.61042,38.993733,78.43962,34.181237,71.15002C33.189565,75.98962,31.627079,78.69792,27.931232,81.97502" transform="matrix(-1,0,0,1,2600,1325)"/>
    <text style="font-family: 'Noto Sans',Tahoma,Verdana,Arial,sans-serif; font-size: 16px; font-weight: bold; text-anchor: end; font-stretch: extra-condensed;" x="0" y="0" text-anchor="end" stroke="none" fill="#000000" transform="translate(2550,1375)">
      <tspan dy="7.2">Q2</tspan>
    </text>
    <path style="stroke-linecap: round; stroke-miterlimit: 6;" fill="none" stroke="#000000" d="M25,21.87499L25,0" stroke-width="2" stroke-linecap="round" stroke-miterlimit="6" transform="translate(2500,1525)"/>
    <path style="stroke-linecap: round; stroke-miterlimit: 6;" fill="none" stroke="#000000" d="M25,78.12502L25,100" stroke-width="2" stroke-linecap="round" stroke-miterlimit="6" transform="translate(2500,1525)"/>
    <path style="stroke-linecap: round; stroke-miterlimit: 6;" fill="none" stroke="#000000" d="M25,21.87499L14.062504,26.56249L35.937495,35.93748L14.062504,45.31248L35.937495,54.68752L14.062504,64.06252L35.937495,73.43752L25,78.12502" stroke-width="2" stroke-linecap="round" stroke-miterlimit="6" transform="translate(2500,1525)"/>
    <text style="font-family: 'Noto Sans',Tahoma,Verdana,Arial,sans-serif; font-size: 16px; font-weight: bold; text-anchor: start; font-stretch: extra-condensed;" x="0" y="0" text-anchor="start" stroke="none" fill="#000000" transform="translate(2543.75,1575)">
      <tspan dy="7.2">RE</tspan>
    </text>
    <path style="stroke-linecap: round;" fill="none" stroke="#000000" d="M 2450 1425 L 2450 1450" stroke-width="2" stroke-linecap="round" class="cl_wire"/>
    <path style="stroke-linecap: round;" fill="none" stroke="#000000" d="M 2550 1425 L 2550 1450" stroke-width="2" stroke-linecap="round" class="cl_wire"/>
    <path style="stroke-linecap: round;" fill="none" stroke="#000000" d="M 2500 1625 L 2500 1650" stroke-width="2" stroke-linecap="round" class="cl_wire"/>
    <rect x="7" y="7" width="40" height="29" r="5" rx="5" ry="5" fill="#ffffff" stroke="#000000" stroke-width="2" transform="matrix(1,0,0,-1,2500,1700)"/>
    <text style="font-family: 'Noto Sans',Tahoma,Verdana,Arial,sans-serif; font-size: 16px; font-weight: bold; text-anchor: start; font-stretch: extra-condensed;" x="12" y="22" text-anchor="start" stroke="none" fill="#000000" transform="translate(2500,1653.6)">
      <tspan dy="7.2">-5 V</tspan>
    </text>
    <path style="stroke-linecap: round; stroke-miterlimit: 6;" fill="none" stroke="#000000" d="M25,21.87499L25,0" stroke-width="2" stroke-linecap="round" stroke-miterlimit="6" transform="matrix(-1,0,0,1,2475,1175)"/>
    <path style="stroke-linecap: round; stroke-miterlimit: 6;" fill="none" stroke="#000000" d="M25,78.12502L25,100" stroke-width="2" stroke-linecap="round" stroke-miterlimit="6" transform="matrix(-1,0,0,1,2475,1175)"/>
    <path style="stroke-linecap: round; stroke-miterlimit: 6;" fill="none" stroke="#000000" d="M25,21.87499L14.062504,26.56249L35.937495,35.93748L14.062504,45.31248L35.937495,54.68752L14.062504,64.06252L35.937495,73.43752L25,78.12502" stroke-width="2" stroke-linecap="round" stroke-miterlimit="6" transform="matrix(-1,0,0,1,2475,1175)"/>
    <text style="font-family: 'Noto Sans',Tahoma,Verdana,Arial,sans-serif; font-size: 16px; font-weight: bold; text-anchor: end; font-stretch: extra-condensed;" x="0" y="0" text-anchor="end" stroke="none" fill="#000000" transform="translate(2431.25,1225)">
      <tspan dy="7.2">Rc</tspan>
    </text>
    <path style="stroke-linecap: round; stroke-miterlimit: 6;" fill="none" stroke="#000000" d="M25,21.87499L25,0" stroke-width="2" stroke-linecap="round" stroke-miterlimit="6" transform="translate(2525,1175)"/>
    <path style="stroke-linecap: round; stroke-miterlimit: 6;" fill="none" stroke="#000000" d="M25,78.12502L25,100" stroke-width="2" stroke-linecap="round" stroke-miterlimit="6" transform="translate(2525,1175)"/>
    <path style="stroke-linecap: round; stroke-miterlimit: 6;" fill="none" stroke="#000000" d="M25,21.87499L14.062504,26.56249L35.937495,35.93748L14.062504,45.31248L35.937495,54.68752L14.062504,64.06252L35.937495,73.43752L25,78.12502" stroke-width="2" stroke-linecap="round" stroke-miterlimit="6" transform="translate(2525,1175)"/>
    <text style="font-family: 'Noto Sans',Tahoma,Verdana,Arial,sans-serif; font-size: 16px; font-weight: bold; text-anchor: start; font-stretch: extra-condensed;" x="0" y="0" text-anchor="start" stroke="none" fill="#000000" transform="translate(2568.75,1225)">
      <tspan dy="7.2">Rc</tspan>
    </text>
    <path style="stroke-linecap: round;" fill="none" stroke="#000000" d="M 2550 1275 L 2550 1325" stroke-width="2" stroke-linecap="round" class="cl_wire"/>
    <path style="stroke-linecap: round;" fill="none" stroke="#000000" d="M 2450 1275 L 2450 1325" stroke-width="2" stroke-linecap="round" class="cl_wire"/>
    <path style="stroke-linecap: round;" fill="none" stroke="#000000" d="M 2450 1175 L 2550 1175" stroke-width="2" stroke-linecap="round" class="cl_wire"/>
    <path style="stroke-linecap: round;" fill="none" stroke="#000000" d="M 2500 1150 L 2500 1175" stroke-width="2" stroke-linecap="round" class="cl_wire"/>
    <rect x="7" y="7" width="44" height="29" r="5" rx="5" ry="5" fill="#ffffff" stroke="#000000" stroke-width="2" transform="translate(2500,1100)"/>
    <text style="font-family: 'Noto Sans',Tahoma,Verdana,Arial,sans-serif; font-size: 16px; font-weight: bold; text-anchor: start; font-stretch: extra-condensed;" x="12" y="22" text-anchor="start" stroke="none" fill="#000000" transform="translate(2500,1100)">
      <tspan dy="7.2">+5 V</tspan>
    </text>
    <path style="stroke-linecap: round;" fill="none" stroke="#000000" d="M 2600 1375 L 2625 1375" stroke-width="2" stroke-linecap="round" class="cl_wire"/>
    <path style="stroke-linecap: round;" fill="none" stroke="#000000" d="M 2450 1450 L 2550 1450" stroke-width="2" stroke-linecap="round" class="cl_wire"/>
    <path style="stroke-linecap: round; stroke-linejoin: round;" fill="#0000ff" stroke="#0000ff" d="M2425,1250L2425,1300L2430.7003357220947,1284.3384563202349L2419.2996642779053,1284.3384563202349L2425,1300" stroke-width="2" stroke-linecap="round" stroke-linejoin="round"/>
    <path style="stroke-linecap: round; stroke-linejoin: round;" fill="#0000ff" stroke="#0000ff" d="M2575,1250L2575,1300L2580.7003357220947,1284.3384563202349L2569.2996642779053,1284.3384563202349L2575,1300" stroke-width="2" stroke-linecap="round" stroke-linejoin="round"/>
    <text style="font-family: 'Noto Sans',Tahoma,Verdana,Arial,sans-serif; font-size: 16px; font-weight: bold; text-anchor: start; font-style: normal; font-stretch: extra-condensed;" x="0" y="0" text-anchor="start" stroke="none" fill="#0000ff" font-style="normal" transform="translate(2400,1284)">
      <tspan dy="7.2">ic</tspan>
    </text>
    <text style="font-family: 'Noto Sans',Tahoma,Verdana,Arial,sans-serif; font-size: 16px; font-weight: bold; text-anchor: start; font-style: normal; font-stretch: extra-condensed;" x="0" y="0" text-anchor="start" stroke="none" fill="#0000ff" font-style="normal" transform="translate(2600,1284)">
      <tspan dy="7.2">ic</tspan>
    </text>
    <path style="stroke-linecap: round; stroke-miterlimit: 6;" fill="#ffffff" stroke="#000000" d="M50,50C50,36.19373,38.806233,25,25,25C11.193742,25,0,36.19373,0,50C0,63.80632,11.193742,75,25,75C38.806233,75,50,63.80632,50,50" stroke-width="2" stroke-linecap="round" stroke-miterlimit="6" transform="matrix(-1,0,0,1,2500,1525)"/>
    <path style="stroke-linecap: round; stroke-miterlimit: 6;" fill="none" stroke="#000000" d="M25,0.00002L25,25" stroke-width="2" stroke-linecap="round" stroke-miterlimit="6" transform="matrix(-1,0,0,1,2500,1525)"/>
    <path style="stroke-linecap: round; stroke-miterlimit: 6;" fill="none" stroke="#000000" d="M25,100L25,75" stroke-width="2" stroke-linecap="round" stroke-miterlimit="6" transform="matrix(-1,0,0,1,2500,1525)"/>
    <path style="stroke-linecap: round; stroke-miterlimit: 6;" fill="none" stroke="#000000" d="M25,56.49892L25,35.05936" stroke-width="1.49310875" stroke-linecap="round" stroke-miterlimit="6" transform="matrix(-1,0,0,1,2500,1525)"/>
    <path fill="#000000" stroke="none" d="M20.099545,48.53562C23.162335,54.66122,23.162335,56.49892,25,65.68722C26.837665,56.49892,26.837665,54.66122,29.900455,48.53562C26.225105,49.76072,23.774885,49.76072,20.099545,48.53562" transform="matrix(-1,0,0,1,2500,1525)"/>
    <text style="font-family: 'Noto Sans',Tahoma,Verdana,Arial,sans-serif; font-size: 16px; font-weight: bold; text-anchor: end; font-stretch: extra-condensed;" x="0" y="0" text-anchor="end" stroke="none" fill="#000000" transform="translate(2443.75,1575)">
      <tspan dy="7.2">Itail</tspan>
    </text>
    <path style="stroke-linecap: round;" fill="none" stroke="#000000" d="M 2475 1525 L 2525 1525" stroke-width="2" stroke-linecap="round" class="cl_wire"/>
    <path style="stroke-linecap: round;" fill="none" stroke="#000000" d="M 2500 1450 L 2500 1468 A 7 7 0 1 1 2500 1482 L 2500 1525" stroke-width="2" stroke-linecap="round" class="cl_wire"/>
    <path style="stroke-linecap: round;" fill="none" stroke="#000000" d="M 2475 1625 L 2525 1625" stroke-width="2" stroke-linecap="round" class="cl_wire"/>
    <path style="stroke-linecap: round; stroke-miterlimit: 6;" fill="none" stroke="#000000" d="M0,50L12.5,50" stroke-width="2" stroke-linecap="round" stroke-miterlimit="6" transform="translate(2825,1325)"/>
    <path style="stroke-linecap: round; stroke-miterlimit: 6;" fill="none" stroke="#000000" d="M12.5,87.5L12.5,12.5" stroke-width="2" stroke-linecap="round" stroke-miterlimit="6" transform="translate(2825,1325)"/>
    <path style="stroke-linecap: round; stroke-miterlimit: 6;" fill="none" stroke="#000000" d="M12.5,32.81249L50,12.5" stroke-width="2" stroke-linecap="round" stroke-miterlimit="6" transform="translate(2825,1325)"/>
    <path style="stroke-linecap: round; stroke-miterlimit: 6;" fill="none" stroke="#000000" d="M50,0L50,12.5" stroke-width="2" stroke-linecap="round" stroke-miterlimit="6" transform="translate(2825,1325)"/>
    <path style="stroke-linecap: round; stroke-miterlimit: 6;" fill="none" stroke="#000000" d="M12.5,67.18752L50,87.5" stroke-width="2" stroke-linecap="round" stroke-miterlimit="6" transform="translate(2825,1325)"/>
    <path style="stroke-linecap: round; stroke-miterlimit: 6;" fill="none" stroke="#000000" d="M50,100L50,87.5" stroke-width="2" stroke-linecap="round" stroke-miterlimit="6" transform="translate(2825,1325)"/>
    <path fill="#000000" stroke="none" d="M27.931232,81.97502C36.649984,82.49792,38.679151,83.67082,50,87.5C41.0229,79.61042,38.993733,78.43962,34.181237,71.15002C33.189565,75.98962,31.627079,78.69792,27.931232,81.97502" transform="translate(2825,1325)"/>
    <text style="font-family: 'Noto Sans',Tahoma,Verdana,Arial,sans-serif; font-size: 16px; font-weight: bold; text-anchor: start; font-stretch: extra-condensed;" x="0" y="0" text-anchor="start" stroke="none" fill="#000000" transform="translate(2875,1375)">
      <tspan dy="7.2">Q3</tspan>
    </text>
    <path style="stroke-linecap: round; stroke-miterlimit: 6;" fill="none" stroke="#000000" d="M0,50L12.5,50" stroke-width="2" stroke-linecap="round" stroke-miterlimit="6" transform="matrix(-1,0,0,1,3125,1325)"/>
    <path style="stroke-linecap: round; stroke-miterlimit: 6;" fill="none" stroke="#000000" d="M12.5,87.5L12.5,12.5" stroke-width="2" stroke-linecap="round" stroke-miterlimit="6" transform="matrix(-1,0,0,1,3125,1325)"/>
    <path style="stroke-linecap: round; stroke-miterlimit: 6;" fill="none" stroke="#000000" d="M12.5,32.81249L50,12.5" stroke-width="2" stroke-linecap="round" stroke-miterlimit="6" transform="matrix(-1,0,0,1,3125,1325)"/>
    <path style="stroke-linecap: round; stroke-miterlimit: 6;" fill="none" stroke="#000000" d="M50,0L50,12.5" stroke-width="2" stroke-linecap="round" stroke-miterlimit="6" transform="matrix(-1,0,0,1,3125,1325)"/>
    <path style="stroke-linecap: round; stroke-miterlimit: 6;" fill="none" stroke="#000000" d="M12.5,67.18752L50,87.5" stroke-width="2" stroke-linecap="round" stroke-miterlimit="6" transform="matrix(-1,0,0,1,3125,1325)"/>
    <path style="stroke-linecap: round; stroke-miterlimit: 6;" fill="none" stroke="#000000" d="M50,100L50,87.5" stroke-width="2" stroke-linecap="round" stroke-miterlimit="6" transform="matrix(-1,0,0,1,3125,1325)"/>
    <path fill="#000000" stroke="none" d="M27.931232,81.97502C36.649984,82.49792,38.679151,83.67082,50,87.5C41.0229,79.61042,38.993733,78.43962,34.181237,71.15002C33.189565,75.98962,31.627079,78.69792,27.931232,81.97502" transform="matrix(-1,0,0,1,3125,1325)"/>
    <text style="font-family: 'Noto Sans',Tahoma,Verdana,Arial,sans-serif; font-size: 16px; font-weight: bold; text-anchor: end; font-stretch: extra-condensed;" x="0" y="0" text-anchor="end" stroke="none" fill="#000000" transform="translate(3075,1375)">
      <tspan dy="7.2">Q4</tspan>
    </text>
    <path style="stroke-linecap: round; stroke-miterlimit: 6;" fill="none" stroke="#000000" d="M25,21.87499L25,0" stroke-width="2" stroke-linecap="round" stroke-miterlimit="6" transform="matrix(-1,0,0,1,2900,1175)"/>
    <path style="stroke-linecap: round; stroke-miterlimit: 6;" fill="none" stroke="#000000" d="M25,78.12502L25,100" stroke-width="2" stroke-linecap="round" stroke-miterlimit="6" transform="matrix(-1,0,0,1,2900,1175)"/>
    <path style="stroke-linecap: round; stroke-miterlimit: 6;" fill="none" stroke="#000000" d="M25,21.87499L14.062504,26.56249L35.937495,35.93748L14.062504,45.31248L35.937495,54.68752L14.062504,64.06252L35.937495,73.43752L25,78.12502" stroke-width="2" stroke-linecap="round" stroke-miterlimit="6" transform="matrix(-1,0,0,1,2900,1175)"/>
    <text style="font-family: 'Noto Sans',Tahoma,Verdana,Arial,sans-serif; font-size: 16px; font-weight: bold; text-anchor: end; font-stretch: extra-condensed;" x="0" y="0" text-anchor="end" stroke="none" fill="#000000" transform="translate(2856.25,1225)">
      <tspan dy="7.2">Rc</tspan>
    </text>
    <path style="stroke-linecap: round; stroke-miterlimit: 6;" fill="none" stroke="#000000" d="M25,21.87499L25,0" stroke-width="2" stroke-linecap="round" stroke-miterlimit="6" transform="translate(3050,1175)"/>
    <path style="stroke-linecap: round; stroke-miterlimit: 6;" fill="none" stroke="#000000" d="M25,78.12502L25,100" stroke-width="2" stroke-linecap="round" stroke-miterlimit="6" transform="translate(3050,1175)"/>
    <path style="stroke-linecap: round; stroke-miterlimit: 6;" fill="none" stroke="#000000" d="M25,21.87499L14.062504,26.56249L35.937495,35.93748L14.062504,45.31248L35.937495,54.68752L14.062504,64.06252L35.937495,73.43752L25,78.12502" stroke-width="2" stroke-linecap="round" stroke-miterlimit="6" transform="translate(3050,1175)"/>
    <text style="font-family: 'Noto Sans',Tahoma,Verdana,Arial,sans-serif; font-size: 16px; font-weight: bold; text-anchor: start; font-stretch: extra-condensed;" x="0" y="0" text-anchor="start" stroke="none" fill="#000000" transform="translate(3093.75,1225)">
      <tspan dy="7.2">Rc</tspan>
    </text>
    <path style="stroke-linecap: round;" fill="none" stroke="#000000" d="M 3075 1275 L 3075 1325" stroke-width="2" stroke-linecap="round" class="cl_wire"/>
    <path style="stroke-linecap: round;" fill="none" stroke="#000000" d="M 2875 1275 L 2875 1325" stroke-width="2" stroke-linecap="round" class="cl_wire"/>
    <path style="stroke-linecap: round;" fill="none" stroke="#000000" d="M 2875 1175 L 3075 1175" stroke-width="2" stroke-linecap="round" class="cl_wire"/>
    <path style="stroke-linecap: round;" fill="none" stroke="#000000" d="M 2975 1150 L 2975 1175" stroke-width="2" stroke-linecap="round" class="cl_wire"/>
    <rect x="7" y="7" width="44" height="29" r="5" rx="5" ry="5" fill="#ffffff" stroke="#000000" stroke-width="2" transform="translate(2975,1100)"/>
    <text style="font-family: 'Noto Sans',Tahoma,Verdana,Arial,sans-serif; font-size: 16px; font-weight: bold; text-anchor: start; font-stretch: extra-condensed;" x="12" y="22" text-anchor="start" stroke="none" fill="#000000" transform="translate(2975,1100)">
      <tspan dy="7.2">+5 V</tspan>
    </text>
    <path style="stroke-linecap: round;" fill="none" stroke="#000000" d="M 2800 1375 L 2825 1375" stroke-width="2" stroke-linecap="round" class="cl_wire"/>
    <path style="stroke-linecap: round;" fill="none" stroke="#000000" d="M 3125 1375 L 3150 1375" stroke-width="2" stroke-linecap="round" class="cl_wire"/>
    <rect x="7" y="7" width="42" height="29" r="5" rx="5" ry="5" fill="#ffffff" stroke="#000000" stroke-width="2" transform="matrix(-1,0,0,1,2800,1325)"/>
    <text style="font-family: 'Noto Sans',Tahoma,Verdana,Arial,sans-serif; font-size: 16px; font-weight: bold; text-anchor: end; font-stretch: extra-condensed;" x="12" y="22" text-anchor="end" stroke="none" fill="#000000" transform="translate(2776,1325)">
      <tspan dy="7.2">vd/2</tspan>
    </text>
    <path style="stroke-linecap: round; stroke-linejoin: round;" fill="#0000ff" stroke="#0000ff" d="M2850,1250L2850,1300L2855.7003357220947,1284.3384563202349L2844.2996642779053,1284.3384563202349L2850,1300" stroke-width="2" stroke-linecap="round" stroke-linejoin="round"/>
    <path style="stroke-linecap: round; stroke-linejoin: round;" fill="#0000ff" stroke="#0000ff" d="M3100,1250L3100,1300L3105.7003357220947,1284.3384563202349L3094.2996642779053,1284.3384563202349L3100,1300" stroke-width="2" stroke-linecap="round" stroke-linejoin="round"/>
    <text style="font-family: 'Noto Sans',Tahoma,Verdana,Arial,sans-serif; font-size: 16px; font-weight: bold; text-anchor: start; font-style: normal; font-stretch: extra-condensed;" x="0" y="0" text-anchor="start" stroke="none" fill="#0000ff" font-style="normal" transform="translate(2825,1284)">
      <tspan dy="7.2">ic</tspan>
    </text>
    <text style="font-family: 'Noto Sans',Tahoma,Verdana,Arial,sans-serif; font-size: 16px; font-weight: bold; text-anchor: start; font-style: normal; font-stretch: extra-condensed;" x="0" y="0" text-anchor="start" stroke="none" fill="#0000ff" font-style="normal" transform="translate(3125,1284)">
      <tspan dy="7.2">ic</tspan>
    </text>
    <rect x="7" y="7" width="52" height="29" r="5" rx="5" ry="5" fill="#ffffff" stroke="#000000" stroke-width="2" transform="translate(3150,1325)"/>
    <text style="font-family: 'Noto Sans',Tahoma,Verdana,Arial,sans-serif; font-size: 16px; font-weight: bold; text-anchor: start; font-stretch: extra-condensed;" x="12" y="22" text-anchor="start" stroke="none" fill="#000000" transform="translate(3150,1325)">
      <tspan dy="7.2"> - vd/2</tspan>
    </text>
    <path style="stroke-linecap: round; stroke-miterlimit: 6;" fill="#ffffff" stroke="#000000" d="M50,50C50,36.19374,38.806255,25,25,25C11.193755,25,0,36.19374,0,50C0,63.80632,11.193755,75,25,75C38.806255,75,50,63.80632,50,50" stroke-width="2" stroke-linecap="round" stroke-miterlimit="6" transform="translate(2275,1375)"/>
    <path style="stroke-linecap: round; stroke-miterlimit: 6;" fill="none" stroke="#000000" d="M25,0L25,25" stroke-width="2" stroke-linecap="round" stroke-miterlimit="6" transform="translate(2275,1375)"/>
    <path style="stroke-linecap: round; stroke-miterlimit: 6;" fill="none" stroke="#000000" d="M25,100.00002L25,75" stroke-width="2" stroke-linecap="round" stroke-miterlimit="6" transform="translate(2275,1375)"/>
    <path style="font-size: 15px; font-weight: normal;" fill="#000000" stroke="none" d="M25.84227,33.168L24.157737,33.168L24.157737,40.48806L16.898932,40.48806L16.898932,42.17259L24.157737,42.17259L24.157737,49.49262L25.84227,49.49262L25.84227,42.17259L33.101076,42.17259L33.101076,40.48806L25.84227,40.48806L25.84227,33.168" font-size="15px" font-weight="normal" transform="translate(2275,1375)"/>
    <path style="font-size: 15px; font-weight: normal;" fill="#000000" stroke="none" d="M17.006089,60.39372L17.006089,62.07822L33.055093,62.07822L33.055093,60.39372L17.006089,60.39372" font-size="15px" font-weight="normal" transform="translate(2275,1375)"/>
    <text style="font-family: 'Noto Sans',Tahoma,Verdana,Arial,sans-serif; font-size: 16px; font-weight: bold; text-anchor: start; font-stretch: extra-condensed;" x="0" y="0" text-anchor="start" stroke="none" fill="#000000" transform="translate(2331.25,1425)">
      <tspan dy="7.2">Vd/2</tspan>
    </text>
    <path style="stroke-linecap: round; stroke-miterlimit: 6;" fill="#ffffff" stroke="#000000" d="M50,50C50,36.19374,38.806255,25,25,25C11.193755,25,0,36.19374,0,50C0,63.80632,11.193755,75,25,75C38.806255,75,50,63.80632,50,50" stroke-width="2" stroke-linecap="round" stroke-miterlimit="6" transform="translate(2275,1475)"/>
    <path style="stroke-linecap: round; stroke-miterlimit: 6;" fill="none" stroke="#000000" d="M25,0L25,25" stroke-width="2" stroke-linecap="round" stroke-miterlimit="6" transform="translate(2275,1475)"/>
    <path style="stroke-linecap: round; stroke-miterlimit: 6;" fill="none" stroke="#000000" d="M25,100.00002L25,75" stroke-width="2" stroke-linecap="round" stroke-miterlimit="6" transform="translate(2275,1475)"/>
    <path style="font-size: 15px; font-weight: normal;" fill="#000000" stroke="none" d="M25.84227,33.168L24.157737,33.168L24.157737,40.48806L16.898932,40.48806L16.898932,42.17259L24.157737,42.17259L24.157737,49.49262L25.84227,49.49262L25.84227,42.17259L33.101076,42.17259L33.101076,40.48806L25.84227,40.48806L25.84227,33.168" font-size="15px" font-weight="normal" transform="translate(2275,1475)"/>
    <path style="font-size: 15px; font-weight: normal;" fill="#000000" stroke="none" d="M17.006089,60.39372L17.006089,62.07822L33.055093,62.07822L33.055093,60.39372L17.006089,60.39372" font-size="15px" font-weight="normal" transform="translate(2275,1475)"/>
    <text style="font-family: 'Noto Sans',Tahoma,Verdana,Arial,sans-serif; font-size: 16px; font-weight: bold; text-anchor: start; font-stretch: extra-condensed;" x="0" y="0" text-anchor="start" stroke="none" fill="#000000" transform="translate(2331.25,1525)">
      <tspan dy="7.2">Vd/2</tspan>
    </text>
    <path style="stroke-linecap: round; stroke-miterlimit: 6;" fill="#ffffff" stroke="#000000" d="M50,50C50,36.19374,38.806255,25,25,25C11.193755,25,0,36.19374,0,50C0,63.80632,11.193755,75,25,75C38.806255,75,50,63.80632,50,50" stroke-width="2" stroke-linecap="round" stroke-miterlimit="6" transform="matrix(-1,0,0,1,2250,1475)"/>
    <path style="stroke-linecap: round; stroke-miterlimit: 6;" fill="none" stroke="#000000" d="M25,0L25,25" stroke-width="2" stroke-linecap="round" stroke-miterlimit="6" transform="matrix(-1,0,0,1,2250,1475)"/>
    <path style="stroke-linecap: round; stroke-miterlimit: 6;" fill="none" stroke="#000000" d="M25,100.00002L25,75" stroke-width="2" stroke-linecap="round" stroke-miterlimit="6" transform="matrix(-1,0,0,1,2250,1475)"/>
    <path style="font-size: 15px; font-weight: normal;" fill="#000000" stroke="none" d="M25.84227,33.168L24.157737,33.168L24.157737,40.48806L16.898932,40.48806L16.898932,42.17259L24.157737,42.17259L24.157737,49.49262L25.84227,49.49262L25.84227,42.17259L33.101076,42.17259L33.101076,40.48806L25.84227,40.48806L25.84227,33.168" font-size="15px" font-weight="normal" transform="matrix(-1,0,0,1,2250,1475)"/>
    <path style="font-size: 15px; font-weight: normal;" fill="#000000" stroke="none" d="M17.006089,60.39372L17.006089,62.07822L33.055093,62.07822L33.055093,60.39372L17.006089,60.39372" font-size="15px" font-weight="normal" transform="matrix(-1,0,0,1,2250,1475)"/>
    <text style="font-family: 'Noto Sans',Tahoma,Verdana,Arial,sans-serif; font-size: 16px; font-weight: bold; text-anchor: end; font-stretch: extra-condensed;" x="0" y="0" text-anchor="end" stroke="none" fill="#000000" transform="translate(2193.75,1525)">
      <tspan dy="7.2">Vcm</tspan>
    </text>
    <path style="stroke-linecap: round;" fill="none" stroke="#000000" d="M 2225 1475 L 2300 1475" stroke-width="2" stroke-linecap="round" class="cl_wire"/>
    <path style="stroke-linecap: round; stroke-miterlimit: 6;" fill="none" stroke="#000000" d="M25,20L25,0" stroke-width="2" stroke-linecap="round" stroke-miterlimit="6" transform="translate(2200,1575)"/>
    <path style="stroke-linecap: round; stroke-linejoin: round; stroke-miterlimit: 6;" fill="#ffffff" stroke="#000000" d="M5,20L25,40L45,20Z" stroke-width="2" stroke-linecap="round" stroke-linejoin="round" stroke-miterlimit="6" transform="translate(2200,1575)"/>
    <path style="stroke-linecap: round;" fill="none" stroke="#000000" d="M 2300 1375 L 2400 1375" stroke-width="2" stroke-linecap="round" class="cl_wire"/>
    <path style="stroke-linecap: round;" fill="none" stroke="#000000" d="M 2300 1575 L 2375 1575" stroke-width="2" stroke-linecap="round" class="cl_wire"/>
    <path style="stroke-linecap: round;" fill="none" stroke="#000000" d="M 2375 1475 L 2375 1575" stroke-width="2" stroke-linecap="round" class="cl_wire"/>
    <path style="stroke-linecap: round;" fill="none" stroke="#000000" d="M 2375 1475 L 2625 1475" stroke-width="2" stroke-linecap="round" class="cl_wire"/>
    <path style="stroke-linecap: round;" fill="none" stroke="#000000" d="M 2625 1375 L 2625 1475" stroke-width="2" stroke-linecap="round" class="cl_wire"/>
    <path style="stroke-linecap: round;" fill="none" stroke="#000000" d="M 2875 1425 L 2875 1450" stroke-width="2" stroke-linecap="round" class="cl_wire"/>
    <path style="stroke-linecap: round;" fill="none" stroke="#000000" d="M 3075 1425 L 3075 1450" stroke-width="2" stroke-linecap="round" class="cl_wire"/>
    <path style="stroke-linecap: round;" fill="none" stroke="#000000" d="M 2875 1450 L 3075 1450" stroke-width="2" stroke-linecap="round" class="cl_wire"/>
    <path style="stroke-linecap: round;" fill="none" stroke="#000000" d="M 2975 1450 L 2975 1500" stroke-width="2" stroke-linecap="round" class="cl_wire"/>
    <text style="font-family: 'Noto Sans',Tahoma,Verdana,Arial,sans-serif; font-size: 16px; font-weight: bold; text-anchor: start; font-style: normal; font-stretch: extra-condensed;" x="0" y="0" text-anchor="start" stroke="none" fill="#0000ff" font-style="normal" transform="translate(2925,1509)">
      <tspan dy="7.2">Ve= Vcm - VBE</tspan>
    </text>
    <path style="stroke-linecap: round;" fill="none" stroke="#a9a9a9" d="M 2700 1125 L 2700 1675" stroke-width="2" stroke-linecap="round" class="cl_wire"/>
    <path style="stroke-linecap: round; stroke-linejoin: round;" fill="#a9a9a9" stroke="#a9a9a9" d="M2650,1500L2750,1500L2726.5076844803525,1491.4494964168582L2726.5076844803525,1508.5505035831418L2750,1500" stroke-width="2" stroke-linecap="round" stroke-linejoin="round"/>
    <circle cx="2300" cy="1475" r="3" fill="#000000" stroke="#000000"/>
    <circle cx="2500" cy="1625" r="3" fill="#000000" stroke="#000000"/>
    <circle cx="2500" cy="1175" r="3" fill="#000000" stroke="#000000"/>
    <circle cx="2500" cy="1450" r="3" fill="#000000" stroke="#000000"/>
    <circle cx="2500" cy="1525" r="3" fill="#000000" stroke="#000000"/>
    <circle cx="2975" cy="1175" r="3" fill="#000000" stroke="#000000"/>
    <circle cx="2975" cy="1450" r="3" fill="#000000" stroke="#000000"/>
  </g>
</svg>
