<svg xmlns:xlink="http://www.w3.org/1999/xlink" xmlns="http://www.w3.org/2000/svg" width="723.451327434" height="1000.0">
  <desc>Created by CircuitLab https://www.circuitlab.com/</desc><g transform="matrix(2.21238938053,0,0,2.21238938053,-5030.97345133,-2486.72566372)">
    <rect x="2275" y="1125" width="325" height="450" r="0" rx="0" ry="0" fill="none" stroke="none" style="stroke-opacity: 0;"/>
    <rect x="2275" y="1125" width="325" height="450" r="0" rx="0" ry="0" fill="none" stroke="#00ff00" stroke-dasharray="16,6" stroke-width="2"/>
    <path style="stroke-linejoin: round;" fill="#000000" stroke="#000000" d="M0,50L12,36L23,36Z" stroke-width="2" stroke-linejoin="round" transform="matrix(-1,0,0,1,2425,1300)"/>
    <path style="stroke-linejoin: round;" fill="#000000" stroke="#000000" d="M0,50L12,36L22.666666666666664,36Z" stroke-width="2" stroke-linejoin="round" transform="translate(2550,1375)"/>
    <path style="stroke-linejoin: round;" fill="#000000" stroke="#000000" d="M0,50L12,36L23,36Z" stroke-width="2" stroke-linejoin="round" transform="translate(2550,1250)"/>
    <path style="stroke-linejoin: round;" fill="#000000" stroke="#000000" d="M0,50L12,36L25,36Z" stroke-width="2" stroke-linejoin="round" transform="translate(2425,1125)"/>
    <path style="stroke-linecap: round; stroke-miterlimit: 6;" fill="none" stroke="#000000" d="M0,50L12.5,50" stroke-width="2" stroke-linecap="round" stroke-miterlimit="6" transform="translate(2450,1300)"/>
    <path style="stroke-linecap: round; stroke-miterlimit: 6;" fill="none" stroke="#000000" d="M12.5,87.5L12.5,12.5" stroke-width="2" stroke-linecap="round" stroke-miterlimit="6" transform="translate(2450,1300)"/>
    <path style="stroke-linecap: round; stroke-miterlimit: 6;" fill="none" stroke="#000000" d="M12.5,32.81249L50,12.5" stroke-width="2" stroke-linecap="round" stroke-miterlimit="6" transform="translate(2450,1300)"/>
    <path style="stroke-linecap: round; stroke-miterlimit: 6;" fill="none" stroke="#000000" d="M50,0L50,12.5" stroke-width="2" stroke-linecap="round" stroke-miterlimit="6" transform="translate(2450,1300)"/>
    <path style="stroke-linecap: round; stroke-miterlimit: 6;" fill="none" stroke="#000000" d="M12.5,67.18752L50,87.5" stroke-width="2" stroke-linecap="round" stroke-miterlimit="6" transform="translate(2450,1300)"/>
    <path style="stroke-linecap: round; stroke-miterlimit: 6;" fill="none" stroke="#000000" d="M50,100L50,87.5" stroke-width="2" stroke-linecap="round" stroke-miterlimit="6" transform="translate(2450,1300)"/>
    <path fill="#000000" stroke="none" d="M27.931232,81.97502C36.649984,82.49792,38.679151,83.67082,50,87.5C41.0229,79.61042,38.993733,78.43962,34.181237,71.15002C33.189565,75.98962,31.627079,78.69792,27.931232,81.97502" transform="translate(2450,1300)"/>
    <text style="font-family: Arial; font-size: 16px; font-weight: bold; text-anchor: start;" x="0" y="0" text-anchor="start" stroke="none" fill="#000000" transform="translate(2500,1350)">
      <tspan dy="-2.3999999999999995">Q1</tspan>
      <tspan dy="19.2" x="0">2N3904</tspan>
    </text>
    <path style="stroke-linecap: round; stroke-miterlimit: 6;" fill="none" stroke="#000000" d="M25,21.87499L25,0" stroke-width="2" stroke-linecap="round" stroke-miterlimit="6" transform="translate(2475,1425)"/>
    <path style="stroke-linecap: round; stroke-miterlimit: 6;" fill="none" stroke="#000000" d="M25,78.12502L25,100" stroke-width="2" stroke-linecap="round" stroke-miterlimit="6" transform="translate(2475,1425)"/>
    <path style="stroke-linecap: round; stroke-miterlimit: 6;" fill="none" stroke="#000000" d="M25,21.87499L14.062504,26.56249L35.937495,35.93748L14.062504,45.31248L35.937495,54.68752L14.062504,64.06252L35.937495,73.43752L25,78.12502" stroke-width="2" stroke-linecap="round" stroke-miterlimit="6" transform="translate(2475,1425)"/>
    <text style="font-family: Arial; font-size: 16px; font-weight: bold; text-anchor: start;" x="0" y="0" text-anchor="start" stroke="none" fill="#000000" transform="translate(2518.75,1475)">
      <tspan dy="7.2">RE</tspan>
    </text>
    <path style="stroke-linecap: round; stroke-miterlimit: 6;" fill="none" stroke="#000000" d="M25,21.87499L25,0" stroke-width="2" stroke-linecap="round" stroke-miterlimit="6" transform="translate(2475,1175)"/>
    <path style="stroke-linecap: round; stroke-miterlimit: 6;" fill="none" stroke="#000000" d="M25,78.12502L25,100" stroke-width="2" stroke-linecap="round" stroke-miterlimit="6" transform="translate(2475,1175)"/>
    <path style="stroke-linecap: round; stroke-miterlimit: 6;" fill="none" stroke="#000000" d="M25,21.87499L14.062504,26.56249L35.937495,35.93748L14.062504,45.31248L35.937495,54.68752L14.062504,64.06252L35.937495,73.43752L25,78.12502" stroke-width="2" stroke-linecap="round" stroke-miterlimit="6" transform="translate(2475,1175)"/>
    <text style="font-family: Arial; font-size: 16px; font-weight: bold; text-anchor: start;" x="0" y="0" text-anchor="start" stroke="none" fill="#000000" transform="translate(2518.75,1225)">
      <tspan dy="7.2">RC</tspan>
    </text>
    <path style="stroke-linecap: round; stroke-miterlimit: 6;" fill="#ffffff" stroke="#000000" d="M50,50C50,36.19374,38.806255,25,25,25C11.193755,25,0,36.19374,0,50C0,63.80632,11.193755,75,25,75C38.806255,75,50,63.80632,50,50" stroke-width="2" stroke-linecap="round" stroke-miterlimit="6" transform="translate(2350,1425)"/>
    <path style="stroke-linecap: round; stroke-miterlimit: 6;" fill="none" stroke="#000000" d="M25,0L25,25" stroke-width="2" stroke-linecap="round" stroke-miterlimit="6" transform="translate(2350,1425)"/>
    <path style="stroke-linecap: round; stroke-miterlimit: 6;" fill="none" stroke="#000000" d="M25,100.00002L25,75" stroke-width="2" stroke-linecap="round" stroke-miterlimit="6" transform="translate(2350,1425)"/>
    <path style="font-size: 15px; font-weight: normal;" fill="#000000" stroke="none" d="M25.84227,33.168L24.157737,33.168L24.157737,40.48806L16.898932,40.48806L16.898932,42.17259L24.157737,42.17259L24.157737,49.49262L25.84227,49.49262L25.84227,42.17259L33.101076,42.17259L33.101076,40.48806L25.84227,40.48806L25.84227,33.168" font-size="15px" font-weight="normal" transform="translate(2350,1425)"/>
    <path style="font-size: 15px; font-weight: normal;" fill="#000000" stroke="none" d="M17.006089,60.39372L17.006089,62.07822L33.055093,62.07822L33.055093,60.39372L17.006089,60.39372" font-size="15px" font-weight="normal" transform="translate(2350,1425)"/>
    <text style="font-family: Arial; font-size: 16px; font-weight: bold; text-anchor: start;" x="0" y="0" text-anchor="start" stroke="none" fill="#000000" transform="translate(2406.25,1475)">
      <tspan dy="7.2">Vbb</tspan>
    </text>
    <rect x="7" y="7" width="39" height="29" r="5" rx="5" ry="5" fill="#ffffff" stroke="#000000" stroke-width="2" transform="translate(2425,1125)"/>
    <text style="font-family: Arial; font-size: 16px; font-weight: bold; text-anchor: start;" x="12" y="22" text-anchor="start" stroke="none" fill="#000000" transform="translate(2425,1125)">
      <tspan dy="7.2">+5V</tspan>
    </text>
    <path style="stroke-linecap: round; stroke-miterlimit: 6;" fill="#ffffff" stroke="#000000" d="M50,50C50,36.19374,38.806255,25,25,25C11.193755,25,0,36.19374,0,50C0,63.80632,11.193755,75,25,75C38.806255,75,50,63.80632,50,50" stroke-width="2" stroke-linecap="round" stroke-miterlimit="6" transform="translate(2275,1225)"/>
    <path style="stroke-linecap: round; stroke-miterlimit: 6;" fill="none" stroke="#000000" d="M25,0L25,25" stroke-width="2" stroke-linecap="round" stroke-miterlimit="6" transform="translate(2275,1225)"/>
    <path style="stroke-linecap: round; stroke-miterlimit: 6;" fill="none" stroke="#000000" d="M25,100.00002L25,75" stroke-width="2" stroke-linecap="round" stroke-miterlimit="6" transform="translate(2275,1225)"/>
    <path style="font-size: 15px; font-weight: normal;" fill="#000000" stroke="none" d="M25.84227,33.168L24.157737,33.168L24.157737,40.48806L16.898932,40.48806L16.898932,42.17259L24.157737,42.17259L24.157737,49.49262L25.84227,49.49262L25.84227,42.17259L33.101076,42.17259L33.101076,40.48806L25.84227,40.48806L25.84227,33.168" font-size="15px" font-weight="normal" transform="translate(2275,1225)"/>
    <path style="font-size: 15px; font-weight: normal;" fill="#000000" stroke="none" d="M17.006089,60.39372L17.006089,62.07822L33.055093,62.07822L33.055093,60.39372L17.006089,60.39372" font-size="15px" font-weight="normal" transform="translate(2275,1225)"/>
    <text style="font-family: Arial; font-size: 16px; font-weight: bold; text-anchor: start;" x="0" y="0" text-anchor="start" stroke="none" fill="#000000" transform="translate(2331.25,1275)">
      <tspan dy="-2.3999999999999995">Vsupply</tspan>
      <tspan dy="19.2" x="0">5 V</tspan>
    </text>
    <path style="stroke-linecap: round;" fill="none" stroke="#000000" d="M 2300 1175 L 2300 1225" stroke-width="2" stroke-linecap="round" class="cl_wire"/>
    <path style="stroke-linecap: round;" fill="none" stroke="#000000" d="M 2300 1525 L 2500 1525" stroke-width="2" stroke-linecap="round" class="cl_wire"/>
    <path style="stroke-linecap: round;" fill="none" stroke="#000000" d="M 2300 1325 L 2300 1525" stroke-width="2" stroke-linecap="round" class="cl_wire"/>
    <path style="stroke-linecap: round;" fill="none" stroke="#000000" d="M 2375 1350 L 2375 1425" stroke-width="2" stroke-linecap="round" class="cl_wire"/>
    <path style="stroke-linecap: round;" fill="none" stroke="#000000" d="M 2375 1350 L 2450 1350" stroke-width="2" stroke-linecap="round" class="cl_wire"/>
    <path style="stroke-linecap: round;" fill="none" stroke="#000000" d="M 2500 1275 L 2500 1300" stroke-width="2" stroke-linecap="round" class="cl_wire"/>
    <path style="stroke-linecap: round;" fill="none" stroke="#000000" d="M 2500 1400 L 2500 1425" stroke-width="2" stroke-linecap="round" class="cl_wire"/>
    <path style="stroke-linecap: round;" fill="none" stroke="#000000" d="M 2500 1300 L 2550 1300" stroke-width="2" stroke-linecap="round" class="cl_wire"/>
    <path style="stroke-linecap: round;" fill="none" stroke="#000000" d="M 2500 1425 L 2550 1425" stroke-width="2" stroke-linecap="round" class="cl_wire"/>
    <rect x="7" y="7" width="33" height="29" r="5" rx="5" ry="5" fill="#ffffff" stroke="#000000" stroke-width="2" transform="translate(2550,1250)"/>
    <text style="font-family: Arial; font-size: 16px; font-weight: bold; text-anchor: start;" x="12" y="22" text-anchor="start" stroke="none" fill="#000000" transform="translate(2550,1250)">
      <tspan dy="7.2">VC</tspan>
    </text>
    <rect x="7" y="7" width="32" height="29" r="5" rx="5" ry="5" fill="#ffffff" stroke="#000000" stroke-width="2" transform="translate(2550,1375)"/>
    <text style="font-family: Arial; font-size: 16px; font-weight: bold; text-anchor: start;" x="12" y="22" text-anchor="start" stroke="none" fill="#000000" transform="translate(2550,1375)">
      <tspan dy="7.2">VE</tspan>
    </text>
    <rect x="7" y="7" width="33" height="29" r="5" rx="5" ry="5" fill="#ffffff" stroke="#000000" stroke-width="2" transform="matrix(-1,0,0,1,2425,1300)"/>
    <text style="font-family: Arial; font-size: 16px; font-weight: bold; text-anchor: end;" x="12" y="22" text-anchor="end" stroke="none" fill="#000000" transform="translate(2401,1300)">
      <tspan dy="7.2">VB</tspan>
    </text>
    <path style="stroke-linecap: round; stroke-linejoin: round;" fill="#008000" stroke="#008000" d="M2475,1200L2475,1250L2480.7003357220947,1234.3384563202349L2469.2996642779053,1234.3384563202349L2475,1250" stroke-width="2" stroke-linecap="round" stroke-linejoin="round"/>
    <text style="font-family: Courier New; font-size: 16px; font-weight: bold; text-anchor: start; font-style: normal;" x="0" y="0" text-anchor="start" stroke="none" fill="#008000" font-style="normal" transform="translate(2450,1209.5)">
      <tspan dy="7.2">IC</tspan>
    </text>
    <path style="stroke-linecap: round; stroke-linejoin: round;" fill="#008000" stroke="#008000" d="M2475,1425L2475,1475L2480.7003357220947,1459.3384563202349L2469.2996642779053,1459.3384563202349L2475,1475" stroke-width="2" stroke-linecap="round" stroke-linejoin="round"/>
    <text style="font-family: Courier New; font-size: 16px; font-weight: bold; text-anchor: start; font-style: normal;" x="0" y="0" text-anchor="start" stroke="none" fill="#008000" font-style="normal" transform="translate(2450,1434.5)">
      <tspan dy="7.2">IE</tspan>
    </text>
    <path style="stroke-linecap: round; stroke-miterlimit: 6;" fill="none" stroke="#000000" d="M25,20L25,0" stroke-width="2" stroke-linecap="round" stroke-miterlimit="6" transform="translate(2275,1525)"/>
    <path style="stroke-linecap: round; stroke-linejoin: round; stroke-miterlimit: 6;" fill="#ffffff" stroke="#000000" d="M5,20L25,40L45,20Z" stroke-width="2" stroke-linecap="round" stroke-linejoin="round" stroke-miterlimit="6" transform="translate(2275,1525)"/>
    <path style="stroke-linecap: round;" fill="none" stroke="#000000" d="M 2300 1175 L 2500 1175" stroke-width="2" stroke-linecap="round" class="cl_wire"/>
    <circle cx="2500" cy="1300" r="3" fill="#000000" stroke="#000000"/>
    <circle cx="2500" cy="1425" r="3" fill="#000000" stroke="#000000"/>
    <circle cx="2375" cy="1525" r="3" fill="#000000" stroke="#000000"/>
    <circle cx="2425" cy="1175" r="3" fill="#000000" stroke="#000000"/>
    <circle cx="2425" cy="1350" r="3" fill="#000000" stroke="#000000"/>
    <circle cx="2300" cy="1525" r="3" fill="#000000" stroke="#000000"/>
  </g>
</svg>
