<svg width="570.8333333333334" height="166.66666666666666" viewBox="0 0 274 80" xmlns="http://www.w3.org/2000/svg" xmlns:usvg="https://github.com/RazrFalcon/usvg" usvg:version="0.8.0">
    <defs/>
    <path fill="none" stroke="#000000" stroke-miterlimit="10" stroke-width="0.4" stroke-linejoin="round" transform="matrix(1 0 0 -1 -102 684)" d="M 160 672 L 160 624 L 320 624 L 320 672 Z M 160 672"/>
    <path fill="none" stroke="#000000" stroke-miterlimit="10" stroke-width="0.4" stroke-linejoin="round" stroke-dasharray="1 3" transform="matrix(1 0 0 -1 -102 684)" d="M 240 624 L 240 672"/>
    <path transform="matrix(1 0 0 1 155.3005 7.993)" d="M 0.890625 1.28125 C 0.8125 1.578125 0.734375 1.609375 0.34375 1.625 C 0.265625 1.625 0.140625 1.625 0.140625 1.8125 C 0.140625 1.890625 0.1875 1.9375 0.265625 1.9375 C 0.53125 1.9375 0.8125 1.90625 1.09375 1.90625 C 1.421875 1.90625 1.75 1.9375 2.0625 1.9375 C 2.125 1.9375 2.25 1.9375 2.25 1.75 C 2.25 1.625 2.15625 1.625 2.015625 1.625 C 1.5 1.625 1.5 1.5625 1.5 1.46875 C 1.5 1.40625 1.578125 1.140625 1.609375 0.984375 L 1.96875 -0.46875 C 2.046875 -0.296875 2.296875 0.109375 2.8125 0.109375 C 3.890625 0.109375 5.078125 -1.359375 5.078125 -2.84375 C 5.078125 -3.921875 4.484375 -4.40625 3.890625 -4.40625 C 3.40625 -4.40625 2.96875 -4.046875 2.6875 -3.703125 C 2.5625 -4.28125 2.109375 -4.40625 1.859375 -4.40625 C 1.5 -4.40625 1.3125 -4.171875 1.140625 -3.875 C 0.953125 -3.484375 0.828125 -2.890625 0.828125 -2.875 C 0.828125 -2.765625 0.921875 -2.765625 0.984375 -2.765625 C 1.109375 -2.765625 1.109375 -2.78125 1.171875 -3 C 1.34375 -3.703125 1.53125 -4.1875 1.84375 -4.1875 C 2.109375 -4.1875 2.109375 -3.890625 2.109375 -3.78125 C 2.109375 -3.734375 2.109375 -3.5625 2.03125 -3.296875 Z M 2.625 -3.0625 C 2.703125 -3.40625 3.3125 -4.1875 3.875 -4.1875 C 4.3125 -4.1875 4.421875 -3.625 4.421875 -3.296875 C 4.421875 -2.875 4.140625 -1.6875 3.859375 -1.0625 C 3.734375 -0.8125 3.3125 -0.109375 2.796875 -0.109375 C 2.21875 -0.109375 2.125 -0.953125 2.125 -1.03125 C 2.125 -1.0625 2.140625 -1.09375 2.15625 -1.171875 Z M 2.625 -3.0625"/>
    <path transform="matrix(1 0 0 1 161.0215 7.993)" d="M 2.75 -1.859375 L 2.75 -2.4375 L 0.109375 -2.4375 L 0.109375 -1.859375 Z M 2.75 -1.859375"/>
    <path transform="matrix(1 0 0 1 164.339046 7.993)" d="M 1.71875 -3.984375 L 3.15625 -3.984375 L 3.15625 -4.296875 L 1.71875 -4.296875 L 1.71875 -6.125 L 1.46875 -6.125 C 1.46875 -5.3125 1.171875 -4.25 0.1875 -4.203125 L 0.1875 -3.984375 L 1.03125 -3.984375 L 1.03125 -1.234375 C 1.03125 -0.015625 1.96875 0.109375 2.328125 0.109375 C 3.03125 0.109375 3.3125 -0.59375 3.3125 -1.234375 L 3.3125 -1.796875 L 3.0625 -1.796875 L 3.0625 -1.25 C 3.0625 -0.515625 2.765625 -0.140625 2.390625 -0.140625 C 1.71875 -0.140625 1.71875 -1.046875 1.71875 -1.21875 Z M 1.71875 -3.984375"/>
    <path transform="matrix(1 0 0 1 167.925582 7.993)" d="M 4.140625 -3.34375 C 4.390625 -3.984375 4.90625 -3.984375 5.0625 -3.984375 L 5.0625 -4.296875 C 4.828125 -4.28125 4.546875 -4.265625 4.3125 -4.265625 C 4.140625 -4.265625 3.671875 -4.28125 3.453125 -4.296875 L 3.453125 -3.984375 C 3.765625 -3.984375 3.921875 -3.8125 3.921875 -3.5625 C 3.921875 -3.453125 3.90625 -3.4375 3.859375 -3.3125 L 2.84375 -0.875 L 1.75 -3.546875 C 1.703125 -3.65625 1.6875 -3.6875 1.6875 -3.734375 C 1.6875 -3.984375 2.046875 -3.984375 2.25 -3.984375 L 2.25 -4.296875 C 1.984375 -4.28125 1.328125 -4.265625 1.15625 -4.265625 C 0.890625 -4.265625 0.484375 -4.28125 0.1875 -4.296875 L 0.1875 -3.984375 C 0.671875 -3.984375 0.859375 -3.984375 1 -3.640625 L 2.5 0 C 2.4375 0.125 2.296875 0.453125 2.25 0.59375 C 2.03125 1.140625 1.75 1.828125 1.109375 1.828125 C 1.0625 1.828125 0.828125 1.828125 0.640625 1.640625 C 0.953125 1.609375 1.03125 1.390625 1.03125 1.21875 C 1.03125 0.96875 0.84375 0.8125 0.609375 0.8125 C 0.40625 0.8125 0.1875 0.9375 0.1875 1.234375 C 0.1875 1.6875 0.609375 2.046875 1.109375 2.046875 C 1.734375 2.046875 2.140625 1.46875 2.375 0.90625 Z M 4.140625 -3.34375"/>
    <path transform="matrix(1 0 0 1 173.175872 7.993)" d="M 1.71875 -3.75 L 1.71875 -4.40625 L 0.28125 -4.296875 L 0.28125 -3.984375 C 0.984375 -3.984375 1.0625 -3.921875 1.0625 -3.484375 L 1.0625 1.171875 C 1.0625 1.625 0.953125 1.625 0.28125 1.625 L 0.28125 1.9375 C 0.625 1.921875 1.140625 1.90625 1.390625 1.90625 C 1.671875 1.90625 2.171875 1.921875 2.515625 1.9375 L 2.515625 1.625 C 1.859375 1.625 1.75 1.625 1.75 1.171875 L 1.75 -0.59375 C 1.796875 -0.421875 2.21875 0.109375 2.96875 0.109375 C 4.15625 0.109375 5.1875 -0.875 5.1875 -2.15625 C 5.1875 -3.421875 4.234375 -4.40625 3.109375 -4.40625 C 2.328125 -4.40625 1.90625 -3.96875 1.71875 -3.75 Z M 1.75 -1.140625 L 1.75 -3.359375 C 2.03125 -3.875 2.515625 -4.15625 3.03125 -4.15625 C 3.765625 -4.15625 4.359375 -3.28125 4.359375 -2.15625 C 4.359375 -0.953125 3.671875 -0.109375 2.9375 -0.109375 C 2.53125 -0.109375 2.15625 -0.3125 1.890625 -0.71875 C 1.75 -0.921875 1.75 -0.9375 1.75 -1.140625 Z M 1.75 -1.140625"/>
    <path transform="matrix(1 0 0 1 178.984068 7.993)" d="M 1.109375 -2.515625 C 1.171875 -4 2.015625 -4.25 2.359375 -4.25 C 3.375 -4.25 3.484375 -2.90625 3.484375 -2.515625 Z M 1.109375 -2.296875 L 3.890625 -2.296875 C 4.109375 -2.296875 4.140625 -2.296875 4.140625 -2.515625 C 4.140625 -3.5 3.59375 -4.46875 2.359375 -4.46875 C 1.203125 -4.46875 0.28125 -3.4375 0.28125 -2.1875 C 0.28125 -0.859375 1.328125 0.109375 2.46875 0.109375 C 3.6875 0.109375 4.140625 -1 4.140625 -1.1875 C 4.140625 -1.28125 4.0625 -1.3125 4 -1.3125 C 3.921875 -1.3125 3.890625 -1.25 3.875 -1.171875 C 3.53125 -0.140625 2.625 -0.140625 2.53125 -0.140625 C 2.03125 -0.140625 1.640625 -0.4375 1.40625 -0.8125 C 1.109375 -1.28125 1.109375 -1.9375 1.109375 -2.296875 Z M 1.109375 -2.296875"/>
    <path transform="matrix(1 0 0 1 183.407462 7.993)" d="M 1.90625 -3.765625 C 1.90625 -4.0625 1.671875 -4.296875 1.390625 -4.296875 C 1.09375 -4.296875 0.859375 -4.0625 0.859375 -3.765625 C 0.859375 -3.484375 1.09375 -3.234375 1.390625 -3.234375 C 1.671875 -3.234375 1.90625 -3.484375 1.90625 -3.765625 Z M 1.90625 -0.53125 C 1.90625 -0.8125 1.671875 -1.0625 1.390625 -1.0625 C 1.09375 -1.0625 0.859375 -0.8125 0.859375 -0.53125 C 0.859375 -0.234375 1.09375 0 1.390625 0 C 1.671875 0 1.90625 -0.234375 1.90625 -0.53125 Z M 1.90625 -0.53125"/>
    <path transform="matrix(1 0 0 1 186.2045 7.993)" d="M 7.53125 -5.765625 C 7.640625 -6.15625 7.8125 -6.46875 8.609375 -6.5 C 8.65625 -6.5 8.78125 -6.515625 8.78125 -6.703125 C 8.78125 -6.703125 8.78125 -6.8125 8.65625 -6.8125 C 8.328125 -6.8125 7.96875 -6.78125 7.640625 -6.78125 C 7.3125 -6.78125 6.953125 -6.8125 6.625 -6.8125 C 6.5625 -6.8125 6.453125 -6.8125 6.453125 -6.609375 C 6.453125 -6.5 6.546875 -6.5 6.625 -6.5 C 7.203125 -6.484375 7.3125 -6.28125 7.3125 -6.0625 C 7.3125 -6.03125 7.28125 -5.875 7.28125 -5.859375 L 6.15625 -1.421875 L 3.953125 -6.625 C 3.875 -6.796875 3.875 -6.8125 3.640625 -6.8125 L 2.296875 -6.8125 C 2.109375 -6.8125 2.015625 -6.8125 2.015625 -6.609375 C 2.015625 -6.5 2.109375 -6.5 2.296875 -6.5 C 2.34375 -6.5 2.96875 -6.5 2.96875 -6.40625 L 1.640625 -1.0625 C 1.53125 -0.65625 1.359375 -0.34375 0.5625 -0.3125 C 0.5 -0.3125 0.390625 -0.296875 0.390625 -0.109375 C 0.390625 -0.046875 0.4375 0 0.515625 0 C 0.84375 0 1.1875 -0.03125 1.515625 -0.03125 C 1.859375 -0.03125 2.21875 0 2.546875 0 C 2.59375 0 2.71875 0 2.71875 -0.203125 C 2.71875 -0.296875 2.625 -0.3125 2.515625 -0.3125 C 1.9375 -0.328125 1.859375 -0.546875 1.859375 -0.75 C 1.859375 -0.8125 1.875 -0.875 1.90625 -0.984375 L 3.21875 -6.234375 C 3.265625 -6.1875 3.265625 -6.15625 3.3125 -6.0625 L 5.796875 -0.1875 C 5.859375 -0.015625 5.890625 0 5.984375 0 C 6.09375 0 6.09375 -0.03125 6.140625 -0.203125 Z M 7.53125 -5.765625"/>
    <path transform="matrix(1 0 0 1 194.2095 9.487)" d="M 1.4375 -0.84375 C 1.1875 -0.453125 0.96875 -0.28125 0.5625 -0.25 C 0.484375 -0.25 0.390625 -0.25 0.390625 -0.109375 C 0.390625 -0.03125 0.453125 0 0.5 0 C 0.671875 0 0.90625 -0.03125 1.09375 -0.03125 C 1.3125 -0.03125 1.609375 0 1.8125 0 C 1.84375 0 1.953125 0 1.953125 -0.15625 C 1.953125 -0.25 1.859375 -0.25 1.828125 -0.25 C 1.78125 -0.265625 1.53125 -0.265625 1.53125 -0.453125 C 1.53125 -0.546875 1.59375 -0.65625 1.625 -0.71875 L 2.1875 -1.59375 L 4.1875 -1.59375 L 4.34375 -0.4375 C 4.328125 -0.359375 4.28125 -0.25 3.875 -0.25 C 3.78125 -0.25 3.6875 -0.25 3.6875 -0.09375 C 3.6875 -0.0625 3.703125 0 3.796875 0 C 4 0 4.5 -0.03125 4.703125 -0.03125 C 4.828125 -0.03125 4.984375 -0.015625 5.109375 -0.015625 C 5.234375 -0.015625 5.375 0 5.5 0 C 5.59375 0 5.640625 -0.0625 5.640625 -0.140625 C 5.640625 -0.25 5.5625 -0.25 5.453125 -0.25 C 5.046875 -0.25 5.03125 -0.3125 5.015625 -0.46875 L 4.390625 -4.78125 C 4.375 -4.921875 4.359375 -4.96875 4.234375 -4.96875 C 4.09375 -4.96875 4.0625 -4.90625 4 -4.8125 Z M 2.359375 -1.84375 L 3.8125 -4.125 L 4.140625 -1.84375 Z M 2.359375 -1.84375"/>
    <path transform="matrix(1 0 0 1 74.61 7.993)" d="M 2.296875 -1.75 C 2.34375 -1.96875 2.40625 -2.171875 2.453125 -2.390625 C 2.578125 -2.90625 2.578125 -2.90625 2.75 -3.203125 C 2.890625 -3.4375 3.34375 -4.1875 4.09375 -4.1875 C 4.53125 -4.1875 4.5625 -3.734375 4.5625 -3.53125 C 4.5625 -2.90625 4.109375 -1.71875 3.984375 -1.328125 C 3.84375 -0.984375 3.8125 -0.890625 3.8125 -0.6875 C 3.8125 -0.25 4.09375 0.109375 4.578125 0.109375 C 5.5 0.109375 5.84375 -1.375 5.84375 -1.421875 C 5.84375 -1.53125 5.765625 -1.53125 5.6875 -1.53125 C 5.5625 -1.53125 5.5625 -1.5 5.515625 -1.359375 C 5.4375 -1.09375 5.171875 -0.109375 4.59375 -0.109375 C 4.390625 -0.109375 4.375 -0.265625 4.375 -0.40625 C 4.375 -0.640625 4.46875 -0.90625 4.5625 -1.140625 C 4.75 -1.671875 5.15625 -2.796875 5.15625 -3.375 C 5.15625 -4.1875 4.609375 -4.40625 4.125 -4.40625 C 3.3125 -4.40625 2.828125 -3.8125 2.703125 -3.625 C 2.625 -4.109375 2.296875 -4.40625 1.859375 -4.40625 C 1.5 -4.40625 1.3125 -4.171875 1.140625 -3.875 C 0.953125 -3.484375 0.828125 -2.890625 0.828125 -2.875 C 0.828125 -2.765625 0.921875 -2.765625 0.984375 -2.765625 C 1.109375 -2.765625 1.109375 -2.78125 1.171875 -3 C 1.34375 -3.703125 1.53125 -4.1875 1.84375 -4.1875 C 2.109375 -4.1875 2.109375 -3.890625 2.109375 -3.78125 C 2.109375 -3.625 2.078125 -3.4375 2.03125 -3.28125 L 1.28125 -0.296875 C 1.265625 -0.234375 1.25 -0.171875 1.25 -0.15625 C 1.25 -0.046875 1.328125 0.109375 1.53125 0.109375 C 1.65625 0.109375 1.828125 0.046875 1.890625 -0.15625 Z M 2.296875 -1.75"/>
    <path transform="matrix(1 0 0 1 80.975 7.993)" d="M 2.75 -1.859375 L 2.75 -2.4375 L 0.109375 -2.4375 L 0.109375 -1.859375 Z M 2.75 -1.859375"/>
    <path transform="matrix(1 0 0 1 84.292546 7.993)" d="M 1.71875 -3.984375 L 3.15625 -3.984375 L 3.15625 -4.296875 L 1.71875 -4.296875 L 1.71875 -6.125 L 1.46875 -6.125 C 1.46875 -5.3125 1.171875 -4.25 0.1875 -4.203125 L 0.1875 -3.984375 L 1.03125 -3.984375 L 1.03125 -1.234375 C 1.03125 -0.015625 1.96875 0.109375 2.328125 0.109375 C 3.03125 0.109375 3.3125 -0.59375 3.3125 -1.234375 L 3.3125 -1.796875 L 3.0625 -1.796875 L 3.0625 -1.25 C 3.0625 -0.515625 2.765625 -0.140625 2.390625 -0.140625 C 1.71875 -0.140625 1.71875 -1.046875 1.71875 -1.21875 Z M 1.71875 -3.984375"/>
    <path transform="matrix(1 0 0 1 87.879082 7.993)" d="M 4.140625 -3.34375 C 4.390625 -3.984375 4.90625 -3.984375 5.0625 -3.984375 L 5.0625 -4.296875 C 4.828125 -4.28125 4.546875 -4.265625 4.3125 -4.265625 C 4.140625 -4.265625 3.671875 -4.28125 3.453125 -4.296875 L 3.453125 -3.984375 C 3.765625 -3.984375 3.921875 -3.8125 3.921875 -3.5625 C 3.921875 -3.453125 3.90625 -3.4375 3.859375 -3.3125 L 2.84375 -0.875 L 1.75 -3.546875 C 1.703125 -3.65625 1.6875 -3.6875 1.6875 -3.734375 C 1.6875 -3.984375 2.046875 -3.984375 2.25 -3.984375 L 2.25 -4.296875 C 1.984375 -4.28125 1.328125 -4.265625 1.15625 -4.265625 C 0.890625 -4.265625 0.484375 -4.28125 0.1875 -4.296875 L 0.1875 -3.984375 C 0.671875 -3.984375 0.859375 -3.984375 1 -3.640625 L 2.5 0 C 2.4375 0.125 2.296875 0.453125 2.25 0.59375 C 2.03125 1.140625 1.75 1.828125 1.109375 1.828125 C 1.0625 1.828125 0.828125 1.828125 0.640625 1.640625 C 0.953125 1.609375 1.03125 1.390625 1.03125 1.21875 C 1.03125 0.96875 0.84375 0.8125 0.609375 0.8125 C 0.40625 0.8125 0.1875 0.9375 0.1875 1.234375 C 0.1875 1.6875 0.609375 2.046875 1.109375 2.046875 C 1.734375 2.046875 2.140625 1.46875 2.375 0.90625 Z M 4.140625 -3.34375"/>
    <path transform="matrix(1 0 0 1 93.129372 7.993)" d="M 1.71875 -3.75 L 1.71875 -4.40625 L 0.28125 -4.296875 L 0.28125 -3.984375 C 0.984375 -3.984375 1.0625 -3.921875 1.0625 -3.484375 L 1.0625 1.171875 C 1.0625 1.625 0.953125 1.625 0.28125 1.625 L 0.28125 1.9375 C 0.625 1.921875 1.140625 1.90625 1.390625 1.90625 C 1.671875 1.90625 2.171875 1.921875 2.515625 1.9375 L 2.515625 1.625 C 1.859375 1.625 1.75 1.625 1.75 1.171875 L 1.75 -0.59375 C 1.796875 -0.421875 2.21875 0.109375 2.96875 0.109375 C 4.15625 0.109375 5.1875 -0.875 5.1875 -2.15625 C 5.1875 -3.421875 4.234375 -4.40625 3.109375 -4.40625 C 2.328125 -4.40625 1.90625 -3.96875 1.71875 -3.75 Z M 1.75 -1.140625 L 1.75 -3.359375 C 2.03125 -3.875 2.515625 -4.15625 3.03125 -4.15625 C 3.765625 -4.15625 4.359375 -3.28125 4.359375 -2.15625 C 4.359375 -0.953125 3.671875 -0.109375 2.9375 -0.109375 C 2.53125 -0.109375 2.15625 -0.3125 1.890625 -0.71875 C 1.75 -0.921875 1.75 -0.9375 1.75 -1.140625 Z M 1.75 -1.140625"/>
    <path transform="matrix(1 0 0 1 98.937568 7.993)" d="M 1.109375 -2.515625 C 1.171875 -4 2.015625 -4.25 2.359375 -4.25 C 3.375 -4.25 3.484375 -2.90625 3.484375 -2.515625 Z M 1.109375 -2.296875 L 3.890625 -2.296875 C 4.109375 -2.296875 4.140625 -2.296875 4.140625 -2.515625 C 4.140625 -3.5 3.59375 -4.46875 2.359375 -4.46875 C 1.203125 -4.46875 0.28125 -3.4375 0.28125 -2.1875 C 0.28125 -0.859375 1.328125 0.109375 2.46875 0.109375 C 3.6875 0.109375 4.140625 -1 4.140625 -1.1875 C 4.140625 -1.28125 4.0625 -1.3125 4 -1.3125 C 3.921875 -1.3125 3.890625 -1.25 3.875 -1.171875 C 3.53125 -0.140625 2.625 -0.140625 2.53125 -0.140625 C 2.03125 -0.140625 1.640625 -0.4375 1.40625 -0.8125 C 1.109375 -1.28125 1.109375 -1.9375 1.109375 -2.296875 Z M 1.109375 -2.296875"/>
    <path transform="matrix(1 0 0 1 103.360962 7.993)" d="M 1.90625 -3.765625 C 1.90625 -4.0625 1.671875 -4.296875 1.390625 -4.296875 C 1.09375 -4.296875 0.859375 -4.0625 0.859375 -3.765625 C 0.859375 -3.484375 1.09375 -3.234375 1.390625 -3.234375 C 1.671875 -3.234375 1.90625 -3.484375 1.90625 -3.765625 Z M 1.90625 -0.53125 C 1.90625 -0.8125 1.671875 -1.0625 1.390625 -1.0625 C 1.09375 -1.0625 0.859375 -0.8125 0.859375 -0.53125 C 0.859375 -0.234375 1.09375 0 1.390625 0 C 1.671875 0 1.90625 -0.234375 1.90625 -0.53125 Z M 1.90625 -0.53125"/>
    <path transform="matrix(1 0 0 1 106.159 7.993)" d="M 7.53125 -5.765625 C 7.640625 -6.15625 7.8125 -6.46875 8.609375 -6.5 C 8.65625 -6.5 8.78125 -6.515625 8.78125 -6.703125 C 8.78125 -6.703125 8.78125 -6.8125 8.65625 -6.8125 C 8.328125 -6.8125 7.96875 -6.78125 7.640625 -6.78125 C 7.3125 -6.78125 6.953125 -6.8125 6.625 -6.8125 C 6.5625 -6.8125 6.453125 -6.8125 6.453125 -6.609375 C 6.453125 -6.5 6.546875 -6.5 6.625 -6.5 C 7.203125 -6.484375 7.3125 -6.28125 7.3125 -6.0625 C 7.3125 -6.03125 7.28125 -5.875 7.28125 -5.859375 L 6.15625 -1.421875 L 3.953125 -6.625 C 3.875 -6.796875 3.875 -6.8125 3.640625 -6.8125 L 2.296875 -6.8125 C 2.109375 -6.8125 2.015625 -6.8125 2.015625 -6.609375 C 2.015625 -6.5 2.109375 -6.5 2.296875 -6.5 C 2.34375 -6.5 2.96875 -6.5 2.96875 -6.40625 L 1.640625 -1.0625 C 1.53125 -0.65625 1.359375 -0.34375 0.5625 -0.3125 C 0.5 -0.3125 0.390625 -0.296875 0.390625 -0.109375 C 0.390625 -0.046875 0.4375 0 0.515625 0 C 0.84375 0 1.1875 -0.03125 1.515625 -0.03125 C 1.859375 -0.03125 2.21875 0 2.546875 0 C 2.59375 0 2.71875 0 2.71875 -0.203125 C 2.71875 -0.296875 2.625 -0.3125 2.515625 -0.3125 C 1.9375 -0.328125 1.859375 -0.546875 1.859375 -0.75 C 1.859375 -0.8125 1.875 -0.875 1.90625 -0.984375 L 3.21875 -6.234375 C 3.265625 -6.1875 3.265625 -6.15625 3.3125 -6.0625 L 5.796875 -0.1875 C 5.859375 -0.015625 5.890625 0 5.984375 0 C 6.09375 0 6.09375 -0.03125 6.140625 -0.203125 Z M 7.53125 -5.765625"/>
    <path transform="matrix(1 0 0 1 114.164 9.487)" d="M 1.3125 -0.546875 C 1.265625 -0.3125 1.25 -0.25 0.703125 -0.25 C 0.578125 -0.25 0.5 -0.25 0.5 -0.09375 C 0.5 0 0.578125 0 0.703125 0 L 3.1875 0 C 4.734375 0 6.21875 -1.421875 6.21875 -2.9375 C 6.21875 -3.953125 5.515625 -4.765625 4.390625 -4.765625 L 1.84375 -4.765625 C 1.703125 -4.765625 1.625 -4.765625 1.625 -4.609375 C 1.625 -4.515625 1.703125 -4.515625 1.859375 -4.515625 C 1.96875 -4.515625 2 -4.515625 2.125 -4.5 C 2.265625 -4.484375 2.265625 -4.46875 2.265625 -4.390625 C 2.265625 -4.390625 2.265625 -4.34375 2.25 -4.25 Z M 2.875 -4.265625 C 2.9375 -4.484375 2.9375 -4.515625 3.234375 -4.515625 L 4.125 -4.515625 C 4.90625 -4.515625 5.5625 -4.125 5.5625 -3.171875 C 5.5625 -3.015625 5.484375 -1.8125 4.796875 -1.015625 C 4.515625 -0.703125 3.921875 -0.25 3.0625 -0.25 L 2.125 -0.25 C 1.90625 -0.25 1.890625 -0.265625 1.890625 -0.328125 C 1.890625 -0.328125 1.890625 -0.359375 1.921875 -0.46875 Z M 2.875 -4.265625"/>
    <path fill="#ff0000" transform="matrix(1 0 0 1 222 20)" d="M 0.453125 1.21875 C 0.375 1.5625 0.34375 1.625 -0.09375 1.625 C -0.203125 1.625 -0.3125 1.625 -0.3125 1.8125 C -0.3125 1.890625 -0.265625 1.9375 -0.1875 1.9375 C 0.078125 1.9375 0.375 1.90625 0.640625 1.90625 C 0.984375 1.90625 1.3125 1.9375 1.640625 1.9375 C 1.6875 1.9375 1.8125 1.9375 1.8125 1.734375 C 1.8125 1.625 1.71875 1.625 1.578125 1.625 C 1.078125 1.625 1.078125 1.5625 1.078125 1.46875 C 1.078125 1.34375 1.5 -0.28125 1.5625 -0.53125 C 1.6875 -0.234375 1.96875 0.109375 2.484375 0.109375 C 3.640625 0.109375 4.890625 -1.34375 4.890625 -2.8125 C 4.890625 -3.75 4.3125 -4.40625 3.5625 -4.40625 C 3.0625 -4.40625 2.578125 -4.046875 2.25 -3.65625 C 2.15625 -4.203125 1.71875 -4.40625 1.359375 -4.40625 C 0.890625 -4.40625 0.703125 -4.015625 0.625 -3.84375 C 0.4375 -3.5 0.3125 -2.90625 0.3125 -2.875 C 0.3125 -2.765625 0.40625 -2.765625 0.421875 -2.765625 C 0.53125 -2.765625 0.53125 -2.78125 0.59375 -3 C 0.765625 -3.703125 0.96875 -4.1875 1.328125 -4.1875 C 1.5 -4.1875 1.640625 -4.109375 1.640625 -3.734375 C 1.640625 -3.5 1.609375 -3.390625 1.5625 -3.21875 Z M 2.203125 -3.109375 C 2.265625 -3.375 2.546875 -3.65625 2.71875 -3.8125 C 3.078125 -4.109375 3.359375 -4.1875 3.53125 -4.1875 C 3.921875 -4.1875 4.171875 -3.84375 4.171875 -3.25 C 4.171875 -2.65625 3.84375 -1.515625 3.65625 -1.140625 C 3.3125 -0.4375 2.84375 -0.109375 2.46875 -0.109375 C 1.8125 -0.109375 1.6875 -0.9375 1.6875 -1 C 1.6875 -1.015625 1.6875 -1.03125 1.71875 -1.15625 Z M 2.203125 -3.109375"/>
    <path fill="#ff0000" transform="matrix(1 0 0 1 227.012 21.494)" d="M 0.515625 0.84375 C 0.46875 1.046875 0.453125 1.09375 0.1875 1.09375 C 0.09375 1.09375 0 1.09375 0 1.25 C 0 1.328125 0.0625 1.359375 0.09375 1.359375 C 0.265625 1.359375 0.5 1.328125 0.6875 1.328125 C 0.921875 1.328125 1.1875 1.359375 1.421875 1.359375 C 1.484375 1.359375 1.5625 1.328125 1.5625 1.203125 C 1.5625 1.09375 1.46875 1.09375 1.375 1.09375 C 1.21875 1.09375 1.03125 1.09375 1.03125 1.015625 C 1.03125 0.984375 1.09375 0.796875 1.109375 0.703125 C 1.203125 0.328125 1.296875 -0.046875 1.375 -0.34375 C 1.453125 -0.203125 1.671875 0.0625 2.09375 0.0625 C 2.9375 0.0625 3.875 -0.875 3.875 -1.90625 C 3.875 -2.71875 3.3125 -3.078125 2.84375 -3.078125 C 2.40625 -3.078125 2.03125 -2.78125 1.84375 -2.578125 C 1.734375 -2.984375 1.34375 -3.078125 1.125 -3.078125 C 0.859375 -3.078125 0.6875 -2.890625 0.578125 -2.703125 C 0.4375 -2.46875 0.328125 -2.046875 0.328125 -2 C 0.328125 -1.921875 0.421875 -1.921875 0.453125 -1.921875 C 0.546875 -1.921875 0.546875 -1.9375 0.59375 -2.125 C 0.703125 -2.53125 0.84375 -2.875 1.109375 -2.875 C 1.296875 -2.875 1.34375 -2.71875 1.34375 -2.53125 C 1.34375 -2.453125 1.328125 -2.375 1.3125 -2.328125 Z M 1.84375 -2.234375 C 2.25 -2.78125 2.59375 -2.875 2.8125 -2.875 C 3.09375 -2.875 3.328125 -2.671875 3.328125 -2.203125 C 3.328125 -1.921875 3.171875 -1.203125 2.96875 -0.796875 C 2.78125 -0.453125 2.453125 -0.125 2.09375 -0.125 C 1.59375 -0.125 1.46875 -0.65625 1.46875 -0.734375 C 1.46875 -0.765625 1.484375 -0.8125 1.484375 -0.84375 Z M 1.84375 -2.234375"/>
    <path fill="#ff0000" transform="matrix(1 0 0 1 234.938 20)" d="M 1.09375 -3.421875 L 1.09375 -0.75 C 1.09375 -0.3125 0.984375 -0.3125 0.3125 -0.3125 L 0.3125 0 C 0.671875 -0.015625 1.171875 -0.03125 1.453125 -0.03125 C 1.703125 -0.03125 2.21875 -0.015625 2.5625 0 L 2.5625 -0.3125 C 1.890625 -0.3125 1.78125 -0.3125 1.78125 -0.75 L 1.78125 -2.59375 C 1.78125 -3.625 2.5 -4.1875 3.125 -4.1875 C 3.765625 -4.1875 3.875 -3.65625 3.875 -3.078125 L 3.875 -0.75 C 3.875 -0.3125 3.765625 -0.3125 3.09375 -0.3125 L 3.09375 0 C 3.4375 -0.015625 3.953125 -0.03125 4.21875 -0.03125 C 4.46875 -0.03125 5 -0.015625 5.328125 0 L 5.328125 -0.3125 C 4.671875 -0.3125 4.5625 -0.3125 4.5625 -0.75 L 4.5625 -2.59375 C 4.5625 -3.625 5.265625 -4.1875 5.90625 -4.1875 C 6.53125 -4.1875 6.640625 -3.65625 6.640625 -3.078125 L 6.640625 -0.75 C 6.640625 -0.3125 6.53125 -0.3125 5.859375 -0.3125 L 5.859375 0 C 6.203125 -0.015625 6.71875 -0.03125 6.984375 -0.03125 C 7.25 -0.03125 7.765625 -0.015625 8.109375 0 L 8.109375 -0.3125 C 7.59375 -0.3125 7.34375 -0.3125 7.328125 -0.609375 L 7.328125 -2.515625 C 7.328125 -3.375 7.328125 -3.671875 7.015625 -4.03125 C 6.875 -4.203125 6.546875 -4.40625 5.96875 -4.40625 C 5.140625 -4.40625 4.6875 -3.8125 4.53125 -3.421875 C 4.390625 -4.296875 3.65625 -4.40625 3.203125 -4.40625 C 2.46875 -4.40625 2 -3.984375 1.71875 -3.359375 L 1.71875 -4.40625 L 0.3125 -4.296875 L 0.3125 -3.984375 C 1.015625 -3.984375 1.09375 -3.921875 1.09375 -3.421875 Z M 1.09375 -3.421875"/>
    <path fill="#ff0000" transform="matrix(1 0 0 1 243.236846 20)" d="M 3.3125 -0.75 C 3.359375 -0.359375 3.625 0.0625 4.09375 0.0625 C 4.3125 0.0625 4.921875 -0.078125 4.921875 -0.890625 L 4.921875 -1.453125 L 4.671875 -1.453125 L 4.671875 -0.890625 C 4.671875 -0.3125 4.421875 -0.25 4.3125 -0.25 C 3.984375 -0.25 3.9375 -0.703125 3.9375 -0.75 L 3.9375 -2.734375 C 3.9375 -3.15625 3.9375 -3.546875 3.578125 -3.921875 C 3.1875 -4.3125 2.6875 -4.46875 2.21875 -4.46875 C 1.390625 -4.46875 0.703125 -4 0.703125 -3.34375 C 0.703125 -3.046875 0.90625 -2.875 1.171875 -2.875 C 1.453125 -2.875 1.625 -3.078125 1.625 -3.328125 C 1.625 -3.453125 1.578125 -3.78125 1.109375 -3.78125 C 1.390625 -4.140625 1.875 -4.25 2.1875 -4.25 C 2.6875 -4.25 3.25 -3.859375 3.25 -2.96875 L 3.25 -2.609375 C 2.734375 -2.578125 2.046875 -2.546875 1.421875 -2.25 C 0.671875 -1.90625 0.421875 -1.390625 0.421875 -0.953125 C 0.421875 -0.140625 1.390625 0.109375 2.015625 0.109375 C 2.671875 0.109375 3.125 -0.296875 3.3125 -0.75 Z M 3.25 -2.390625 L 3.25 -1.390625 C 3.25 -0.453125 2.53125 -0.109375 2.078125 -0.109375 C 1.59375 -0.109375 1.1875 -0.453125 1.1875 -0.953125 C 1.1875 -1.5 1.609375 -2.328125 3.25 -2.390625 Z M 3.25 -2.390625"/>
    <path fill="#ff0000" transform="matrix(1 0 0 1 248.776051 20)" d="M 2.09375 -4.40625 L 0.578125 -4.296875 L 0.578125 -3.984375 C 1.34375 -3.984375 1.4375 -3.921875 1.4375 -3.421875 L 1.4375 0.515625 C 1.4375 0.96875 1.34375 1.828125 0.703125 1.828125 C 0.65625 1.828125 0.421875 1.828125 0.171875 1.6875 C 0.3125 1.65625 0.515625 1.515625 0.515625 1.25 C 0.515625 0.984375 0.34375 0.78125 0.0625 0.78125 C -0.21875 0.78125 -0.40625 0.984375 -0.40625 1.25 C -0.40625 1.765625 0.15625 2.046875 0.734375 2.046875 C 1.46875 2.046875 2.09375 1.40625 2.09375 0.5 Z M 2.09375 -6.140625 C 2.09375 -6.4375 1.859375 -6.671875 1.5625 -6.671875 C 1.28125 -6.671875 1.03125 -6.4375 1.03125 -6.140625 C 1.03125 -5.859375 1.28125 -5.609375 1.5625 -5.609375 C 1.859375 -5.609375 2.09375 -5.859375 2.09375 -6.140625 Z M 2.09375 -6.140625"/>
    <path fill="#ff0000" transform="matrix(1 0 0 1 251.814644 20)" d="M 4.6875 -2.140625 C 4.6875 -3.40625 3.703125 -4.46875 2.5 -4.46875 C 1.25 -4.46875 0.28125 -3.375 0.28125 -2.140625 C 0.28125 -0.84375 1.3125 0.109375 2.484375 0.109375 C 3.6875 0.109375 4.6875 -0.875 4.6875 -2.140625 Z M 2.5 -0.140625 C 2.0625 -0.140625 1.625 -0.34375 1.359375 -0.8125 C 1.109375 -1.25 1.109375 -1.859375 1.109375 -2.21875 C 1.109375 -2.609375 1.109375 -3.140625 1.34375 -3.578125 C 1.609375 -4.03125 2.078125 -4.25 2.484375 -4.25 C 2.921875 -4.25 3.34375 -4.03125 3.609375 -3.59375 C 3.875 -3.171875 3.875 -2.59375 3.875 -2.21875 C 3.875 -1.859375 3.875 -1.3125 3.65625 -0.875 C 3.421875 -0.421875 2.984375 -0.140625 2.5 -0.140625 Z M 2.5 -0.140625"/>
    <path fill="#ff0000" transform="matrix(1 0 0 1 256.795944 20)" d="M 1.671875 -3.3125 L 1.671875 -4.40625 L 0.28125 -4.296875 L 0.28125 -3.984375 C 0.984375 -3.984375 1.0625 -3.921875 1.0625 -3.421875 L 1.0625 -0.75 C 1.0625 -0.3125 0.953125 -0.3125 0.28125 -0.3125 L 0.28125 0 C 0.671875 -0.015625 1.140625 -0.03125 1.421875 -0.03125 C 1.8125 -0.03125 2.28125 -0.03125 2.6875 0 L 2.6875 -0.3125 L 2.46875 -0.3125 C 1.734375 -0.3125 1.71875 -0.421875 1.71875 -0.78125 L 1.71875 -2.3125 C 1.71875 -3.296875 2.140625 -4.1875 2.890625 -4.1875 C 2.953125 -4.1875 2.984375 -4.1875 3 -4.171875 C 2.96875 -4.171875 2.765625 -4.046875 2.765625 -3.78125 C 2.765625 -3.515625 2.984375 -3.359375 3.203125 -3.359375 C 3.375 -3.359375 3.625 -3.484375 3.625 -3.796875 C 3.625 -4.109375 3.3125 -4.40625 2.890625 -4.40625 C 2.15625 -4.40625 1.796875 -3.734375 1.671875 -3.3125 Z M 1.671875 -3.3125"/>
    <path fill="#ff0000" transform="matrix(1 0 0 1 260.691321 20)" d="M 1.765625 -4.40625 L 0.375 -4.296875 L 0.375 -3.984375 C 1.015625 -3.984375 1.109375 -3.921875 1.109375 -3.4375 L 1.109375 -0.75 C 1.109375 -0.3125 1 -0.3125 0.328125 -0.3125 L 0.328125 0 C 0.640625 -0.015625 1.1875 -0.03125 1.421875 -0.03125 C 1.78125 -0.03125 2.125 -0.015625 2.46875 0 L 2.46875 -0.3125 C 1.796875 -0.3125 1.765625 -0.359375 1.765625 -0.75 Z M 1.796875 -6.140625 C 1.796875 -6.453125 1.5625 -6.671875 1.28125 -6.671875 C 0.96875 -6.671875 0.75 -6.40625 0.75 -6.140625 C 0.75 -5.875 0.96875 -5.609375 1.28125 -5.609375 C 1.5625 -5.609375 1.796875 -5.828125 1.796875 -6.140625 Z M 1.796875 -6.140625"/>
    <path fill="#ff0000" transform="matrix(1 0 0 1 263.450961 20)" d="M 1.71875 -3.984375 L 3.15625 -3.984375 L 3.15625 -4.296875 L 1.71875 -4.296875 L 1.71875 -6.125 L 1.46875 -6.125 C 1.46875 -5.3125 1.171875 -4.25 0.1875 -4.203125 L 0.1875 -3.984375 L 1.03125 -3.984375 L 1.03125 -1.234375 C 1.03125 -0.015625 1.96875 0.109375 2.328125 0.109375 C 3.03125 0.109375 3.3125 -0.59375 3.3125 -1.234375 L 3.3125 -1.796875 L 3.0625 -1.796875 L 3.0625 -1.25 C 3.0625 -0.515625 2.765625 -0.140625 2.390625 -0.140625 C 1.71875 -0.140625 1.71875 -1.046875 1.71875 -1.21875 Z M 1.71875 -3.984375"/>
    <path fill="#ff0000" transform="matrix(1 0 0 1 267.037497 20)" d="M 4.140625 -3.34375 C 4.390625 -3.984375 4.90625 -3.984375 5.0625 -3.984375 L 5.0625 -4.296875 C 4.828125 -4.28125 4.546875 -4.265625 4.3125 -4.265625 C 4.140625 -4.265625 3.671875 -4.28125 3.453125 -4.296875 L 3.453125 -3.984375 C 3.765625 -3.984375 3.921875 -3.8125 3.921875 -3.5625 C 3.921875 -3.453125 3.90625 -3.4375 3.859375 -3.3125 L 2.84375 -0.875 L 1.75 -3.546875 C 1.703125 -3.65625 1.6875 -3.6875 1.6875 -3.734375 C 1.6875 -3.984375 2.046875 -3.984375 2.25 -3.984375 L 2.25 -4.296875 C 1.984375 -4.28125 1.328125 -4.265625 1.15625 -4.265625 C 0.890625 -4.265625 0.484375 -4.28125 0.1875 -4.296875 L 0.1875 -3.984375 C 0.671875 -3.984375 0.859375 -3.984375 1 -3.640625 L 2.5 0 C 2.4375 0.125 2.296875 0.453125 2.25 0.59375 C 2.03125 1.140625 1.75 1.828125 1.109375 1.828125 C 1.0625 1.828125 0.828125 1.828125 0.640625 1.640625 C 0.953125 1.609375 1.03125 1.390625 1.03125 1.21875 C 1.03125 0.96875 0.84375 0.8125 0.609375 0.8125 C 0.40625 0.8125 0.1875 0.9375 0.1875 1.234375 C 0.1875 1.6875 0.609375 2.046875 1.109375 2.046875 C 1.734375 2.046875 2.140625 1.46875 2.375 0.90625 Z M 4.140625 -3.34375"/>
    <path fill="#0000ff" transform="matrix(1 0 0 1 222 56)" d="M 0.875 -0.59375 C 0.84375 -0.4375 0.78125 -0.203125 0.78125 -0.15625 C 0.78125 0.015625 0.921875 0.109375 1.078125 0.109375 C 1.203125 0.109375 1.375 0.03125 1.453125 -0.171875 C 1.453125 -0.1875 1.578125 -0.65625 1.640625 -0.90625 L 1.859375 -1.796875 C 1.90625 -2.03125 1.96875 -2.25 2.03125 -2.46875 C 2.0625 -2.640625 2.140625 -2.9375 2.15625 -2.96875 C 2.296875 -3.28125 2.828125 -4.1875 3.78125 -4.1875 C 4.234375 -4.1875 4.3125 -3.8125 4.3125 -3.484375 C 4.3125 -2.875 3.828125 -1.59375 3.671875 -1.171875 C 3.578125 -0.9375 3.5625 -0.8125 3.5625 -0.703125 C 3.5625 -0.234375 3.921875 0.109375 4.390625 0.109375 C 5.328125 0.109375 5.6875 -1.34375 5.6875 -1.421875 C 5.6875 -1.53125 5.609375 -1.53125 5.578125 -1.53125 C 5.46875 -1.53125 5.46875 -1.5 5.421875 -1.34375 C 5.21875 -0.671875 4.890625 -0.109375 4.40625 -0.109375 C 4.234375 -0.109375 4.171875 -0.203125 4.171875 -0.4375 C 4.171875 -0.6875 4.25 -0.921875 4.34375 -1.140625 C 4.53125 -1.671875 4.953125 -2.765625 4.953125 -3.34375 C 4.953125 -4 4.53125 -4.40625 3.8125 -4.40625 C 2.90625 -4.40625 2.421875 -3.765625 2.25 -3.53125 C 2.203125 -4.09375 1.796875 -4.40625 1.328125 -4.40625 C 0.875 -4.40625 0.6875 -4.015625 0.59375 -3.84375 C 0.421875 -3.5 0.296875 -2.90625 0.296875 -2.875 C 0.296875 -2.765625 0.390625 -2.765625 0.40625 -2.765625 C 0.515625 -2.765625 0.515625 -2.78125 0.578125 -3 C 0.75 -3.703125 0.953125 -4.1875 1.3125 -4.1875 C 1.5 -4.1875 1.609375 -4.0625 1.609375 -3.734375 C 1.609375 -3.515625 1.578125 -3.40625 1.453125 -2.890625 Z M 0.875 -0.59375"/>
    <path fill="#0000ff" transform="matrix(1 0 0 1 227.98 57.494)" d="M 0.515625 0.84375 C 0.46875 1.046875 0.453125 1.09375 0.1875 1.09375 C 0.09375 1.09375 0 1.09375 0 1.25 C 0 1.328125 0.0625 1.359375 0.09375 1.359375 C 0.265625 1.359375 0.5 1.328125 0.6875 1.328125 C 0.921875 1.328125 1.1875 1.359375 1.421875 1.359375 C 1.484375 1.359375 1.5625 1.328125 1.5625 1.203125 C 1.5625 1.09375 1.46875 1.09375 1.375 1.09375 C 1.21875 1.09375 1.03125 1.09375 1.03125 1.015625 C 1.03125 0.984375 1.09375 0.796875 1.109375 0.703125 C 1.203125 0.328125 1.296875 -0.046875 1.375 -0.34375 C 1.453125 -0.203125 1.671875 0.0625 2.09375 0.0625 C 2.9375 0.0625 3.875 -0.875 3.875 -1.90625 C 3.875 -2.71875 3.3125 -3.078125 2.84375 -3.078125 C 2.40625 -3.078125 2.03125 -2.78125 1.84375 -2.578125 C 1.734375 -2.984375 1.34375 -3.078125 1.125 -3.078125 C 0.859375 -3.078125 0.6875 -2.890625 0.578125 -2.703125 C 0.4375 -2.46875 0.328125 -2.046875 0.328125 -2 C 0.328125 -1.921875 0.421875 -1.921875 0.453125 -1.921875 C 0.546875 -1.921875 0.546875 -1.9375 0.59375 -2.125 C 0.703125 -2.53125 0.84375 -2.875 1.109375 -2.875 C 1.296875 -2.875 1.34375 -2.71875 1.34375 -2.53125 C 1.34375 -2.453125 1.328125 -2.375 1.3125 -2.328125 Z M 1.84375 -2.234375 C 2.25 -2.78125 2.59375 -2.875 2.8125 -2.875 C 3.09375 -2.875 3.328125 -2.671875 3.328125 -2.203125 C 3.328125 -1.921875 3.171875 -1.203125 2.96875 -0.796875 C 2.78125 -0.453125 2.453125 -0.125 2.09375 -0.125 C 1.59375 -0.125 1.46875 -0.65625 1.46875 -0.734375 C 1.46875 -0.765625 1.484375 -0.8125 1.484375 -0.84375 Z M 1.84375 -2.234375"/>
    <path fill="#0000ff" transform="matrix(1 0 0 1 235.906 56)" d="M 1.09375 -3.421875 L 1.09375 -0.75 C 1.09375 -0.3125 0.984375 -0.3125 0.3125 -0.3125 L 0.3125 0 C 0.671875 -0.015625 1.171875 -0.03125 1.453125 -0.03125 C 1.703125 -0.03125 2.21875 -0.015625 2.5625 0 L 2.5625 -0.3125 C 1.890625 -0.3125 1.78125 -0.3125 1.78125 -0.75 L 1.78125 -2.59375 C 1.78125 -3.625 2.5 -4.1875 3.125 -4.1875 C 3.765625 -4.1875 3.875 -3.65625 3.875 -3.078125 L 3.875 -0.75 C 3.875 -0.3125 3.765625 -0.3125 3.09375 -0.3125 L 3.09375 0 C 3.4375 -0.015625 3.953125 -0.03125 4.21875 -0.03125 C 4.46875 -0.03125 5 -0.015625 5.328125 0 L 5.328125 -0.3125 C 4.671875 -0.3125 4.5625 -0.3125 4.5625 -0.75 L 4.5625 -2.59375 C 4.5625 -3.625 5.265625 -4.1875 5.90625 -4.1875 C 6.53125 -4.1875 6.640625 -3.65625 6.640625 -3.078125 L 6.640625 -0.75 C 6.640625 -0.3125 6.53125 -0.3125 5.859375 -0.3125 L 5.859375 0 C 6.203125 -0.015625 6.71875 -0.03125 6.984375 -0.03125 C 7.25 -0.03125 7.765625 -0.015625 8.109375 0 L 8.109375 -0.3125 C 7.59375 -0.3125 7.34375 -0.3125 7.328125 -0.609375 L 7.328125 -2.515625 C 7.328125 -3.375 7.328125 -3.671875 7.015625 -4.03125 C 6.875 -4.203125 6.546875 -4.40625 5.96875 -4.40625 C 5.140625 -4.40625 4.6875 -3.8125 4.53125 -3.421875 C 4.390625 -4.296875 3.65625 -4.40625 3.203125 -4.40625 C 2.46875 -4.40625 2 -3.984375 1.71875 -3.359375 L 1.71875 -4.40625 L 0.3125 -4.296875 L 0.3125 -3.984375 C 1.015625 -3.984375 1.09375 -3.921875 1.09375 -3.421875 Z M 1.09375 -3.421875"/>
    <path fill="#0000ff" transform="matrix(1 0 0 1 244.204846 56)" d="M 1.765625 -4.40625 L 0.375 -4.296875 L 0.375 -3.984375 C 1.015625 -3.984375 1.109375 -3.921875 1.109375 -3.4375 L 1.109375 -0.75 C 1.109375 -0.3125 1 -0.3125 0.328125 -0.3125 L 0.328125 0 C 0.640625 -0.015625 1.1875 -0.03125 1.421875 -0.03125 C 1.78125 -0.03125 2.125 -0.015625 2.46875 0 L 2.46875 -0.3125 C 1.796875 -0.3125 1.765625 -0.359375 1.765625 -0.75 Z M 1.796875 -6.140625 C 1.796875 -6.453125 1.5625 -6.671875 1.28125 -6.671875 C 0.96875 -6.671875 0.75 -6.40625 0.75 -6.140625 C 0.75 -5.875 0.96875 -5.609375 1.28125 -5.609375 C 1.5625 -5.609375 1.796875 -5.828125 1.796875 -6.140625 Z M 1.796875 -6.140625"/>
    <path fill="#0000ff" transform="matrix(1 0 0 1 246.964486 56)" d="M 1.09375 -3.421875 L 1.09375 -0.75 C 1.09375 -0.3125 0.984375 -0.3125 0.3125 -0.3125 L 0.3125 0 C 0.671875 -0.015625 1.171875 -0.03125 1.453125 -0.03125 C 1.703125 -0.03125 2.21875 -0.015625 2.5625 0 L 2.5625 -0.3125 C 1.890625 -0.3125 1.78125 -0.3125 1.78125 -0.75 L 1.78125 -2.59375 C 1.78125 -3.625 2.5 -4.1875 3.125 -4.1875 C 3.765625 -4.1875 3.875 -3.65625 3.875 -3.078125 L 3.875 -0.75 C 3.875 -0.3125 3.765625 -0.3125 3.09375 -0.3125 L 3.09375 0 C 3.4375 -0.015625 3.953125 -0.03125 4.21875 -0.03125 C 4.46875 -0.03125 5 -0.015625 5.328125 0 L 5.328125 -0.3125 C 4.8125 -0.3125 4.5625 -0.3125 4.5625 -0.609375 L 4.5625 -2.515625 C 4.5625 -3.375 4.5625 -3.671875 4.25 -4.03125 C 4.109375 -4.203125 3.78125 -4.40625 3.203125 -4.40625 C 2.46875 -4.40625 2 -3.984375 1.71875 -3.359375 L 1.71875 -4.40625 L 0.3125 -4.296875 L 0.3125 -3.984375 C 1.015625 -3.984375 1.09375 -3.921875 1.09375 -3.421875 Z M 1.09375 -3.421875"/>
    <path fill="#0000ff" transform="matrix(1 0 0 1 252.493729 56)" d="M 4.6875 -2.140625 C 4.6875 -3.40625 3.703125 -4.46875 2.5 -4.46875 C 1.25 -4.46875 0.28125 -3.375 0.28125 -2.140625 C 0.28125 -0.84375 1.3125 0.109375 2.484375 0.109375 C 3.6875 0.109375 4.6875 -0.875 4.6875 -2.140625 Z M 2.5 -0.140625 C 2.0625 -0.140625 1.625 -0.34375 1.359375 -0.8125 C 1.109375 -1.25 1.109375 -1.859375 1.109375 -2.21875 C 1.109375 -2.609375 1.109375 -3.140625 1.34375 -3.578125 C 1.609375 -4.03125 2.078125 -4.25 2.484375 -4.25 C 2.921875 -4.25 3.34375 -4.03125 3.609375 -3.59375 C 3.875 -3.171875 3.875 -2.59375 3.875 -2.21875 C 3.875 -1.859375 3.875 -1.3125 3.65625 -0.875 C 3.421875 -0.421875 2.984375 -0.140625 2.5 -0.140625 Z M 2.5 -0.140625"/>
    <path fill="#0000ff" transform="matrix(1 0 0 1 257.475029 56)" d="M 1.671875 -3.3125 L 1.671875 -4.40625 L 0.28125 -4.296875 L 0.28125 -3.984375 C 0.984375 -3.984375 1.0625 -3.921875 1.0625 -3.421875 L 1.0625 -0.75 C 1.0625 -0.3125 0.953125 -0.3125 0.28125 -0.3125 L 0.28125 0 C 0.671875 -0.015625 1.140625 -0.03125 1.421875 -0.03125 C 1.8125 -0.03125 2.28125 -0.03125 2.6875 0 L 2.6875 -0.3125 L 2.46875 -0.3125 C 1.734375 -0.3125 1.71875 -0.421875 1.71875 -0.78125 L 1.71875 -2.3125 C 1.71875 -3.296875 2.140625 -4.1875 2.890625 -4.1875 C 2.953125 -4.1875 2.984375 -4.1875 3 -4.171875 C 2.96875 -4.171875 2.765625 -4.046875 2.765625 -3.78125 C 2.765625 -3.515625 2.984375 -3.359375 3.203125 -3.359375 C 3.375 -3.359375 3.625 -3.484375 3.625 -3.796875 C 3.625 -4.109375 3.3125 -4.40625 2.890625 -4.40625 C 2.15625 -4.40625 1.796875 -3.734375 1.671875 -3.3125 Z M 1.671875 -3.3125"/>
    <path fill="#0000ff" transform="matrix(1 0 0 1 261.370406 56)" d="M 1.765625 -4.40625 L 0.375 -4.296875 L 0.375 -3.984375 C 1.015625 -3.984375 1.109375 -3.921875 1.109375 -3.4375 L 1.109375 -0.75 C 1.109375 -0.3125 1 -0.3125 0.328125 -0.3125 L 0.328125 0 C 0.640625 -0.015625 1.1875 -0.03125 1.421875 -0.03125 C 1.78125 -0.03125 2.125 -0.015625 2.46875 0 L 2.46875 -0.3125 C 1.796875 -0.3125 1.765625 -0.359375 1.765625 -0.75 Z M 1.796875 -6.140625 C 1.796875 -6.453125 1.5625 -6.671875 1.28125 -6.671875 C 0.96875 -6.671875 0.75 -6.40625 0.75 -6.140625 C 0.75 -5.875 0.96875 -5.609375 1.28125 -5.609375 C 1.5625 -5.609375 1.796875 -5.828125 1.796875 -6.140625 Z M 1.796875 -6.140625"/>
    <path fill="#0000ff" transform="matrix(1 0 0 1 264.130046 56)" d="M 1.71875 -3.984375 L 3.15625 -3.984375 L 3.15625 -4.296875 L 1.71875 -4.296875 L 1.71875 -6.125 L 1.46875 -6.125 C 1.46875 -5.3125 1.171875 -4.25 0.1875 -4.203125 L 0.1875 -3.984375 L 1.03125 -3.984375 L 1.03125 -1.234375 C 1.03125 -0.015625 1.96875 0.109375 2.328125 0.109375 C 3.03125 0.109375 3.3125 -0.59375 3.3125 -1.234375 L 3.3125 -1.796875 L 3.0625 -1.796875 L 3.0625 -1.25 C 3.0625 -0.515625 2.765625 -0.140625 2.390625 -0.140625 C 1.71875 -0.140625 1.71875 -1.046875 1.71875 -1.21875 Z M 1.71875 -3.984375"/>
    <path fill="#0000ff" transform="matrix(1 0 0 1 267.716582 56)" d="M 4.140625 -3.34375 C 4.390625 -3.984375 4.90625 -3.984375 5.0625 -3.984375 L 5.0625 -4.296875 C 4.828125 -4.28125 4.546875 -4.265625 4.3125 -4.265625 C 4.140625 -4.265625 3.671875 -4.28125 3.453125 -4.296875 L 3.453125 -3.984375 C 3.765625 -3.984375 3.921875 -3.8125 3.921875 -3.5625 C 3.921875 -3.453125 3.90625 -3.4375 3.859375 -3.3125 L 2.84375 -0.875 L 1.75 -3.546875 C 1.703125 -3.65625 1.6875 -3.6875 1.6875 -3.734375 C 1.6875 -3.984375 2.046875 -3.984375 2.25 -3.984375 L 2.25 -4.296875 C 1.984375 -4.28125 1.328125 -4.265625 1.15625 -4.265625 C 0.890625 -4.265625 0.484375 -4.28125 0.1875 -4.296875 L 0.1875 -3.984375 C 0.671875 -3.984375 0.859375 -3.984375 1 -3.640625 L 2.5 0 C 2.4375 0.125 2.296875 0.453125 2.25 0.59375 C 2.03125 1.140625 1.75 1.828125 1.109375 1.828125 C 1.0625 1.828125 0.828125 1.828125 0.640625 1.640625 C 0.953125 1.609375 1.03125 1.390625 1.03125 1.21875 C 1.03125 0.96875 0.84375 0.8125 0.609375 0.8125 C 0.40625 0.8125 0.1875 0.9375 0.1875 1.234375 C 0.1875 1.6875 0.609375 2.046875 1.109375 2.046875 C 1.734375 2.046875 2.140625 1.46875 2.375 0.90625 Z M 4.140625 -3.34375"/>
    <path fill="#0000ff" transform="matrix(1 0 0 1 1.889 19.993)" d="M 1.09375 -3.421875 L 1.09375 -0.75 C 1.09375 -0.3125 0.984375 -0.3125 0.3125 -0.3125 L 0.3125 0 C 0.671875 -0.015625 1.171875 -0.03125 1.453125 -0.03125 C 1.703125 -0.03125 2.21875 -0.015625 2.5625 0 L 2.5625 -0.3125 C 1.890625 -0.3125 1.78125 -0.3125 1.78125 -0.75 L 1.78125 -2.59375 C 1.78125 -3.625 2.5 -4.1875 3.125 -4.1875 C 3.765625 -4.1875 3.875 -3.65625 3.875 -3.078125 L 3.875 -0.75 C 3.875 -0.3125 3.765625 -0.3125 3.09375 -0.3125 L 3.09375 0 C 3.4375 -0.015625 3.953125 -0.03125 4.21875 -0.03125 C 4.46875 -0.03125 5 -0.015625 5.328125 0 L 5.328125 -0.3125 C 4.671875 -0.3125 4.5625 -0.3125 4.5625 -0.75 L 4.5625 -2.59375 C 4.5625 -3.625 5.265625 -4.1875 5.90625 -4.1875 C 6.53125 -4.1875 6.640625 -3.65625 6.640625 -3.078125 L 6.640625 -0.75 C 6.640625 -0.3125 6.53125 -0.3125 5.859375 -0.3125 L 5.859375 0 C 6.203125 -0.015625 6.71875 -0.03125 6.984375 -0.03125 C 7.25 -0.03125 7.765625 -0.015625 8.109375 0 L 8.109375 -0.3125 C 7.59375 -0.3125 7.34375 -0.3125 7.328125 -0.609375 L 7.328125 -2.515625 C 7.328125 -3.375 7.328125 -3.671875 7.015625 -4.03125 C 6.875 -4.203125 6.546875 -4.40625 5.96875 -4.40625 C 5.140625 -4.40625 4.6875 -3.8125 4.53125 -3.421875 C 4.390625 -4.296875 3.65625 -4.40625 3.203125 -4.40625 C 2.46875 -4.40625 2 -3.984375 1.71875 -3.359375 L 1.71875 -4.40625 L 0.3125 -4.296875 L 0.3125 -3.984375 C 1.015625 -3.984375 1.09375 -3.921875 1.09375 -3.421875 Z M 1.09375 -3.421875"/>
    <path fill="#0000ff" transform="matrix(1 0 0 1 10.187846 19.993)" d="M 3.3125 -0.75 C 3.359375 -0.359375 3.625 0.0625 4.09375 0.0625 C 4.3125 0.0625 4.921875 -0.078125 4.921875 -0.890625 L 4.921875 -1.453125 L 4.671875 -1.453125 L 4.671875 -0.890625 C 4.671875 -0.3125 4.421875 -0.25 4.3125 -0.25 C 3.984375 -0.25 3.9375 -0.703125 3.9375 -0.75 L 3.9375 -2.734375 C 3.9375 -3.15625 3.9375 -3.546875 3.578125 -3.921875 C 3.1875 -4.3125 2.6875 -4.46875 2.21875 -4.46875 C 1.390625 -4.46875 0.703125 -4 0.703125 -3.34375 C 0.703125 -3.046875 0.90625 -2.875 1.171875 -2.875 C 1.453125 -2.875 1.625 -3.078125 1.625 -3.328125 C 1.625 -3.453125 1.578125 -3.78125 1.109375 -3.78125 C 1.390625 -4.140625 1.875 -4.25 2.1875 -4.25 C 2.6875 -4.25 3.25 -3.859375 3.25 -2.96875 L 3.25 -2.609375 C 2.734375 -2.578125 2.046875 -2.546875 1.421875 -2.25 C 0.671875 -1.90625 0.421875 -1.390625 0.421875 -0.953125 C 0.421875 -0.140625 1.390625 0.109375 2.015625 0.109375 C 2.671875 0.109375 3.125 -0.296875 3.3125 -0.75 Z M 3.25 -2.390625 L 3.25 -1.390625 C 3.25 -0.453125 2.53125 -0.109375 2.078125 -0.109375 C 1.59375 -0.109375 1.1875 -0.453125 1.1875 -0.953125 C 1.1875 -1.5 1.609375 -2.328125 3.25 -2.390625 Z M 3.25 -2.390625"/>
    <path fill="#0000ff" transform="matrix(1 0 0 1 15.727051 19.993)" d="M 2.09375 -4.40625 L 0.578125 -4.296875 L 0.578125 -3.984375 C 1.34375 -3.984375 1.4375 -3.921875 1.4375 -3.421875 L 1.4375 0.515625 C 1.4375 0.96875 1.34375 1.828125 0.703125 1.828125 C 0.65625 1.828125 0.421875 1.828125 0.171875 1.6875 C 0.3125 1.65625 0.515625 1.515625 0.515625 1.25 C 0.515625 0.984375 0.34375 0.78125 0.0625 0.78125 C -0.21875 0.78125 -0.40625 0.984375 -0.40625 1.25 C -0.40625 1.765625 0.15625 2.046875 0.734375 2.046875 C 1.46875 2.046875 2.09375 1.40625 2.09375 0.5 Z M 2.09375 -6.140625 C 2.09375 -6.4375 1.859375 -6.671875 1.5625 -6.671875 C 1.28125 -6.671875 1.03125 -6.4375 1.03125 -6.140625 C 1.03125 -5.859375 1.28125 -5.609375 1.5625 -5.609375 C 1.859375 -5.609375 2.09375 -5.859375 2.09375 -6.140625 Z M 2.09375 -6.140625"/>
    <path fill="#0000ff" transform="matrix(1 0 0 1 18.765644 19.993)" d="M 4.6875 -2.140625 C 4.6875 -3.40625 3.703125 -4.46875 2.5 -4.46875 C 1.25 -4.46875 0.28125 -3.375 0.28125 -2.140625 C 0.28125 -0.84375 1.3125 0.109375 2.484375 0.109375 C 3.6875 0.109375 4.6875 -0.875 4.6875 -2.140625 Z M 2.5 -0.140625 C 2.0625 -0.140625 1.625 -0.34375 1.359375 -0.8125 C 1.109375 -1.25 1.109375 -1.859375 1.109375 -2.21875 C 1.109375 -2.609375 1.109375 -3.140625 1.34375 -3.578125 C 1.609375 -4.03125 2.078125 -4.25 2.484375 -4.25 C 2.921875 -4.25 3.34375 -4.03125 3.609375 -3.59375 C 3.875 -3.171875 3.875 -2.59375 3.875 -2.21875 C 3.875 -1.859375 3.875 -1.3125 3.65625 -0.875 C 3.421875 -0.421875 2.984375 -0.140625 2.5 -0.140625 Z M 2.5 -0.140625"/>
    <path fill="#0000ff" transform="matrix(1 0 0 1 23.746944 19.993)" d="M 1.671875 -3.3125 L 1.671875 -4.40625 L 0.28125 -4.296875 L 0.28125 -3.984375 C 0.984375 -3.984375 1.0625 -3.921875 1.0625 -3.421875 L 1.0625 -0.75 C 1.0625 -0.3125 0.953125 -0.3125 0.28125 -0.3125 L 0.28125 0 C 0.671875 -0.015625 1.140625 -0.03125 1.421875 -0.03125 C 1.8125 -0.03125 2.28125 -0.03125 2.6875 0 L 2.6875 -0.3125 L 2.46875 -0.3125 C 1.734375 -0.3125 1.71875 -0.421875 1.71875 -0.78125 L 1.71875 -2.3125 C 1.71875 -3.296875 2.140625 -4.1875 2.890625 -4.1875 C 2.953125 -4.1875 2.984375 -4.1875 3 -4.171875 C 2.96875 -4.171875 2.765625 -4.046875 2.765625 -3.78125 C 2.765625 -3.515625 2.984375 -3.359375 3.203125 -3.359375 C 3.375 -3.359375 3.625 -3.484375 3.625 -3.796875 C 3.625 -4.109375 3.3125 -4.40625 2.890625 -4.40625 C 2.15625 -4.40625 1.796875 -3.734375 1.671875 -3.3125 Z M 1.671875 -3.3125"/>
    <path fill="#0000ff" transform="matrix(1 0 0 1 27.642321 19.993)" d="M 1.765625 -4.40625 L 0.375 -4.296875 L 0.375 -3.984375 C 1.015625 -3.984375 1.109375 -3.921875 1.109375 -3.4375 L 1.109375 -0.75 C 1.109375 -0.3125 1 -0.3125 0.328125 -0.3125 L 0.328125 0 C 0.640625 -0.015625 1.1875 -0.03125 1.421875 -0.03125 C 1.78125 -0.03125 2.125 -0.015625 2.46875 0 L 2.46875 -0.3125 C 1.796875 -0.3125 1.765625 -0.359375 1.765625 -0.75 Z M 1.796875 -6.140625 C 1.796875 -6.453125 1.5625 -6.671875 1.28125 -6.671875 C 0.96875 -6.671875 0.75 -6.40625 0.75 -6.140625 C 0.75 -5.875 0.96875 -5.609375 1.28125 -5.609375 C 1.5625 -5.609375 1.796875 -5.828125 1.796875 -6.140625 Z M 1.796875 -6.140625"/>
    <path fill="#0000ff" transform="matrix(1 0 0 1 30.401961 19.993)" d="M 1.71875 -3.984375 L 3.15625 -3.984375 L 3.15625 -4.296875 L 1.71875 -4.296875 L 1.71875 -6.125 L 1.46875 -6.125 C 1.46875 -5.3125 1.171875 -4.25 0.1875 -4.203125 L 0.1875 -3.984375 L 1.03125 -3.984375 L 1.03125 -1.234375 C 1.03125 -0.015625 1.96875 0.109375 2.328125 0.109375 C 3.03125 0.109375 3.3125 -0.59375 3.3125 -1.234375 L 3.3125 -1.796875 L 3.0625 -1.796875 L 3.0625 -1.25 C 3.0625 -0.515625 2.765625 -0.140625 2.390625 -0.140625 C 1.71875 -0.140625 1.71875 -1.046875 1.71875 -1.21875 Z M 1.71875 -3.984375"/>
    <path fill="#0000ff" transform="matrix(1 0 0 1 33.988497 19.993)" d="M 4.140625 -3.34375 C 4.390625 -3.984375 4.90625 -3.984375 5.0625 -3.984375 L 5.0625 -4.296875 C 4.828125 -4.28125 4.546875 -4.265625 4.3125 -4.265625 C 4.140625 -4.265625 3.671875 -4.28125 3.453125 -4.296875 L 3.453125 -3.984375 C 3.765625 -3.984375 3.921875 -3.8125 3.921875 -3.5625 C 3.921875 -3.453125 3.90625 -3.4375 3.859375 -3.3125 L 2.84375 -0.875 L 1.75 -3.546875 C 1.703125 -3.65625 1.6875 -3.6875 1.6875 -3.734375 C 1.6875 -3.984375 2.046875 -3.984375 2.25 -3.984375 L 2.25 -4.296875 C 1.984375 -4.28125 1.328125 -4.265625 1.15625 -4.265625 C 0.890625 -4.265625 0.484375 -4.28125 0.1875 -4.296875 L 0.1875 -3.984375 C 0.671875 -3.984375 0.859375 -3.984375 1 -3.640625 L 2.5 0 C 2.4375 0.125 2.296875 0.453125 2.25 0.59375 C 2.03125 1.140625 1.75 1.828125 1.109375 1.828125 C 1.0625 1.828125 0.828125 1.828125 0.640625 1.640625 C 0.953125 1.609375 1.03125 1.390625 1.03125 1.21875 C 1.03125 0.96875 0.84375 0.8125 0.609375 0.8125 C 0.40625 0.8125 0.1875 0.9375 0.1875 1.234375 C 0.1875 1.6875 0.609375 2.046875 1.109375 2.046875 C 1.734375 2.046875 2.140625 1.46875 2.375 0.90625 Z M 4.140625 -3.34375"/>
    <path fill="#0000ff" transform="matrix(1 0 0 1 42.598 19.993)" d="M 0.875 -0.59375 C 0.84375 -0.4375 0.78125 -0.203125 0.78125 -0.15625 C 0.78125 0.015625 0.921875 0.109375 1.078125 0.109375 C 1.203125 0.109375 1.375 0.03125 1.453125 -0.171875 C 1.453125 -0.1875 1.578125 -0.65625 1.640625 -0.90625 L 1.859375 -1.796875 C 1.90625 -2.03125 1.96875 -2.25 2.03125 -2.46875 C 2.0625 -2.640625 2.140625 -2.9375 2.15625 -2.96875 C 2.296875 -3.28125 2.828125 -4.1875 3.78125 -4.1875 C 4.234375 -4.1875 4.3125 -3.8125 4.3125 -3.484375 C 4.3125 -2.875 3.828125 -1.59375 3.671875 -1.171875 C 3.578125 -0.9375 3.5625 -0.8125 3.5625 -0.703125 C 3.5625 -0.234375 3.921875 0.109375 4.390625 0.109375 C 5.328125 0.109375 5.6875 -1.34375 5.6875 -1.421875 C 5.6875 -1.53125 5.609375 -1.53125 5.578125 -1.53125 C 5.46875 -1.53125 5.46875 -1.5 5.421875 -1.34375 C 5.21875 -0.671875 4.890625 -0.109375 4.40625 -0.109375 C 4.234375 -0.109375 4.171875 -0.203125 4.171875 -0.4375 C 4.171875 -0.6875 4.25 -0.921875 4.34375 -1.140625 C 4.53125 -1.671875 4.953125 -2.765625 4.953125 -3.34375 C 4.953125 -4 4.53125 -4.40625 3.8125 -4.40625 C 2.90625 -4.40625 2.421875 -3.765625 2.25 -3.53125 C 2.203125 -4.09375 1.796875 -4.40625 1.328125 -4.40625 C 0.875 -4.40625 0.6875 -4.015625 0.59375 -3.84375 C 0.421875 -3.5 0.296875 -2.90625 0.296875 -2.875 C 0.296875 -2.765625 0.390625 -2.765625 0.40625 -2.765625 C 0.515625 -2.765625 0.515625 -2.78125 0.578125 -3 C 0.75 -3.703125 0.953125 -4.1875 1.3125 -4.1875 C 1.5 -4.1875 1.609375 -4.0625 1.609375 -3.734375 C 1.609375 -3.515625 1.578125 -3.40625 1.453125 -2.890625 Z M 0.875 -0.59375"/>
    <path fill="#0000ff" transform="matrix(1 0 0 1 48.577 21.487)" d="M 0.84375 -0.4375 C 0.828125 -0.34375 0.78125 -0.171875 0.78125 -0.15625 C 0.78125 0 0.90625 0.0625 1.015625 0.0625 C 1.140625 0.0625 1.25 -0.015625 1.296875 -0.078125 C 1.328125 -0.140625 1.375 -0.375 1.421875 -0.515625 C 1.453125 -0.640625 1.53125 -0.96875 1.5625 -1.140625 C 1.609375 -1.296875 1.65625 -1.453125 1.6875 -1.609375 C 1.765625 -1.890625 1.78125 -1.953125 1.984375 -2.234375 C 2.171875 -2.515625 2.5 -2.875 3.03125 -2.875 C 3.421875 -2.875 3.4375 -2.515625 3.4375 -2.390625 C 3.4375 -1.96875 3.140625 -1.203125 3.03125 -0.90625 C 2.953125 -0.703125 2.921875 -0.640625 2.921875 -0.53125 C 2.921875 -0.15625 3.21875 0.0625 3.578125 0.0625 C 4.28125 0.0625 4.578125 -0.890625 4.578125 -1 C 4.578125 -1.09375 4.5 -1.09375 4.46875 -1.09375 C 4.375 -1.09375 4.375 -1.046875 4.34375 -0.96875 C 4.1875 -0.40625 3.875 -0.125 3.609375 -0.125 C 3.453125 -0.125 3.421875 -0.21875 3.421875 -0.375 C 3.421875 -0.53125 3.46875 -0.625 3.59375 -0.9375 C 3.671875 -1.15625 3.953125 -1.890625 3.953125 -2.28125 C 3.953125 -2.953125 3.421875 -3.078125 3.046875 -3.078125 C 2.46875 -3.078125 2.078125 -2.71875 1.875 -2.4375 C 1.828125 -2.921875 1.421875 -3.078125 1.125 -3.078125 C 0.828125 -3.078125 0.671875 -2.859375 0.578125 -2.703125 C 0.421875 -2.4375 0.328125 -2.046875 0.328125 -2 C 0.328125 -1.921875 0.421875 -1.921875 0.453125 -1.921875 C 0.546875 -1.921875 0.546875 -1.9375 0.59375 -2.125 C 0.703125 -2.53125 0.84375 -2.875 1.109375 -2.875 C 1.296875 -2.875 1.34375 -2.71875 1.34375 -2.53125 C 1.34375 -2.40625 1.28125 -2.140625 1.21875 -1.953125 C 1.171875 -1.765625 1.109375 -1.484375 1.078125 -1.328125 Z M 0.84375 -0.4375"/>
    <path fill="#ff0000" transform="matrix(1 0 0 1 3.133 55.993)" d="M 1.09375 -3.421875 L 1.09375 -0.75 C 1.09375 -0.3125 0.984375 -0.3125 0.3125 -0.3125 L 0.3125 0 C 0.671875 -0.015625 1.171875 -0.03125 1.453125 -0.03125 C 1.703125 -0.03125 2.21875 -0.015625 2.5625 0 L 2.5625 -0.3125 C 1.890625 -0.3125 1.78125 -0.3125 1.78125 -0.75 L 1.78125 -2.59375 C 1.78125 -3.625 2.5 -4.1875 3.125 -4.1875 C 3.765625 -4.1875 3.875 -3.65625 3.875 -3.078125 L 3.875 -0.75 C 3.875 -0.3125 3.765625 -0.3125 3.09375 -0.3125 L 3.09375 0 C 3.4375 -0.015625 3.953125 -0.03125 4.21875 -0.03125 C 4.46875 -0.03125 5 -0.015625 5.328125 0 L 5.328125 -0.3125 C 4.671875 -0.3125 4.5625 -0.3125 4.5625 -0.75 L 4.5625 -2.59375 C 4.5625 -3.625 5.265625 -4.1875 5.90625 -4.1875 C 6.53125 -4.1875 6.640625 -3.65625 6.640625 -3.078125 L 6.640625 -0.75 C 6.640625 -0.3125 6.53125 -0.3125 5.859375 -0.3125 L 5.859375 0 C 6.203125 -0.015625 6.71875 -0.03125 6.984375 -0.03125 C 7.25 -0.03125 7.765625 -0.015625 8.109375 0 L 8.109375 -0.3125 C 7.59375 -0.3125 7.34375 -0.3125 7.328125 -0.609375 L 7.328125 -2.515625 C 7.328125 -3.375 7.328125 -3.671875 7.015625 -4.03125 C 6.875 -4.203125 6.546875 -4.40625 5.96875 -4.40625 C 5.140625 -4.40625 4.6875 -3.8125 4.53125 -3.421875 C 4.390625 -4.296875 3.65625 -4.40625 3.203125 -4.40625 C 2.46875 -4.40625 2 -3.984375 1.71875 -3.359375 L 1.71875 -4.40625 L 0.3125 -4.296875 L 0.3125 -3.984375 C 1.015625 -3.984375 1.09375 -3.921875 1.09375 -3.421875 Z M 1.09375 -3.421875"/>
    <path fill="#ff0000" transform="matrix(1 0 0 1 11.431846 55.993)" d="M 1.765625 -4.40625 L 0.375 -4.296875 L 0.375 -3.984375 C 1.015625 -3.984375 1.109375 -3.921875 1.109375 -3.4375 L 1.109375 -0.75 C 1.109375 -0.3125 1 -0.3125 0.328125 -0.3125 L 0.328125 0 C 0.640625 -0.015625 1.1875 -0.03125 1.421875 -0.03125 C 1.78125 -0.03125 2.125 -0.015625 2.46875 0 L 2.46875 -0.3125 C 1.796875 -0.3125 1.765625 -0.359375 1.765625 -0.75 Z M 1.796875 -6.140625 C 1.796875 -6.453125 1.5625 -6.671875 1.28125 -6.671875 C 0.96875 -6.671875 0.75 -6.40625 0.75 -6.140625 C 0.75 -5.875 0.96875 -5.609375 1.28125 -5.609375 C 1.5625 -5.609375 1.796875 -5.828125 1.796875 -6.140625 Z M 1.796875 -6.140625"/>
    <path fill="#ff0000" transform="matrix(1 0 0 1 14.191486 55.993)" d="M 1.09375 -3.421875 L 1.09375 -0.75 C 1.09375 -0.3125 0.984375 -0.3125 0.3125 -0.3125 L 0.3125 0 C 0.671875 -0.015625 1.171875 -0.03125 1.453125 -0.03125 C 1.703125 -0.03125 2.21875 -0.015625 2.5625 0 L 2.5625 -0.3125 C 1.890625 -0.3125 1.78125 -0.3125 1.78125 -0.75 L 1.78125 -2.59375 C 1.78125 -3.625 2.5 -4.1875 3.125 -4.1875 C 3.765625 -4.1875 3.875 -3.65625 3.875 -3.078125 L 3.875 -0.75 C 3.875 -0.3125 3.765625 -0.3125 3.09375 -0.3125 L 3.09375 0 C 3.4375 -0.015625 3.953125 -0.03125 4.21875 -0.03125 C 4.46875 -0.03125 5 -0.015625 5.328125 0 L 5.328125 -0.3125 C 4.8125 -0.3125 4.5625 -0.3125 4.5625 -0.609375 L 4.5625 -2.515625 C 4.5625 -3.375 4.5625 -3.671875 4.25 -4.03125 C 4.109375 -4.203125 3.78125 -4.40625 3.203125 -4.40625 C 2.46875 -4.40625 2 -3.984375 1.71875 -3.359375 L 1.71875 -4.40625 L 0.3125 -4.296875 L 0.3125 -3.984375 C 1.015625 -3.984375 1.09375 -3.921875 1.09375 -3.421875 Z M 1.09375 -3.421875"/>
    <path fill="#ff0000" transform="matrix(1 0 0 1 19.720729 55.993)" d="M 4.6875 -2.140625 C 4.6875 -3.40625 3.703125 -4.46875 2.5 -4.46875 C 1.25 -4.46875 0.28125 -3.375 0.28125 -2.140625 C 0.28125 -0.84375 1.3125 0.109375 2.484375 0.109375 C 3.6875 0.109375 4.6875 -0.875 4.6875 -2.140625 Z M 2.5 -0.140625 C 2.0625 -0.140625 1.625 -0.34375 1.359375 -0.8125 C 1.109375 -1.25 1.109375 -1.859375 1.109375 -2.21875 C 1.109375 -2.609375 1.109375 -3.140625 1.34375 -3.578125 C 1.609375 -4.03125 2.078125 -4.25 2.484375 -4.25 C 2.921875 -4.25 3.34375 -4.03125 3.609375 -3.59375 C 3.875 -3.171875 3.875 -2.59375 3.875 -2.21875 C 3.875 -1.859375 3.875 -1.3125 3.65625 -0.875 C 3.421875 -0.421875 2.984375 -0.140625 2.5 -0.140625 Z M 2.5 -0.140625"/>
    <path fill="#ff0000" transform="matrix(1 0 0 1 24.702029 55.993)" d="M 1.671875 -3.3125 L 1.671875 -4.40625 L 0.28125 -4.296875 L 0.28125 -3.984375 C 0.984375 -3.984375 1.0625 -3.921875 1.0625 -3.421875 L 1.0625 -0.75 C 1.0625 -0.3125 0.953125 -0.3125 0.28125 -0.3125 L 0.28125 0 C 0.671875 -0.015625 1.140625 -0.03125 1.421875 -0.03125 C 1.8125 -0.03125 2.28125 -0.03125 2.6875 0 L 2.6875 -0.3125 L 2.46875 -0.3125 C 1.734375 -0.3125 1.71875 -0.421875 1.71875 -0.78125 L 1.71875 -2.3125 C 1.71875 -3.296875 2.140625 -4.1875 2.890625 -4.1875 C 2.953125 -4.1875 2.984375 -4.1875 3 -4.171875 C 2.96875 -4.171875 2.765625 -4.046875 2.765625 -3.78125 C 2.765625 -3.515625 2.984375 -3.359375 3.203125 -3.359375 C 3.375 -3.359375 3.625 -3.484375 3.625 -3.796875 C 3.625 -4.109375 3.3125 -4.40625 2.890625 -4.40625 C 2.15625 -4.40625 1.796875 -3.734375 1.671875 -3.3125 Z M 1.671875 -3.3125"/>
    <path fill="#ff0000" transform="matrix(1 0 0 1 28.597406 55.993)" d="M 1.765625 -4.40625 L 0.375 -4.296875 L 0.375 -3.984375 C 1.015625 -3.984375 1.109375 -3.921875 1.109375 -3.4375 L 1.109375 -0.75 C 1.109375 -0.3125 1 -0.3125 0.328125 -0.3125 L 0.328125 0 C 0.640625 -0.015625 1.1875 -0.03125 1.421875 -0.03125 C 1.78125 -0.03125 2.125 -0.015625 2.46875 0 L 2.46875 -0.3125 C 1.796875 -0.3125 1.765625 -0.359375 1.765625 -0.75 Z M 1.796875 -6.140625 C 1.796875 -6.453125 1.5625 -6.671875 1.28125 -6.671875 C 0.96875 -6.671875 0.75 -6.40625 0.75 -6.140625 C 0.75 -5.875 0.96875 -5.609375 1.28125 -5.609375 C 1.5625 -5.609375 1.796875 -5.828125 1.796875 -6.140625 Z M 1.796875 -6.140625"/>
    <path fill="#ff0000" transform="matrix(1 0 0 1 31.357046 55.993)" d="M 1.71875 -3.984375 L 3.15625 -3.984375 L 3.15625 -4.296875 L 1.71875 -4.296875 L 1.71875 -6.125 L 1.46875 -6.125 C 1.46875 -5.3125 1.171875 -4.25 0.1875 -4.203125 L 0.1875 -3.984375 L 1.03125 -3.984375 L 1.03125 -1.234375 C 1.03125 -0.015625 1.96875 0.109375 2.328125 0.109375 C 3.03125 0.109375 3.3125 -0.59375 3.3125 -1.234375 L 3.3125 -1.796875 L 3.0625 -1.796875 L 3.0625 -1.25 C 3.0625 -0.515625 2.765625 -0.140625 2.390625 -0.140625 C 1.71875 -0.140625 1.71875 -1.046875 1.71875 -1.21875 Z M 1.71875 -3.984375"/>
    <path fill="#ff0000" transform="matrix(1 0 0 1 34.943582 55.993)" d="M 4.140625 -3.34375 C 4.390625 -3.984375 4.90625 -3.984375 5.0625 -3.984375 L 5.0625 -4.296875 C 4.828125 -4.28125 4.546875 -4.265625 4.3125 -4.265625 C 4.140625 -4.265625 3.671875 -4.28125 3.453125 -4.296875 L 3.453125 -3.984375 C 3.765625 -3.984375 3.921875 -3.8125 3.921875 -3.5625 C 3.921875 -3.453125 3.90625 -3.4375 3.859375 -3.3125 L 2.84375 -0.875 L 1.75 -3.546875 C 1.703125 -3.65625 1.6875 -3.6875 1.6875 -3.734375 C 1.6875 -3.984375 2.046875 -3.984375 2.25 -3.984375 L 2.25 -4.296875 C 1.984375 -4.28125 1.328125 -4.265625 1.15625 -4.265625 C 0.890625 -4.265625 0.484375 -4.28125 0.1875 -4.296875 L 0.1875 -3.984375 C 0.671875 -3.984375 0.859375 -3.984375 1 -3.640625 L 2.5 0 C 2.4375 0.125 2.296875 0.453125 2.25 0.59375 C 2.03125 1.140625 1.75 1.828125 1.109375 1.828125 C 1.0625 1.828125 0.828125 1.828125 0.640625 1.640625 C 0.953125 1.609375 1.03125 1.390625 1.03125 1.21875 C 1.03125 0.96875 0.84375 0.8125 0.609375 0.8125 C 0.40625 0.8125 0.1875 0.9375 0.1875 1.234375 C 0.1875 1.6875 0.609375 2.046875 1.109375 2.046875 C 1.734375 2.046875 2.140625 1.46875 2.375 0.90625 Z M 4.140625 -3.34375"/>
    <path fill="#ff0000" transform="matrix(1 0 0 1 43.565 55.993)" d="M 0.453125 1.21875 C 0.375 1.5625 0.34375 1.625 -0.09375 1.625 C -0.203125 1.625 -0.3125 1.625 -0.3125 1.8125 C -0.3125 1.890625 -0.265625 1.9375 -0.1875 1.9375 C 0.078125 1.9375 0.375 1.90625 0.640625 1.90625 C 0.984375 1.90625 1.3125 1.9375 1.640625 1.9375 C 1.6875 1.9375 1.8125 1.9375 1.8125 1.734375 C 1.8125 1.625 1.71875 1.625 1.578125 1.625 C 1.078125 1.625 1.078125 1.5625 1.078125 1.46875 C 1.078125 1.34375 1.5 -0.28125 1.5625 -0.53125 C 1.6875 -0.234375 1.96875 0.109375 2.484375 0.109375 C 3.640625 0.109375 4.890625 -1.34375 4.890625 -2.8125 C 4.890625 -3.75 4.3125 -4.40625 3.5625 -4.40625 C 3.0625 -4.40625 2.578125 -4.046875 2.25 -3.65625 C 2.15625 -4.203125 1.71875 -4.40625 1.359375 -4.40625 C 0.890625 -4.40625 0.703125 -4.015625 0.625 -3.84375 C 0.4375 -3.5 0.3125 -2.90625 0.3125 -2.875 C 0.3125 -2.765625 0.40625 -2.765625 0.421875 -2.765625 C 0.53125 -2.765625 0.53125 -2.78125 0.59375 -3 C 0.765625 -3.703125 0.96875 -4.1875 1.328125 -4.1875 C 1.5 -4.1875 1.640625 -4.109375 1.640625 -3.734375 C 1.640625 -3.5 1.609375 -3.390625 1.5625 -3.21875 Z M 2.203125 -3.109375 C 2.265625 -3.375 2.546875 -3.65625 2.71875 -3.8125 C 3.078125 -4.109375 3.359375 -4.1875 3.53125 -4.1875 C 3.921875 -4.1875 4.171875 -3.84375 4.171875 -3.25 C 4.171875 -2.65625 3.84375 -1.515625 3.65625 -1.140625 C 3.3125 -0.4375 2.84375 -0.109375 2.46875 -0.109375 C 1.8125 -0.109375 1.6875 -0.9375 1.6875 -1 C 1.6875 -1.015625 1.6875 -1.03125 1.71875 -1.15625 Z M 2.203125 -3.109375"/>
    <path fill="#ff0000" transform="matrix(1 0 0 1 48.577 57.487)" d="M 0.84375 -0.4375 C 0.828125 -0.34375 0.78125 -0.171875 0.78125 -0.15625 C 0.78125 0 0.90625 0.0625 1.015625 0.0625 C 1.140625 0.0625 1.25 -0.015625 1.296875 -0.078125 C 1.328125 -0.140625 1.375 -0.375 1.421875 -0.515625 C 1.453125 -0.640625 1.53125 -0.96875 1.5625 -1.140625 C 1.609375 -1.296875 1.65625 -1.453125 1.6875 -1.609375 C 1.765625 -1.890625 1.78125 -1.953125 1.984375 -2.234375 C 2.171875 -2.515625 2.5 -2.875 3.03125 -2.875 C 3.421875 -2.875 3.4375 -2.515625 3.4375 -2.390625 C 3.4375 -1.96875 3.140625 -1.203125 3.03125 -0.90625 C 2.953125 -0.703125 2.921875 -0.640625 2.921875 -0.53125 C 2.921875 -0.15625 3.21875 0.0625 3.578125 0.0625 C 4.28125 0.0625 4.578125 -0.890625 4.578125 -1 C 4.578125 -1.09375 4.5 -1.09375 4.46875 -1.09375 C 4.375 -1.09375 4.375 -1.046875 4.34375 -0.96875 C 4.1875 -0.40625 3.875 -0.125 3.609375 -0.125 C 3.453125 -0.125 3.421875 -0.21875 3.421875 -0.375 C 3.421875 -0.53125 3.46875 -0.625 3.59375 -0.9375 C 3.671875 -1.15625 3.953125 -1.890625 3.953125 -2.28125 C 3.953125 -2.953125 3.421875 -3.078125 3.046875 -3.078125 C 2.46875 -3.078125 2.078125 -2.71875 1.875 -2.4375 C 1.828125 -2.921875 1.421875 -3.078125 1.125 -3.078125 C 0.828125 -3.078125 0.671875 -2.859375 0.578125 -2.703125 C 0.421875 -2.4375 0.328125 -2.046875 0.328125 -2 C 0.328125 -1.921875 0.421875 -1.921875 0.453125 -1.921875 C 0.546875 -1.921875 0.546875 -1.9375 0.59375 -2.125 C 0.703125 -2.53125 0.84375 -2.875 1.109375 -2.875 C 1.296875 -2.875 1.34375 -2.71875 1.34375 -2.53125 C 1.34375 -2.40625 1.28125 -2.140625 1.21875 -1.953125 C 1.171875 -1.765625 1.109375 -1.484375 1.078125 -1.328125 Z M 0.84375 -0.4375"/>
    <path fill="none" stroke="#ff0000" stroke-miterlimit="10" stroke-width="0.8" stroke-linejoin="round" transform="matrix(1 0 0 -1 -102 684)" d="M 320 668 C 248 668 244 668 242 661.332031 C 240 654.667969 240 641.332031 238.101562 634.667969 C 236.199219 628 232.398438 628 164 628"/>
    <path fill="none" stroke="#0000ff" stroke-miterlimit="10" stroke-width="0.8" stroke-linejoin="round" transform="matrix(1 0 0 -1 -102 684)" d="M 320 628 C 248 628 244 628 242 634.667969 C 240 641.332031 240 654.667969 238 661.332031 C 236 668 232 668 164 668"/>
    <path fill="none" stroke="#0000ff" stroke-miterlimit="10" stroke-width="0.4" stroke-linejoin="round" transform="matrix(1 0 0 -1 -102 684)" d="M 232 652 L 248 652"/>
    <path fill="#0000ff" fill-rule="evenodd" stroke="#0000ff" stroke-miterlimit="10" stroke-width="0.4" stroke-linejoin="round" transform="matrix(1 0 0 -1 -102 684)" d="M 248 652 L 243 653.664062 L 243 650.335938 Z M 248 652"/>
    <path fill="#0000ff" transform="matrix(1 0 0 1 146 35.9665)" d="M 1.859375 -2.296875 C 2.15625 -2.296875 2.890625 -2.328125 3.390625 -2.53125 C 4.09375 -2.828125 4.140625 -3.421875 4.140625 -3.5625 C 4.140625 -4 3.765625 -4.40625 3.078125 -4.40625 C 1.96875 -4.40625 0.453125 -3.4375 0.453125 -1.6875 C 0.453125 -0.671875 1.046875 0.109375 2.03125 0.109375 C 3.453125 0.109375 4.28125 -0.953125 4.28125 -1.0625 C 4.28125 -1.125 4.234375 -1.203125 4.171875 -1.203125 C 4.109375 -1.203125 4.09375 -1.171875 4.03125 -1.09375 C 3.25 -0.109375 2.15625 -0.109375 2.046875 -0.109375 C 1.265625 -0.109375 1.171875 -0.953125 1.171875 -1.265625 C 1.171875 -1.390625 1.1875 -1.6875 1.328125 -2.296875 Z M 1.390625 -2.515625 C 1.78125 -4.03125 2.8125 -4.1875 3.078125 -4.1875 C 3.53125 -4.1875 3.8125 -3.890625 3.8125 -3.5625 C 3.8125 -2.515625 2.21875 -2.515625 1.796875 -2.515625 Z M 1.390625 -2.515625"/>
    <path fill="#0000ff" transform="matrix(1 0 0 1 150.639 32.3515)" d="M 5.1875 -1.578125 C 5.296875 -1.578125 5.46875 -1.578125 5.46875 -1.734375 C 5.46875 -1.921875 5.296875 -1.921875 5.1875 -1.921875 L 1.03125 -1.921875 C 0.921875 -1.921875 0.75 -1.921875 0.75 -1.75 C 0.75 -1.578125 0.90625 -1.578125 1.03125 -1.578125 Z M 5.1875 -1.578125"/>
    <path fill="none" stroke="#ff0000" stroke-miterlimit="10" stroke-width="0.4" stroke-linejoin="round" transform="matrix(1 0 0 -1 -102 684)" d="M 248 644 L 232 644"/>
    <path fill="#ff0000" fill-rule="evenodd" stroke="#ff0000" stroke-miterlimit="10" stroke-width="0.4" stroke-linejoin="round" transform="matrix(1 0 0 -1 -102 684)" d="M 232 644 L 237 642.335938 L 237 645.664062 Z M 232 644"/>
    <path fill="#ff0000" transform="matrix(1 0 0 1 117.646 43.9665)" d="M 2.859375 -6.8125 C 2.859375 -6.8125 2.859375 -6.921875 2.734375 -6.921875 C 2.5 -6.921875 1.78125 -6.84375 1.515625 -6.8125 C 1.4375 -6.8125 1.328125 -6.796875 1.328125 -6.625 C 1.328125 -6.5 1.421875 -6.5 1.5625 -6.5 C 2.046875 -6.5 2.0625 -6.4375 2.0625 -6.328125 L 2.03125 -6.125 L 0.59375 -0.390625 C 0.546875 -0.25 0.546875 -0.234375 0.546875 -0.171875 C 0.546875 0.0625 0.75 0.109375 0.84375 0.109375 C 1 0.109375 1.15625 -0.015625 1.203125 -0.15625 L 1.390625 -0.90625 L 1.609375 -1.796875 C 1.671875 -2.03125 1.734375 -2.25 1.78125 -2.46875 C 1.796875 -2.53125 1.890625 -2.859375 1.890625 -2.921875 C 1.921875 -3.015625 2.234375 -3.5625 2.578125 -3.84375 C 2.796875 -4 3.09375 -4.1875 3.53125 -4.1875 C 3.953125 -4.1875 4.0625 -3.84375 4.0625 -3.484375 C 4.0625 -2.953125 3.6875 -1.859375 3.453125 -1.25 C 3.375 -1.03125 3.3125 -0.90625 3.3125 -0.703125 C 3.3125 -0.234375 3.671875 0.109375 4.140625 0.109375 C 5.078125 0.109375 5.4375 -1.34375 5.4375 -1.421875 C 5.4375 -1.53125 5.359375 -1.53125 5.328125 -1.53125 C 5.21875 -1.53125 5.21875 -1.5 5.171875 -1.34375 C 5.03125 -0.8125 4.703125 -0.109375 4.15625 -0.109375 C 3.984375 -0.109375 3.921875 -0.203125 3.921875 -0.4375 C 3.921875 -0.6875 4 -0.921875 4.09375 -1.140625 C 4.25 -1.578125 4.703125 -2.765625 4.703125 -3.34375 C 4.703125 -3.984375 4.3125 -4.40625 3.5625 -4.40625 C 2.9375 -4.40625 2.453125 -4.09375 2.078125 -3.640625 Z M 2.859375 -6.8125"/>
    <path fill="#ff0000" transform="matrix(1 0 0 1 123.386 40.3515)" d="M 3.21875 -1.578125 L 5.359375 -1.578125 C 5.453125 -1.578125 5.609375 -1.578125 5.609375 -1.734375 C 5.609375 -1.921875 5.453125 -1.921875 5.359375 -1.921875 L 3.21875 -1.921875 L 3.21875 -4.0625 C 3.21875 -4.140625 3.21875 -4.3125 3.0625 -4.3125 C 2.890625 -4.3125 2.890625 -4.15625 2.890625 -4.0625 L 2.890625 -1.921875 L 0.75 -1.921875 C 0.65625 -1.921875 0.484375 -1.921875 0.484375 -1.75 C 0.484375 -1.578125 0.640625 -1.578125 0.75 -1.578125 L 2.890625 -1.578125 L 2.890625 0.5625 C 2.890625 0.65625 2.890625 0.828125 3.046875 0.828125 C 3.21875 0.828125 3.21875 0.65625 3.21875 0.5625 Z M 3.21875 -1.578125"/>
    <path fill="none" stroke="#000000" stroke-miterlimit="10" stroke-width="0.8" stroke-linejoin="round" transform="matrix(1 0 0 -1 -102 684)" d="M 268 616 L 212 616"/>
    <path fill-rule="evenodd" stroke="#000000" stroke-miterlimit="10" stroke-width="0.8" stroke-linejoin="round" transform="matrix(1 0 0 -1 -102 684)" d="M 212 616 L 219 613.667969 L 219 618.332031 Z M 212 616"/>
    <path transform="matrix(1 0 0 1 116.504 75.999)" d="M 2.828125 -6.234375 C 2.828125 -6.4375 2.6875 -6.59375 2.46875 -6.59375 C 2.1875 -6.59375 1.921875 -6.328125 1.921875 -6.0625 C 1.921875 -5.875 2.0625 -5.703125 2.296875 -5.703125 C 2.53125 -5.703125 2.828125 -5.9375 2.828125 -6.234375 Z M 2.078125 -2.484375 C 2.1875 -2.765625 2.1875 -2.796875 2.296875 -3.0625 C 2.375 -3.265625 2.421875 -3.40625 2.421875 -3.59375 C 2.421875 -4.03125 2.109375 -4.40625 1.609375 -4.40625 C 0.671875 -4.40625 0.296875 -2.953125 0.296875 -2.875 C 0.296875 -2.765625 0.390625 -2.765625 0.40625 -2.765625 C 0.515625 -2.765625 0.515625 -2.796875 0.5625 -2.953125 C 0.84375 -3.890625 1.234375 -4.1875 1.578125 -4.1875 C 1.65625 -4.1875 1.828125 -4.1875 1.828125 -3.875 C 1.828125 -3.65625 1.75 -3.453125 1.71875 -3.34375 C 1.640625 -3.09375 1.1875 -1.9375 1.03125 -1.5 C 0.921875 -1.25 0.796875 -0.921875 0.796875 -0.703125 C 0.796875 -0.234375 1.140625 0.109375 1.609375 0.109375 C 2.546875 0.109375 2.921875 -1.328125 2.921875 -1.421875 C 2.921875 -1.53125 2.828125 -1.53125 2.796875 -1.53125 C 2.703125 -1.53125 2.703125 -1.5 2.65625 -1.34375 C 2.46875 -0.71875 2.140625 -0.109375 1.640625 -0.109375 C 1.46875 -0.109375 1.390625 -0.203125 1.390625 -0.4375 C 1.390625 -0.6875 1.453125 -0.828125 1.6875 -1.4375 Z M 2.078125 -2.484375"/>
    <path transform="matrix(1 0 0 1 119.936 77.494)" d="M 1.40625 -2.75 L 2.484375 -2.75 L 2.484375 -3 L 1.40625 -3 L 1.40625 -4.28125 L 1.15625 -4.28125 C 1.15625 -3.65625 0.875 -2.96875 0.203125 -2.953125 L 0.203125 -2.75 L 0.84375 -2.75 L 0.84375 -0.875 C 0.84375 -0.09375 1.4375 0.0625 1.828125 0.0625 C 2.296875 0.0625 2.609375 -0.328125 2.609375 -0.875 L 2.609375 -1.265625 L 2.375 -1.265625 L 2.375 -0.890625 C 2.375 -0.40625 2.15625 -0.15625 1.875 -0.15625 C 1.40625 -0.15625 1.40625 -0.734375 1.40625 -0.859375 Z M 1.40625 -2.75"/>
    <path transform="matrix(1 0 0 1 123.046315 77.494)" d="M 3.6875 -1.484375 C 3.6875 -2.359375 2.9375 -3.109375 1.984375 -3.109375 C 1.015625 -3.109375 0.265625 -2.359375 0.265625 -1.484375 C 0.265625 -0.625 1.03125 0.0625 1.984375 0.0625 C 2.921875 0.0625 3.6875 -0.625 3.6875 -1.484375 Z M 1.984375 -0.15625 C 1.71875 -0.15625 1.34375 -0.234375 1.109375 -0.578125 C 0.921875 -0.859375 0.90625 -1.21875 0.90625 -1.546875 C 0.90625 -1.84375 0.90625 -2.265625 1.15625 -2.5625 C 1.328125 -2.765625 1.625 -2.90625 1.984375 -2.90625 C 2.390625 -2.90625 2.6875 -2.71875 2.84375 -2.5 C 3.03125 -2.234375 3.046875 -1.875 3.046875 -1.546875 C 3.046875 -1.21875 3.03125 -0.84375 2.828125 -0.5625 C 2.640625 -0.296875 2.328125 -0.15625 1.984375 -0.15625 Z M 1.984375 -0.15625"/>
    <path transform="matrix(1 0 0 1 127.014407 77.494)" d="M 1.40625 -2.75 L 2.484375 -2.75 L 2.484375 -3 L 1.40625 -3 L 1.40625 -4.28125 L 1.15625 -4.28125 C 1.15625 -3.65625 0.875 -2.96875 0.203125 -2.953125 L 0.203125 -2.75 L 0.84375 -2.75 L 0.84375 -0.875 C 0.84375 -0.09375 1.4375 0.0625 1.828125 0.0625 C 2.296875 0.0625 2.609375 -0.328125 2.609375 -0.875 L 2.609375 -1.265625 L 2.375 -1.265625 L 2.375 -0.890625 C 2.375 -0.40625 2.15625 -0.15625 1.875 -0.15625 C 1.40625 -0.15625 1.40625 -0.734375 1.40625 -0.859375 Z M 1.40625 -2.75"/>
    <path transform="matrix(1 0 0 1 130.124722 77.494)" d="M 3.109375 -1.875 C 3.109375 -2.234375 3.109375 -2.5 2.78125 -2.765625 C 2.5 -3 2.171875 -3.109375 1.75 -3.109375 C 1.09375 -3.109375 0.625 -2.859375 0.625 -2.4375 C 0.625 -2.203125 0.78125 -2.09375 0.96875 -2.09375 C 1.15625 -2.09375 1.296875 -2.234375 1.296875 -2.421875 C 1.296875 -2.53125 1.234375 -2.6875 1.046875 -2.734375 C 1.296875 -2.90625 1.703125 -2.90625 1.734375 -2.90625 C 2.125 -2.90625 2.5625 -2.65625 2.5625 -2.0625 L 2.5625 -1.859375 C 2.171875 -1.84375 1.71875 -1.8125 1.203125 -1.625 C 0.578125 -1.40625 0.390625 -1.015625 0.390625 -0.703125 C 0.390625 -0.109375 1.109375 0.0625 1.609375 0.0625 C 2.15625 0.0625 2.484375 -0.25 2.640625 -0.515625 C 2.65625 -0.234375 2.84375 0.03125 3.171875 0.03125 C 3.1875 0.03125 3.859375 0.03125 3.859375 -0.625 L 3.859375 -1.015625 L 3.625 -1.015625 L 3.625 -0.640625 C 3.625 -0.5625 3.625 -0.234375 3.359375 -0.234375 C 3.109375 -0.234375 3.109375 -0.5625 3.109375 -0.640625 Z M 2.5625 -0.984375 C 2.5625 -0.3125 1.96875 -0.125 1.65625 -0.125 C 1.296875 -0.125 0.96875 -0.359375 0.96875 -0.703125 C 0.96875 -1.09375 1.296875 -1.625 2.5625 -1.671875 Z M 2.5625 -0.984375"/>
    <path transform="matrix(1 0 0 1 134.092814 77.494)" d="M 1.4375 -4.84375 L 0.390625 -4.765625 L 0.390625 -4.515625 C 0.859375 -4.515625 0.90625 -4.453125 0.90625 -4.125 L 0.90625 -0.546875 C 0.90625 -0.25 0.84375 -0.25 0.390625 -0.25 L 0.390625 0 C 0.40625 0 0.890625 -0.03125 1.171875 -0.03125 C 1.4375 -0.03125 1.6875 -0.015625 1.953125 0 L 1.953125 -0.25 C 1.5 -0.25 1.4375 -0.25 1.4375 -0.546875 Z M 1.4375 -4.84375"/>
    <path transform="matrix(1 0 0 1 136.859 75.999)" d="M 3.296875 2.390625 C 3.296875 2.359375 3.296875 2.34375 3.125 2.171875 C 1.890625 0.921875 1.5625 -0.96875 1.5625 -2.5 C 1.5625 -4.234375 1.9375 -5.96875 3.171875 -7.203125 C 3.296875 -7.328125 3.296875 -7.34375 3.296875 -7.375 C 3.296875 -7.453125 3.265625 -7.484375 3.203125 -7.484375 C 3.09375 -7.484375 2.203125 -6.796875 1.609375 -5.53125 C 1.109375 -4.4375 0.984375 -3.328125 0.984375 -2.5 C 0.984375 -1.71875 1.09375 -0.515625 1.640625 0.625 C 2.25 1.84375 3.09375 2.5 3.203125 2.5 C 3.265625 2.5 3.296875 2.46875 3.296875 2.390625 Z M 3.296875 2.390625"/>
    <path transform="matrix(1 0 0 1 140.724489 75.999)" d="M 3.78125 -0.546875 L 3.78125 0.109375 L 5.25 0 L 5.25 -0.3125 C 4.5625 -0.3125 4.46875 -0.375 4.46875 -0.875 L 4.46875 -6.921875 L 3.046875 -6.8125 L 3.046875 -6.5 C 3.734375 -6.5 3.8125 -6.4375 3.8125 -5.9375 L 3.8125 -3.78125 C 3.53125 -4.140625 3.09375 -4.40625 2.5625 -4.40625 C 1.390625 -4.40625 0.34375 -3.421875 0.34375 -2.140625 C 0.34375 -0.875 1.3125 0.109375 2.453125 0.109375 C 3.09375 0.109375 3.53125 -0.234375 3.78125 -0.546875 Z M 3.78125 -3.21875 L 3.78125 -1.171875 C 3.78125 -1 3.78125 -0.984375 3.671875 -0.8125 C 3.375 -0.328125 2.9375 -0.109375 2.5 -0.109375 C 2.046875 -0.109375 1.6875 -0.375 1.453125 -0.75 C 1.203125 -1.15625 1.171875 -1.71875 1.171875 -2.140625 C 1.171875 -2.5 1.1875 -3.09375 1.46875 -3.546875 C 1.6875 -3.859375 2.0625 -4.1875 2.609375 -4.1875 C 2.953125 -4.1875 3.375 -4.03125 3.671875 -3.59375 C 3.78125 -3.421875 3.78125 -3.40625 3.78125 -3.21875 Z M 3.78125 -3.21875"/>
    <path transform="matrix(1 0 0 1 146.253732 75.999)" d="M 1.765625 -4.40625 L 0.375 -4.296875 L 0.375 -3.984375 C 1.015625 -3.984375 1.109375 -3.921875 1.109375 -3.4375 L 1.109375 -0.75 C 1.109375 -0.3125 1 -0.3125 0.328125 -0.3125 L 0.328125 0 C 0.640625 -0.015625 1.1875 -0.03125 1.421875 -0.03125 C 1.78125 -0.03125 2.125 -0.015625 2.46875 0 L 2.46875 -0.3125 C 1.796875 -0.3125 1.765625 -0.359375 1.765625 -0.75 Z M 1.796875 -6.140625 C 1.796875 -6.453125 1.5625 -6.671875 1.28125 -6.671875 C 0.96875 -6.671875 0.75 -6.40625 0.75 -6.140625 C 0.75 -5.875 0.96875 -5.609375 1.28125 -5.609375 C 1.5625 -5.609375 1.796875 -5.828125 1.796875 -6.140625 Z M 1.796875 -6.140625"/>
    <path transform="matrix(1 0 0 1 149.013372 75.999)" d="M 4.46875 -3.984375 L 5.609375 -3.984375 L 5.609375 -4.296875 L 4.4375 -4.296875 L 4.4375 -5.453125 C 4.4375 -6.34375 4.921875 -6.8125 5.359375 -6.8125 C 5.390625 -6.8125 5.546875 -6.8125 5.6875 -6.734375 C 5.578125 -6.703125 5.390625 -6.5625 5.390625 -6.3125 C 5.390625 -6.09375 5.546875 -5.890625 5.828125 -5.890625 C 6.109375 -5.890625 6.265625 -6.09375 6.265625 -6.328125 C 6.265625 -6.6875 5.90625 -7.03125 5.359375 -7.03125 C 4.765625 -7.03125 4.328125 -6.65625 4.28125 -6.609375 C 3.984375 -6.984375 3.421875 -7.03125 3.15625 -7.03125 C 2.21875 -7.03125 1.0625 -6.515625 1.0625 -5.4375 L 1.0625 -4.296875 L 0.265625 -4.296875 L 0.265625 -3.984375 L 1.0625 -3.984375 L 1.0625 -0.75 C 1.0625 -0.3125 0.953125 -0.3125 0.28125 -0.3125 L 0.28125 0 C 0.609375 -0.015625 1.140625 -0.03125 1.390625 -0.03125 C 1.640625 -0.03125 2.125 -0.015625 2.5 0 L 2.5 -0.3125 C 1.828125 -0.3125 1.71875 -0.3125 1.71875 -0.75 L 1.71875 -3.984375 L 3.8125 -3.984375 L 3.8125 -0.75 C 3.8125 -0.3125 3.703125 -0.3125 3.03125 -0.3125 L 3.03125 0 C 3.421875 -0.015625 3.890625 -0.03125 4.171875 -0.03125 C 4.5625 -0.03125 5.03125 -0.03125 5.4375 0 L 5.4375 -0.3125 L 5.21875 -0.3125 C 4.484375 -0.3125 4.46875 -0.421875 4.46875 -0.78125 Z M 1.6875 -4.296875 L 1.6875 -5.421875 C 1.6875 -6.390625 2.5 -6.8125 3.15625 -6.8125 C 3.640625 -6.8125 3.921875 -6.625 3.921875 -6.625 L 3.921875 -6.609375 C 3.765625 -6.59375 3.5625 -6.453125 3.5625 -6.1875 C 3.5625 -6.125 3.5625 -5.875 3.84375 -5.78125 C 3.8125 -5.65625 3.8125 -5.5625 3.8125 -5.4375 L 3.8125 -4.296875 Z M 1.6875 -4.296875"/>
    <path transform="matrix(1 0 0 1 155.598651 75.999)" d="M 2.875 -2.5 C 2.875 -3.265625 2.765625 -4.46875 2.21875 -5.609375 C 1.625 -6.828125 0.765625 -7.484375 0.671875 -7.484375 C 0.609375 -7.484375 0.5625 -7.4375 0.5625 -7.375 C 0.5625 -7.34375 0.5625 -7.328125 0.75 -7.140625 C 1.734375 -6.15625 2.296875 -4.578125 2.296875 -2.5 C 2.296875 -0.78125 1.9375 0.96875 0.703125 2.21875 C 0.5625 2.34375 0.5625 2.359375 0.5625 2.390625 C 0.5625 2.453125 0.609375 2.5 0.671875 2.5 C 0.765625 2.5 1.671875 1.8125 2.25 0.546875 C 2.765625 -0.546875 2.875 -1.65625 2.875 -2.5 Z M 2.875 -2.5"/>
</svg>
